<ttFont>
          <CharString index="0">
            257 220 rmoveto
            6 289 1 31 12 15 35 3 rlinecurve
            10 93 rlineto
            0 -95 -4 -39 -79 -98 3 0 vhcurveto
            -10 -89 2 -4 rlineto
            0 19 2 10 23 5 -10 -44 vhcurveto
            -306 vlineto
            -147 75 -64 171 176 91 84 162 vhcurveto
            282 vlineto
            24 6 6 42 14 vhcurveto
            8 90 rlineto
            0 -83 -3 -61 -37 -83 3 0 vhcurveto
            -11 -89 3 -4 rlineto
            0 13 2 10 20 6 -13 -41 vhcurveto
            0 1 -240 -62 vvcurveto
            -62 -22 -26 -50 -50 -27 41 64 vhcurveto
            return
          </CharString>
          <CharString index="1">
            284 175 rmoveto
            22 0 29 1 34 vhcurveto
            2 18 28 4 29 hhcurveto
            46 74 -3 0 hvcurveto
            14 115 -12 14 rlineto
            0 -80 -6 -30 vhcurveto
            -28 -35 1 -19 hhcurveto
            6 113 rlineto
            22 6 5 28 81 17 -10 -45 -13 -2 -24 0 vhcurveto
            138 9 rlineto
            5 94 18 105 0 vvcurveto
            -13 16 rlineto
            -7 -56 -128 -5 -125 hhcurveto
            -91 -142 3 0 hvcurveto
            -9 -79 12 -14 rlineto
            return
          </CharString>
          <CharString index="2">
            rmoveto
            -23 7 -47 -19 -54 -21 -30 -11 rlinecurve
            -30 11 -57 21 -45 19 -23 -7 rcurveline
            -35 -62 rlineto
            83 -61 93 -77 0 vvcurveto
            27 hlineto
            0 93 77 84 61 vhcurveto
            endchar
          </CharString>
          <CharString index="3">
            rmoveto
            52 33 34 53 51 -29 29 -50 -53 -33 -34 -53 -52 28 -28 52 hvcurveto
            -193 hmoveto
            53 33 34 53 51 -29 29 -50 -53 -33 -34 -53 -52 28 -28 51 hvcurveto
            return
          </CharString>
          <CharString index="4">
            -19 67 -81 310 0 vvcurveto
            -13 11 -241 -13 -128 -389 -7 -20 -14 -14 -18 -5 rlinecurve
            -6 -73 rlineto
            113 hlineto
            50 80 -2 37 callsubr
            -8 9 rlineto
            -18 hlineto
            -21 -1 1 12 2 0 5 1 7 hvcurveto
            return
          </CharString>
          <CharString index="5">
            332 114 rmoveto
            -65 -23 65 182 117 21 44 56 67 23 -63 -182 -118 -22 -45 -57 hvcurveto
            -19 -126 rmoveto
            209 118 127 225 211 -100 108 -198 -212 -115 -123 -224 -209 105 -115 193 hvcurveto
            return
          </CharString>
          <CharString index="6">
            -96 callsubr
            hintmask 10010000
            -78 callsubr
            return
          </CharString>
          <CharString index="7">
            hstemhm
            hintmask 10101010
            -106 callsubr
            hintmask 01100110
            -80 callsubr
            return
          </CharString>
          <CharString index="8">
            hstemhm
            hintmask 10101010
            -104 callgsubr
            hintmask 01100110
            -77 callgsubr
            return
          </CharString>
          <CharString index="9">
            515 286 rmoveto
            -1 -54 -3 -49 vhcurveto
            -41 -41 -1 -47 hhcurveto
            -11 -79 2 callsubr
            11 1 12 19 5 -7 -23 vhcurveto
            -41 vlineto
            0 -9 -6 -25 -54 -19 44 115 98 15 26 61 31 8 -11 -36 -25 -2 -18 0 vhcurveto
            139 8 rlineto
            5 94 19 67 0 vvcurveto
            -10 18 rlineto
            0 -90 20 -79 -198 -103 -91 -178 -160 94 -92 160 138 64 23 0 vhcurveto
            11 14 rlineto
            -4 17 -2 17 32 vvcurveto
            106 5 14 41 21 vhcurveto
            return
          </CharString>
          <CharString index="10">
            hstemhm
            hintmask 10111000
            615 153 rmoveto
            -29 108 -96 385 0 vvcurveto
            -15 12 -263 -16 -159 -502 -10 -31 -17 -18 -24 -6 rlinecurve
            -7 -87 rlineto
            0 71 1 62 61 93 25 callsubr
            83 -8 10 rlineto
            -26 hlineto
            -27 -4 3 17 4 1 7 2 11 hvcurveto
            10 44 rlineto
            2 26 31 3 23 hhcurveto
            19 31 -1 -1 27 hvcurveto
            6 -39 rlineto
            1 -8 1 -6 -4 vvcurveto
            -26 -3 -1 -61 -7 vhcurveto
            -6 -84 rlineto
            hintmask 01111000
            8 -9 rlineto
            return
          </CharString>
          <CharString index="11">
            hstemhm
            hintmask 10010000
            531 125 rmoveto
            -103 callsubr
            hintmask 01110000
            -92 callsubr
            return
          </CharString>
          <CharString index="12">
            rmoveto
            23 -7 39 27 46 27 26 15 rlinecurve
            26 -15 47 -27 39 -27 23 7 rcurveline
            45 62 rlineto
            -78 69 -88 87 0 vvcurveto
            -27 hlineto
            0 -88 -87 -79 -69 vhcurveto
            endchar
          </CharString>
          <CharString index="13">
            0 96 5 95 55 86 -2 0 vhcurveto
            8 79 -7 10 -31 3 -16 19 -12 45 rlinecurve
            -298 325 rmoveto
            22 hlineto
            34 -175 rlineto
            -1 -18 -19 -1 -15 hhcurveto
            -51 hlineto
            return
          </CharString>
          <CharString index="14">
            hstem
            609 359 rmoveto
            -1 -62 -4 -57 vhcurveto
            -153 hlineto
            -12 -95 38 callgsubr
            17 1 16 25 7 -9 -32 vhcurveto
            -63 vlineto
            0 -16 -12 -36 -73 -31 65 152 132 26 42 82 46 13 -15 -49 -32 -2 -23 0 vhcurveto
            154 9 rlineto
            6 117 22 85 0 vvcurveto
            -11 20 rlineto
            0 -109 26 -94 -235 -126 -121 -227 -203 113 -119 192 162 80 33 0 vhcurveto
            12 16 rlineto
            -5 21 -2 24 41 vvcurveto
            131 6 20 46 26 vhcurveto
            return
          </CharString>
          <CharString index="15">
            6 26 rlineto
            1 22 24 2 17 hhcurveto
            15 23 0 -1 23 hvcurveto
            2 -21 rlineto
            -4 1 -3 -2 vvcurveto
            -21 -1 1 -50 -6 vhcurveto
            -5 -72 7 -7 rlineto
            return
          </CharString>
          <CharString index="16">
            0 -114 -3 -35 vhcurveto
            -138 hlineto
            -7 -63 8 -12 rlineto
            20 -6 callgsubr
            -7 -32 hvcurveto
            -258 vlineto
            -43 -8 -11 -44 -9 -19 callsubr
            return
          </CharString>
          <CharString index="17">
            23 callsubr
            15 1 11 28 7 -10 -41 vhcurveto
            return
          </CharString>
          <CharString index="18">
            0 103 5 63 42 125 -25 callsubr
            9 84 -8 10 rlineto
            0 -11 -3 -21 -26 -6 13 56 130 4 130 6 94 vhcurveto
            return
          </CharString>
          <CharString index="19">
            0 -129 -5 -43 vhcurveto
            -161 16 callgsubr
            return
          </CharString>
          <CharString index="20">
            124 123 -5 0 hvcurveto
            14 14 rlineto
            7 113 12 105 0 vvcurveto
            -11 13 -115 -11 rlineto
            -106 -5 -14 -24 -54 hhcurveto
            -17 -9 10 19 127 4 69 5 65 hvcurveto
            1 23 16 7 58 5 10 83 rcurveline
            return
          </CharString>
          <CharString index="21">
            0 74 6 60 36 97 -24 callgsubr
            10 72 -9 7 rlineto
            0 -16 -3 -10 -25 -7 10 31 -1 vhcurveto
            -4 103 rlineto
            14 hlineto
            0 68 -95 84 -127 vhcurveto
            173 9 11 377 1 32 11 12 35 5 rlinecurve
            4 76 rlineto
            -1 -72 -1 -48 -48 -97 3 0 vhcurveto
            -4 -68 5 -9 rlineto
            25 hlineto
            20 5 -7 -27 2 hvcurveto
            4 -111 rlineto
            return
          </CharString>
          <CharString index="22">
            rmoveto
            67 -43 34 -115 22 vhcurveto
            2 26 rlineto
            68 60 -5 0 hvcurveto
            14 14 20 125 -58 -3 rlineto
            -20 -7 -10 -7 -26 hhcurveto
            -146 -4 -5 -5 rlineto
            0 -4 -106 -9 -100 vhcurveto
            6 -8 rlineto
            79 -9 30 -10 -20 vvcurveto
            -19 -24 -13 -38 -27 -21 5 8 -17 vhcurveto
            -17 -17 rlineto
            -70 6 18 -25 48 hhcurveto
            112 104 67 73 hvcurveto
            endchar
          </CharString>
          <CharString index="23">
            -6 -81 12 -14 rlineto
            63 -7 12 -10 -46 vvcurveto
            -12 -349 -1 -40 -17 -18 -39 -5 rlinecurve
            -10 -90 rlineto
            0 85 8 69 43 111 -25 callsubr
            11 85 -9 9 rlineto
            0 -22 -4 -12 -29 -9 13 38 -1 vhcurveto
            -3 178 rlineto
            15 hlineto
            return
          </CharString>
          <CharString index="24">
            73 164 28 callsubr
            3 61 15 93 0 vvcurveto
            -87 -6 rlineto
            -45 -3 -14 -16 -34 hhcurveto
            -31 hlineto
            -3 6 rlineto
            92 89 31 51 61 vvcurveto
            61 -55 41 -80 -54 -58 -29 -47 -40 vhcurveto
            18 -86 rlineto
            13 hlineto
            29 27 28 15 25 hhcurveto
            20 12 -9 -18 hvcurveto
            1 -21 -15 -23 -43 -46 -94 -97 rcurveline
            endchar
          </CharString>
          <CharString index="25">
            hstemhm
            hintmask 01110000
            259 391 -93 callgsubr
            hintmask 10110000
            48 callsubr
            hintmask 01110000
            -63 callsubr
            return
          </CharString>
          <CharString index="26">
            rmoveto
            -87 32 -267 -426 rlineto
            -83 -132 -111 -160 0 vvcurveto
            6 -17 93 -35 rlineto
            0 99 155 90 143 vhcurveto
            91 139 179 277 0 vvcurveto
            return
          </CharString>
          <CharString index="27">
            -1 callsubr
            22 5 -11 -43 vhcurveto
            -1 -335 rlineto
            -56 callsubr
            return
          </CharString>
          <CharString index="28">
            39 0 74 -66 -21 517 -20 24 -30 callgsubr
            74 132 rmoveto
            -44 -10 -11 -43 -10 vhcurveto
            -6 -71 rlineto
            0 89 4 54 35 109 26 callsubr
            -8 -2 -17 -21 -5 10 43 vhcurveto
            6 261 1 27 7 6 41 10 rlinecurve
            6 76 rlineto
            0 -114 -3 -36 -13 -125 1 0 vhcurveto
            -8 -64 8 -12 rlineto
            21 -6 callgsubr
            -7 -32 hvcurveto
            183 -143 rmoveto
            99 -197 rlineto
            hintmask 01010000
            -49 25 21 -14 45 hhcurveto
            22 113 9 0 hvcurveto
            9 63 -9 13 -34 6 -21 20 -23 45 rlinecurve
            -69 136 21 30 43 59 41 40 42 24 rlinecurve
            8 63 -9 13 43 callgsubr
            -95 -4 -30 -39 -83 -45 callgsubr
            -8 -69 6 -9 rlineto
            24 -1 7 -6 -18 vvcurveto
            -12 -6 -14 -10 -9 vhcurveto
            -86 -96 rlineto
            endchar
          </CharString>
          <CharString index="29">
            0 83 3 81 47 73 -1 0 vhcurveto
            7 66 -6 9 -23 2 -13 15 -9 35 rlinecurve
            return
          </CharString>
          <CharString index="30">
            268 411 rmoveto
            13 11 6 19 -1 vhcurveto
            9 70 -7 10 rlineto
            0 -116 -6 -37 -26 -103 -45 callgsubr
            -9 -78 4 -5 33 -17 31 -22 15 -22 rlinecurve
            91 -157 rlineto
            17 -29 6 -17 -21 vvcurveto
            -8 vlineto
            -44 -17 -10 -72 -4 vhcurveto
            return
          </CharString>
          <CharString index="31">
            hstemhm
            hintmask 10110000
            489 16 rmoveto
            2 78 17 128 0 vvcurveto
            -113 -8 -6 -69 -20 -27 -53 -11 rlinecurve
            -76 -13 47 69 104 151 120 147 rlinecurve
            -23 46 -283 -1 -150 8 -10 -8 rlineto
            -2 -73 -10 -120 0 vvcurveto
            114 7 1 64 8 8 62 14 rlinecurve
            53 8 -265 -371 rlineto
            hintmask 01110000
            32 -49 70 8 363 -4 rlineto
            return
          </CharString>
          <CharString index="32">
            -44 -9 -11 -43 -8 -19 callsubr
            -1 -1 88 4 52 hhcurveto
            -63 callsubr
            0 -6 -2 -14 -21 -5 10 43 vhcurveto
            67 vlineto
            0 71 7 17 18 21 -1 0 vhcurveto
            -72 vlineto
            -38 -16 -16 -38 -1 vhcurveto
            -6 -74 rlineto
            0 104 1 39 73 74 -1 0 vhcurveto
            8 69 -8 10 rlineto
            0 -9 -2 -12 -23 -9 13 38 return
          </CharString>
          <CharString index="33">
            hstem
            571 19 rmoveto
            2 100 21 156 0 vvcurveto
            -126 -9 -9 -93 -26 -37 -64 -12 rlinecurve
            -105 -15 55 85 129 202 149 199 rlinecurve
            -25 54 rlineto
            -331 hlineto
            -181 11 -11 -11 rlineto
            -3 -93 -12 -147 0 vvcurveto
            126 9 3 85 12 14 77 15 rlinecurve
            77 10 -326 -491 36 -58 82 10 429 -6 rlineto
            return
          </CharString>
          <CharString index="34">
            -20 hstemhm
            hintmask 01001010
            -68 callsubr
            hintmask 10000110
            -29 callsubr
            hintmask 10001010
            -46 callsubr
            hintmask 00110010
            -21 callgsubr
            hintmask 10010010
            -63 callgsubr
            return
          </CharString>
          <CharString index="35">
            0 -143 -3 -40 vhcurveto
            -139 hlineto
            -7 -63 9 -12 rlineto
            20 -6 callgsubr
            -7 -32 hvcurveto
            -251 vlineto
            -47 -12 -16 -41 -6 vhcurveto
            return
          </CharString>
          <CharString index="36">
            46 0 115 -104 -21 276 120 53 208 -120 120 -88 88 return
          </CharString>
          <CharString index="37">
            41 -9 107 -77 -21 202 83 115 109 -81 81 -5 36 callgsubr
            293 -9 rmoveto
            179 110 -2 callgsubr
            hintmask 10100100
            0 -112 -5 -27 -35 -96 -45 callgsubr
            -8 -68 9 -12 rlineto
            hintmask 01101000
            0 14 2 12 15 5 -10 -32 vhcurveto
            -101 -73 vlineto
            -11 -77 8 -6 rlineto
            76 -70 hlineto
            -38 -13 -16 -40 -5 vhcurveto
            -6 -79 rlineto
            0 74 6 47 vhcurveto
            hintmask 10110000
            54 80 -9 0 hvcurveto
            -15 387 rmoveto
            16 4 6 12 68 15 -32 -125 -109 -21 -36 -66 -15 -5 6 26 vhcurveto
            -1 72 rlineto
            56 hlineto
            6 78 -7 8 -52 -2 rlineto
            endchar
          </CharString>
          <CharString index="38">
            341 228 rmoveto
            62 -153 rlineto
            -66 26 32 -25 56 hhcurveto
            155 11 9 73 -11 16 rlineto
            -29 -34 31 57 -34 hvcurveto
            -62 104 rlineto
            79 47 41 64 78 vvcurveto
            126 -92 62 -184 vhcurveto
            return
          </CharString>
          <CharString index="39">
            295 171 rmoveto
            46 -113 rlineto
            -53 21 26 -17 49 hhcurveto
            136 8 8 62 -10 14 rlineto
            -21 -29 26 43 -28 hvcurveto
            -46 71 rlineto
            64 37 33 49 61 vvcurveto
            102 -78 48 -160 vhcurveto
            return
          </CharString>
          <CharString index="40">
            188 12 13 497 1 41 14 16 43 6 rlinecurve
            5 90 rlineto
            -1 -83 -2 -56 -56 -110 4 0 vhcurveto
            -5 -81 5 -11 rlineto
            31 hlineto
            24 7 -9 -34 2 hvcurveto
            4 -183 rlineto
            return
          </CharString>
          <CharString index="41">
            -49 callgsubr
            -338 vlineto
            -60 -15 -20 -50 -8 vhcurveto
            return
          </CharString>
          <CharString index="42">
            -54 callsubr
            -14 18 51 132 2 135 3 99 vhcurveto
            54 5 -20 -124 10 hvcurveto
            124 8 rlineto
            0 -4 137 -1 117 vhcurveto
            return
          </CharString>
          <CharString index="43">
            -5 8 rlineto
            -64 3 -7 7 62 vvcurveto
            68 vlineto
            3 126 rmoveto
            1 51 2 50 4 51 rrcurveto
            19 1 2 3 14 hhcurveto
            78 35 -26 -57 -57 -16 -25 -45 -19 hvcurveto
            return
          </CharString>
          <CharString index="44">
            35 108 -3 37 callsubr
            -7 9 rlineto
            return
          </CharString>
          <CharString index="45">
            -41 0 99 -86 -21 209 104 31 168 -103 103 -75 75 return
          </CharString>
          <CharString index="46">
            119 -1 90 -74 -21 186 121 177 -20 return
          </CharString>
          <CharString index="47">
            -47 callgsubr
            -66 -64 4 0 vhcurveto
            -59 callgsubr
            return
          </CharString>
          <CharString index="48">
            rmoveto
            3 29 6 6 37 5 6 76 rcurveline
            return
          </CharString>
          <CharString index="49">
            -84 -12 117 494 -20 hstem
            421 511 rmoveto
            -30 81 -13 7 rlineto
            0 -363 -84 -304 vvcurveto
            -136 82 -87 128 146 90 82 133 108 -64 68 -100 vhcurveto
            -58 -21 -6 11 rlineto
            71 101 117 41 0 vvcurveto
            -180 -252 rmoveto
            35 17 -27 -55 -51 -16 -21 -38 -37 -20 -4 callsubr
            20 9 25 hhcurveto
            endchar
          </CharString>
          <CharString index="50">
            rmoveto
            71 40 54 58 50 -28 48 -74 -67 -43 -46 -61 -61 36 -42 65 hvcurveto
            return
          </CharString>
          <CharString index="51">
            -60 -15 -20 -50 -8 vhcurveto
            -9 -92 rlineto
            return
          </CharString>
          <CharString index="52">
            -132 rmoveto
            0 -36 -25 -30 -25 -16 16 25 return
          </CharString>
          <CharString index="53">
            9 94 -5 6 rlineto
            0 -26 -3 -25 -38 return
          </CharString>
          <CharString index="54">
            rmoveto
            69 83 87 93 0 vvcurveto
            27 vlineto
            0 -87 93 -69 84 vhcurveto
            -62 -36 -7 -23 27 -47 27 -54 15 -30 rlinecurve
            -15 -30 -27 -57 -27 -45 7 -23 rcurveline
            return
          </CharString>
          <CharString index="55">
            rmoveto
            -69 -83 -87 -93 0 vvcurveto
            -27 vlineto
            0 87 -93 69 -84 vhcurveto
            62 36 7 23 -27 47 -27 54 -15 30 rlinecurve
            15 30 27 57 27 45 -7 23 rcurveline
            return
          </CharString>
          <CharString index="56">
            rmoveto
            -17 19 -12 30 27 vvcurveto
            36 25 42 39 28 vhcurveto
            25 vlineto
            -58 46 rlineto
            -103 -59 -64 -81 -70 vvcurveto
            -61 34 -40 51 28 38 16 28 36 vhcurveto
            return
          </CharString>
          <CharString index="57">
            -119 11 -13 -14 rlineto
            -1 -114 -7 -148 0 vvcurveto
            124 8 rlineto
            return
          </CharString>
          <CharString index="58">
            -235 0 74 -56 -21 507 -20 return
          </CharString>
          <CharString index="59">
            0 37 1 43 48 147 -2 -1 2 vhcurveto
            7 83 -7 10 rlineto
            -46 -9 -1 16 4 2 9 4 13 hvcurveto
            16 53 77 23 75 13 5 -57 rlineto
            1 -15 0 -7 -10 vvcurveto
            -29 -12 -8 -56 -6 vhcurveto
            -41 237 rmoveto
            57 154 rlineto
            22 hlineto
            14 -141 -50 -9 rlineto
            return
          </CharString>
          <CharString index="60">
            487 333 rmoveto
            0 -102 156 -90 162 vhcurveto
            0 -74 -4 -54 return
          </CharString>
          <CharString index="61">
            0 17 1 13 15 5 -8 -24 vhcurveto
            -260 vlineto
            -43 -13 -17 -40 -7 vhcurveto
            -7 -78 rlineto
            return
          </CharString>
          <CharString index="62">
            -103 9 -11 -12 rlineto
            -1 -93 -5 -123 0 vvcurveto
            111 6 rlineto
            return
          </CharString>
          <CharString index="63">
            -20 hstem
            -4 -32 rmoveto
            3 -8 94 -57 76 100 rlineto
            -8 28 33 -4 36 hhcurveto
            176 95 95 178 74 -16 58 -33 41 hvcurveto
            71 96 -1 11 -96 55 -73 -99 rlineto
            8 -29 -34 5 -38 hhcurveto
            -179 -92 -91 -177 -77 18 -60 36 -43 hvcurveto
            return
          </CharString>
          <CharString index="64">
            -6 0 vhcurveto
            -54 callsubr
            return
          </CharString>
          <CharString index="65">
            -45 -8 122 -122 210 97 214 43 callsubr
            return
          </CharString>
          <CharString index="66">
            -9 rmoveto
            -96 callgsubr
            return
          </CharString>
          <CharString index="67">
            88 162 rmoveto
            -56 -12 -15 -53 -11 0 callsubr
            -7 13 56 1 vhcurveto
            7 350 1 35 10 9 49 12 rlinecurve
            7 90 rlineto
            return
          </CharString>
          <CharString index="68">
            98 -12 126 408 137 return
          </CharString>
          <CharString index="69">
            0 108 10 103 return
          </CharString>
          <CharString index="70">
            72 -34 66 -29 0 vvcurveto
            56 92 -9 21 rlineto
            0 -74 32 -71 32 vhcurveto
            -102 49 rlineto
            8 vlineto
            90 39 rlineto
            73 32 93 36 0 vvcurveto
            -34 105 -18 11 rlineto
            0 -74 -37 -77 -33 vhcurveto
            -178 -77 rlineto
            -153 vlineto
            return
          </CharString>
          <CharString index="71">
            hlineto
            -11 -3 4 15 256 8 130 16 15 hvcurveto
            -6 18 rlineto
            0 -110 -14 -85 -11 vhcurveto
            -6 -55 1 -1 1 -2 2 -1 rlinecurve
            16 16 0 -4 8 hvcurveto
            9 -5 2 -10 -21 vvcurveto
            -284 vlineto
            return
          </CharString>
          <CharString index="72">
            -12 rmoveto
            214 134 140 224 199 -107 102 -210 hvcurveto
            return
          </CharString>
          <CharString index="73">
            -29 -9 108 328 77 return
          </CharString>
          <CharString index="74">
            rmoveto
            0 42 58 25 vhcurveto
            return
          </CharString>
          <CharString index="75">
            2 -75 rlineto
            68 hlineto
            38 130 -1 -1 2 hvcurveto
            6 70 -1 9 rlineto
            -39 -6 -2 11 2 1 7 3 8 hvcurveto
            7 30 62 19 60 11 3 -35 rlineto
            -20 vlineto
            -21 -9 -7 -44 -4 vhcurveto
            return
          </CharString>
          <CharString index="76">
            -6 -12 133 -133 230 213 228 -138 138 return
          </CharString>
          <CharString index="77">
            0 -137 -6 -48 -41 -101 1 0 vhcurveto
            -11 -79 10 -12 rlineto
            return
          </CharString>
          <CharString index="78">
            0 -119 -5 -41 -34 -87 1 0 vhcurveto
            -10 -67 9 -10 rlineto
            return
          </CharString>
          <CharString index="79">
            0 -117 -3 -35 vhcurveto
            -140 hlineto
            -7 -63 8 -12 rlineto
            22 -6 callgsubr
            -8 -31 hvcurveto
            -83 vlineto
            -1 -12 -14 -1 -37 hhcurveto
            -61 3 5 88 1 23 7 6 34 6 rlinecurve
            return
          </CharString>
          <CharString index="80">
            -56 -15 -19 -50 -8 vhcurveto
            -8 -93 rlineto
            0 87 8 56 vhcurveto
            return
          </CharString>
          <CharString index="81">
            95 29 -49 -163 -146 -33 -55 -86 -28 -8 10 39 return
          </CharString>
          <CharString index="82">
            -4 0 vhcurveto
            return
          </CharString>
          <CharString index="83">
            rmoveto
            hintmask 10000000
            0 -74 -6 -50 -59 -95 1 0 vhcurveto
            -19 -109 rlineto
            hintmask 01100000
            16 -15 rlineto
            hintmask 10000000
            32 callgsubr
          </CharString>
          <CharString index="84">
            54 80 -9 0 hvcurveto
            1 408 rmoveto
            68 15 -31 -125 -109 -22 -36 -65 -15 -5 7 25 119 3 70 5 59 hvcurveto
            15 1 4 6 11 hhcurveto
            return
          </CharString>
          <CharString index="85">
            -169 -163 3 0 hvcurveto
            -9 -79 12 -14 rlineto
            -1 callsubr
            16 7 -7 -21 3 vhcurveto
            -166 -391 -14 -31 -18 -18 -25 -6 rlinecurve
            3 -87 rlineto
            return
          </CharString>
          <CharString index="86">
            -15 -8 121 77 92 28 203 -117 117 return
          </CharString>
          <CharString index="87">
            -74 -73 -3 callgsubr
            78 0 78 1 vhcurveto
            -1 -76 0 -74 0 vvcurveto
            13 -9 130 18 rlineto
            0 -1 69 72 vvcurveto
            return
          </CharString>
          <CharString index="88">
            vhcurveto
            -7 -72 rlineto
            return
          </CharString>
          <CharString index="89">
            -40 -117 34 -46 hhcurveto
            -22 -4 -107 -115 rlineto
            -16 vlineto
            49 -56 rlineto
            return
          </CharString>
          <CharString index="90">
            -141 -1 -8 -76 38 callgsubr
            21 2 15 26 6 -10 -41 vhcurveto
            return
          </CharString>
          <CharString index="91">
            0 vvcurveto
            10 -12 164 12 11 11 rlineto
            0 -4 return
          </CharString>
          <CharString index="92">
            -20 hstemhm
            hintmask 11000000
            return
          </CharString>
          <CharString index="93">
            rmoveto
            -1 -2 -55 -1 -104 hhcurveto
            -221 hlineto
            -11 -105 11 -19 rlineto
            hintmask 01100000
            126 126 1 126 hhcurveto
            14 106 rlineto
            endchar
          </CharString>
          <CharString index="94">
            -83 -7 callgsubr
            return
          </CharString>
          <CharString index="95">
            0 93 -141 112 -186 vhcurveto
            return
          </CharString>
          <CharString index="96">
            vhcurveto
            -8 -78 rlineto
            return
          </CharString>
          <CharString index="97">
            237 rmoveto
            -32 97 -15 4 rlineto
            0 -113 -48 -111 -42 vhcurveto
            19 -63 17 -12 rlineto
            112 28 117 21 0 vvcurveto
            return
          </CharString>
          <CharString index="98">
            167 131 rmoveto
            -42 -16 -13 -67 -5 vhcurveto
            return
          </CharString>
          <CharString index="99">
            rlineto
            hintmask 10100000
            return
          </CharString>
          <CharString index="100">
            27 -8 83 -66 -21 33 -21 400 109 -80 80 -5 -20 return
          </CharString>
          <CharString index="101">
            0 14 2 12 15 5 -10 -32 vhcurveto
            -249 vlineto
            -43 -12 -15 -41 -6 vhcurveto
            -6 -79 rlineto
            0 74 6 47 vhcurveto
            return
          </CharString>
          <CharString index="102">
            664 510 rmoveto
            2 38 10 8 48 8 7 88 rcurveline
            return
          </CharString>
          <CharString index="103">
            33 64 14 1 13 1 13 hvcurveto
            8 12 return
          </CharString>
          <CharString index="104">
            -33 -64 -14 -1 -14 -2 -13 hvcurveto
            -7 -12 return
          </CharString>
          <CharString index="105">
            46 -11 141 391 138 return
          </CharString>
          <CharString index="106">
            0 15 2 11 return
          </CharString>
          <CharString index="107">
            vhcurveto
            -8 -85 rlineto
            0 103 5 63 42 125 -25 callsubr
            9 84 -8 10 rlineto
            0 -11 -3 -21 -26 return
          </CharString>
          <CharString index="108">
            0 136 1 90 vhcurveto
            227 1 13 136 rlineto
            return
          </CharString>
          <CharString index="109">
            9 -13 rlineto
            0 return
          </CharString>
          <CharString index="110">
            11 -6 18 rcurveline
            0 -110 -14 -85 -11 vhcurveto
            -6 -54 3 -5 rlineto
            18 hlineto
            28 6 -7 -33 hvcurveto
            return
          </CharString>
          <CharString index="111">
            12 rlineto
            hintmask 11100000
            -2 -5 -2 -2 hhcurveto
            return
          </CharString>
          <CharString index="112">
            99 190 102 32 -20 hstem
            298 return
          </CharString>
          <CharString index="113">
            -1 0 vvcurveto
            11 113 -11 15 rlineto
            return
          </CharString>
          <CharString index="114">
            -21 311 -20 hstem
            return
          </CharString>
          <CharString index="115">
            17 28 hhcurveto
            27 17 -15 -23 -31 -21 -26 -37 -15 hvcurveto
            -65 -13 10 -90 13 -15 rlineto
            80 return
          </CharString>
          <CharString index="116">
            -5 -43 23 callsubr
            return
          </CharString>
          <CharString index="117">
            hhcurveto
            23 18 -10 -30 35 hvcurveto
            18 3 rlineto
            14 22 26 80 20 vvcurveto
            12 -44 11 -50 return
          </CharString>
          <CharString index="118">
            63 -49 -21 408 -11 callgsubr
            219 return
          </CharString>
          <CharString index="119">
            103 46 167 -103 103 -75 75 9 -20 hstemhm
            return
          </CharString>
          <CharString index="120">
            -18 -135 2 callsubr
            return
          </CharString>
          <CharString index="121">
            111 9 9 25 55 hhcurveto
            return
          </CharString>
          <CharString index="122">
            rmoveto
            63 36 48 53 45 -25 43 -66 -61 -38 -42 -55 -54 32 -38 59 hvcurveto
            return
          </CharString>
          <CharString index="123">
            53 102 -6 0 vhcurveto
            14 90 -4 6 rlineto
            0 -20 -2 -24 -27 -12 20 45 return
          </CharString>
          <CharString index="124">
            13 136 -7 15 rlineto
            0 -86 -4 -76 -2 vhcurveto
            2 75 4 88 0 vvcurveto
            return
          </CharString>
          <CharString index="125">
            21 0 71 -57 51 callsubr
            return
          </CharString>
          <CharString index="126">
            -7 0 hvcurveto
            15 16 rlineto
            return
          </CharString>
          <CharString index="127">
            -12 0 hvcurveto
            17 18 rlineto
            5 89 22 133 0 vvcurveto
            -116 -9 rlineto
            return
          </CharString>
          <CharString index="128">
            293 75 rmoveto
            -6 -72 6 -7 rlineto
            0 74 3 71 1 vhcurveto
            36 hlineto
            return
          </CharString>
          <CharString index="129">
            54 33 34 56 51 -29 30 -50 -55 -33 -34 -56 -51 28 -30 52 hvcurveto
            return
          </CharString>
          <CharString index="130">
            vhcurveto
            -161 hlineto
            -8 -75 38 callgsubr
            return
          </CharString>
          <CharString index="131">
            -324 -21 345 return
          </CharString>
          <CharString index="132">
            -24 callgsubr
            8 return
          </CharString>
          <CharString index="133">
            -24 callgsubr
            7 70 -7 9 rlineto
            0 return
          </CharString>
          <CharString index="134">
            37 14 -21 420 236 return
          </CharString>
          <CharString index="135">
            -8 0 hvcurveto
            13 13 rlineto
            return
          </CharString>
          <CharString index="136">
            -242 66 56 -20 return
          </CharString>
          <CharString index="137">
            259 391 -59 callsubr
            return
          </CharString>
          <CharString index="138">
            vlineto
            -152 1 -11 -114 9 -10 rlineto
            154 hlineto
            -1 return
          </CharString>
          <CharString index="139">
            rmoveto
            41 109 rlineto
            19 hlineto
            10 -99 -39 -7 rlineto
            endchar
          </CharString>
          <CharString index="140">
            -42 -56 callgsubr
            return
          </CharString>
          <CharString index="141">
            -8 rlineto
            0 -7 -154 -16 -145 vhcurveto
            9 -11 rlineto
            return
          </CharString>
          <CharString index="142">
            1 0 hvcurveto
            -8 -58 11 -10 rlineto
            return
          </CharString>
          <CharString index="143">
            199 hstem
            115 return
          </CharString>
          <CharString index="144">
            0 hvcurveto
            7 70 return
          </CharString>
          <CharString index="145">
            28 29 45 43 -25 25 -43 -46 -28 -28 -46 -44 return
          </CharString>
          <CharString index="146">
            65 44 9 20 19 14 13 -6 0 vhcurveto
            endchar
          </CharString>
          <CharString index="147">
            63 -21 380 -20 hstem
            return
          </CharString>
          <CharString index="148">
            0 20 2 15 20 6 return
          </CharString>
          <CharString index="149">
            -20 hstemhm
            hintmask 11100000
            return
          </CharString>
          <CharString index="150">
            -118 118 return
          </CharString>
          <CharString index="151">
            250 0 98 -82 -21 25 -21 402 103 return
          </CharString>
          <CharString index="152">
            133 -99 99 -99 133 return
          </CharString>
          <CharString index="153">
            88 15 78 0 vvcurveto
            -11 13 return
          </CharString>
          <CharString index="154">
            -20 hstemhm
            hintmask 10010000
            return
          </CharString>
          <CharString index="155">
            0 90 3 53 vhcurveto
            return
          </CharString>
          <CharString index="156">
            69 232 5 18 2 2 22 3 rlinecurve
            return
          </CharString>
          <CharString index="157">
            rlineto
            hintmask 11100000
            0 return
          </CharString>
          <CharString index="158">
            -21 510 -20 return
          </CharString>
        <CharString name=".notdef">
          -413 endchar
        </CharString>
        <CharString name="A">
          -61 callsubr
          200 -20 -98 callgsubr
          endchar
        </CharString>
        <CharString name="AE">
          26 callgsubr
          12 -20 hstemhm
          hintmask 10011000
          21 callgsubr
          hintmask 01011000
          4 callgsubr
          hintmask 10011000
          -90 -12 -16 -17 -77 hhcurveto
          -30 -18 22 45 -7 hvcurveto
          -11 73 65 12 96 12 12 116 -17 17 -101 -26 -73 -13 -19 131 rlineto
          19 7 5 27 81 17 -10 -45 -13 -2 -24 0 vhcurveto
          138 9 rlineto
          5 94 18 105 0 vvcurveto
          hintmask 10010100
          -13 16 rlineto
          hintmask 00111000
          -38 -5 -160 -6 -147 -1 rrcurveto
          -22 callsubr
          -48 callsubr
          endchar
        </CharString>
        <CharString name="AEacute">
          26 callgsubr
          288 -20 hstemhm
          hintmask 10011100
          21 callgsubr
          hintmask 01011100
          4 callgsubr
          hintmask 10011100
          -90 -12 -16 -17 -77 hhcurveto
          -30 -18 22 45 -7 hvcurveto
          -11 73 65 12 96 12 12 116 -17 17 -101 -26 -73 -13 -19 131 rlineto
          19 7 5 27 81 17 -10 -45 -13 -2 -24 0 vhcurveto
          138 9 rlineto
          5 94 18 105 0 vvcurveto
          -13 16 -38 -5 -160 -6 -147 -1 rlinecurve
          -22 callsubr
          hintmask 00111100
          -48 callsubr
          337 506 -5 callgsubr
        </CharString>
        <CharString name="Aacute">
          -61 callsubr
          417 -20 -98 callgsubr
          260 461 -106 callgsubr
          endchar
        </CharString>
        <CharString name="Abreve">
          -61 callsubr
          217 37 callgsubr
          hintmask 10111100
          615 153 rmoveto
          -29 108 -96 385 0 vvcurveto
          -15 12 -263 -16 -159 -502 -10 -31 -17 -18 -24 -6 rlinecurve
          -7 -87 rlineto
          0 71 1 62 61 93 25 callsubr
          83 -8 10 rlineto
          -26 hlineto
          -27 -4 3 17 4 1 7 2 11 hvcurveto
          10 44 rlineto
          2 26 31 3 23 hhcurveto
          19 31 -1 -1 27 hvcurveto
          6 -39 rlineto
          1 -8 1 -6 -4 vvcurveto
          -26 -3 -1 -61 -7 vhcurveto
          -6 -84 rlineto
          hintmask 01111100
          8 -9 rlineto
          hintmask 10111100
          -94 callsubr
          71 509 -99 callgsubr
          endchar
        </CharString>
        <CharString name="Acircumflex">
          -61 callsubr
          hstemhm
          hintmask 10110000
          615 153 rmoveto
          -29 108 -96 385 0 vvcurveto
          -15 12 -263 -16 -159 -502 -10 -31 -17 -18 -24 -6 rlinecurve
          -7 -87 rlineto
          0 71 1 62 61 93 25 callsubr
          83 -8 10 rlineto
          -26 hlineto
          -27 -4 3 17 4 1 7 2 11 hvcurveto
          10 44 rlineto
          2 26 31 3 23 hhcurveto
          19 31 -1 -1 27 hvcurveto
          6 -39 rlineto
          1 -8 1 -6 -4 vvcurveto
          -26 -3 -1 -61 -7 vhcurveto
          -6 -84 rlineto
          hintmask 01110000
          8 -9 rlineto
          hintmask 10110000
          -94 callsubr
          -81 407 -102 callgsubr
          endchar
        </CharString>
        <CharString name="Adieresis">
          -61 callsubr
          227 167 -98 callgsubr
          165 384 -104 callsubr
          endchar
        </CharString>
        <CharString name="Agrave">
          -61 callsubr
          417 -20 -98 callgsubr
          -75 445 -95 callgsubr
          endchar
        </CharString>
        <CharString name="Amacron">
          -61 callsubr
          237 122 6 -20 -97 callsubr
          hintmask 10110100
          -94 callsubr
          219 522 rmoveto
          hintmask 10111000
          -84 callgsubr
          endchar
        </CharString>
        <CharString name="Aogonek">
          119 -242 85 156 90 91 121 177 -20 200 -20 hstem
          654 -55 callsubr
          24 13 26 48 65 vhcurveto
          35 -1 30 -1 0 vvcurveto
          8 79 -7 10 -31 3 -16 19 -12 45 rlinecurve
          -29 108 -96 385 0 vvcurveto
          -15 12 -263 -16 -159 -502 -10 -31 -17 -18 -24 -6 rlinecurve
          -7 -87 rlineto
          0 71 1 62 61 93 25 callsubr
          83 -8 10 rlineto
          -26 hlineto
          -27 -4 3 17 4 1 7 2 11 hvcurveto
          10 44 rlineto
          2 26 31 3 23 hhcurveto
          19 31 -1 -1 27 hvcurveto
          6 -39 rlineto
          1 -8 1 -6 -4 vvcurveto
          -26 -3 -1 -61 -7 vhcurveto
          -6 -84 8 -9 rlineto
          0 96 5 95 vhcurveto
          1 hlineto
          -65 -70 -22 -39 callgsubr
          -362 649 rmoveto
          22 hlineto
          34 -175 rlineto
          -1 -18 -19 -1 -15 hhcurveto
          -51 hlineto
          endchar
        </CharString>
        <CharString name="Aring">
          -61 callsubr
          224 210 -72 72 -97 callsubr
          hintmask 10110100
          -94 callsubr
          74 451 -50 callgsubr
          hintmask 10111000
          -7 -70 -57 callsubr
          endchar
        </CharString>
        <CharString name="Aringacute">
          -61 callsubr
          220 189 -126 -20 81 65 149 -20 hstemhm
          hintmask 10111001
          615 153 rmoveto
          -29 108 -96 385 0 vvcurveto
          -15 12 -263 -16 -159 -502 -10 -31 -17 -18 -24 -6 rlinecurve
          -7 -87 rlineto
          0 71 1 62 61 93 25 callsubr
          83 -8 10 rlineto
          -26 hlineto
          -27 -4 3 17 4 1 7 2 11 hvcurveto
          10 44 rlineto
          2 26 31 3 23 hhcurveto
          19 31 -1 -1 27 hvcurveto
          6 -39 rlineto
          1 -8 1 -6 -4 vvcurveto
          -26 -3 -1 -61 -7 vhcurveto
          -6 -84 rlineto
          hintmask 01111001
          8 -9 rlineto
          hintmask 10110111
          -94 callsubr
          74 440 17 callgsubr
          hintmask 10111001
          -6 -63 15 callsubr
          138 -10 callsubr
          endchar
        </CharString>
        <CharString name="Atilde">
          -61 callsubr
          241 -54 callgsubr
          hintmask 10111001
          615 153 rmoveto
          -29 108 -96 385 0 vvcurveto
          -15 12 -263 -16 -159 -502 -10 -31 -17 -18 -24 -6 rlinecurve
          -7 -87 rlineto
          0 71 1 62 61 93 25 callsubr
          83 -8 10 rlineto
          -26 hlineto
          -27 -4 3 17 4 1 7 2 11 hvcurveto
          10 44 rlineto
          2 26 31 3 23 hhcurveto
          19 31 -1 -1 27 hvcurveto
          6 -39 rlineto
          1 -8 1 -6 -4 vvcurveto
          -26 -3 -1 -61 -7 vhcurveto
          -6 -84 rlineto
          hintmask 01111001
          8 -9 rlineto
          hintmask 10110101
          -94 callsubr
          -50 374 -33 callsubr
          hintmask 10111001
          -86 callgsubr
          hintmask 10110011
          -74 callgsubr
          endchar
        </CharString>
        <CharString name="B">
          106 -11 125 -93 -21 528 126 -7 -11 callgsubr
          194 hmoveto
          hintmask 10100000
          26 108 -7 -4 30 hvcurveto
          191 97 70 139 89 -65 35 -60 21 hvcurveto
          51 34 46 44 75 vvcurveto
          103 -79 55 -149 vhcurveto
          hintmask 01010000
          0 -159 -7 -33 -32 -137 -45 callgsubr
          -12 -80 12 -12 rlineto
          0 22 2 12 18 9 -15 -31 vhcurveto
          -1 -357 rlineto
          -48 -15 -16 -52 -9 vhcurveto
          -9 -90 rlineto
          0 117 7 64 vhcurveto
          173 260 rmoveto
          41 -13 23 -26 -34 vvcurveto
          hintmask 10100000
          -48 -26 -25 -49 -51 -22 14 32 vhcurveto
          5 100 rlineto
          2 129 rmoveto
          0 3 81 4 44 vhcurveto
          11 1 4 3 13 hhcurveto
          66 31 -22 -46 -55 -42 -27 0 -23 -57 11 0 hvcurveto
          endchar
        </CharString>
        <CharString name="C">
          -2 callsubr
          -94 callgsubr
          endchar
        </CharString>
        <CharString name="Cacute">
          -2 callsubr
          216 -20 -94 callgsubr
          214 773 -106 callgsubr
          endchar
        </CharString>
        <CharString name="Ccaron">
          -2 callsubr
          236 -20 -94 callgsubr
          179 899 -105 callsubr
        </CharString>
        <CharString name="Ccedilla">
          46 29 callsubr
          130 140 391 138 hstem
          261 -85 callgsubr
          6 28 rlineto
          113 5 91 32 0 vvcurveto
          13 16 rlineto
          96 12 117 0 vhcurveto
          -153 -10 rlineto
          -85 -7 -21 -31 -51 hhcurveto
          -67 -30 68 149 132 22 42 70 50 19 -20 -54 -31 -2 -26 0 hvcurveto
          154 9 rlineto
          7 122 21 92 0 vvcurveto
          -8 20 rlineto
          0 -124 26 -86 -226 -125 -124 -224 -192 97 -117 168 -12 vhcurveto
          endchar
        </CharString>
        <CharString name="Ccircumflex">
          -2 callsubr
          275 -20 -94 callgsubr
          -104 727 -95 callsubr
        </CharString>
        <CharString name="Cdotaccent">
          -2 callsubr
          24 199 -94 callgsubr
          24 694 rmoveto
          11 callgsubr
        </CharString>
        <CharString name="D">
          125 -12 125 -113 113 413 127 -96 96 -6 47 callsubr
          319 -35 callsubr
          hintmask 10001000
          0 -120 -6 -46 -9 callgsubr
          hintmask 01010000
          0 17 2 15 19 6 -12 -42 vhcurveto
          -335 vlineto
          -27 callsubr
          hintmask 10100000
          -22 callgsubr
          endchar
        </CharString>
        <CharString name="Dcaron">
          125 -12 125 -113 113 413 127 -96 96 -6 -20 268 -20 hstemhm
          hintmask 10010100
          319 -35 callsubr
          hintmask 10001100
          0 -120 -6 -46 -9 callgsubr
          hintmask 01010100
          0 17 2 15 19 6 -12 -42 vhcurveto
          -335 vlineto
          -27 callsubr
          hintmask 10100100
          -22 callgsubr
          187 362 -105 callsubr
        </CharString>
        <CharString name="Dcroat">
          -71 callgsubr
        </CharString>
        <CharString name="Delta">
          118 0 136 523 -20 hstem
          24 hmoveto
          630 hlineto
          9 7 rlineto
          -96 293 -80 359 0 vvcurveto
          -10 hlineto
          -265 -17 -200 -629 rlineto
          327 484 rmoveto
          67 -361 rlineto
          -179 hlineto
          89 361 rlineto
          endchar
        </CharString>
        <CharString name="E">
          -71 callsubr
          12 36 callgsubr
          284 175 rmoveto
          22 0 29 1 34 vhcurveto
          2 18 28 4 29 hhcurveto
          46 74 -3 0 hvcurveto
          14 115 -12 14 rlineto
          0 -80 -6 -30 vhcurveto
          -28 -35 1 -19 hhcurveto
          6 113 rlineto
          22 6 5 28 81 17 -10 -45 -13 -2 -24 0 vhcurveto
          138 9 rlineto
          5 94 18 105 0 vvcurveto
          hintmask 10100010
          -13 16 rlineto
          hintmask 01100100
          -7 -56 -128 -5 -125 hhcurveto
          -91 -142 3 0 hvcurveto
          -9 -79 12 -14 rlineto
          -48 callgsubr
          endchar
        </CharString>
        <CharString name="Eacute">
          -71 callsubr
          228 -20 -100 callsubr
          hintmask 10110010
          -38 callsubr
          155 166 -7 0 vhcurveto
          15 16 rlineto
          10 109 18 97 0 vvcurveto
          -12 15 -128 -9 rlineto
          -90 -12 -18 -16 -86 hhcurveto
          -42 -6 8 52 hvcurveto
          231 587 -106 callgsubr
          endchar
        </CharString>
        <CharString name="Ebreve">
          -71 callsubr
          53 37 callgsubr
          hintmask 10101011
          -106 callsubr
          hintmask 01100111
          -80 callsubr
          hintmask 10110011
          -38 callsubr
          155 166 -7 0 vhcurveto
          15 16 rlineto
          10 109 18 97 0 vvcurveto
          -12 15 -128 -9 rlineto
          -90 -12 -18 -16 -86 hhcurveto
          -42 -6 8 52 hvcurveto
          43 660 -99 callgsubr
          endchar
        </CharString>
        <CharString name="Ecaron">
          -71 callsubr
          248 -20 -100 callsubr
          hintmask 10110010
          -38 callsubr
          155 166 -7 0 vhcurveto
          15 16 rlineto
          10 109 18 97 0 vvcurveto
          -12 15 -128 -9 rlineto
          -90 -12 -18 -16 -86 hhcurveto
          -42 -6 8 52 hvcurveto
          196 713 -105 callsubr
        </CharString>
        <CharString name="Ecircumflex">
          -71 callsubr
          hstemhm
          hintmask 10101000
          -106 callsubr
          hintmask 01100100
          -48 callgsubr
          -110 533 -102 callgsubr
          endchar
        </CharString>
        <CharString name="Edieresis">
          -71 callsubr
          38 167 -100 callsubr
          hintmask 10110010
          -38 callsubr
          155 166 -7 0 vhcurveto
          15 16 rlineto
          10 109 18 97 0 vvcurveto
          -12 15 -128 -9 rlineto
          -90 -12 -18 -16 -86 hhcurveto
          -42 -6 8 52 hvcurveto
          136 510 -104 callsubr
          endchar
        </CharString>
        <CharString name="Edotaccent">
          -71 callsubr
          36 199 -100 callsubr
          hintmask 10110010
          -38 callsubr
          155 166 -7 0 vhcurveto
          15 16 rlineto
          10 109 18 97 0 vvcurveto
          -12 15 -128 -9 rlineto
          -90 -12 -18 -16 -86 hhcurveto
          -42 -6 8 52 hvcurveto
          41 508 rmoveto
          11 callgsubr
        </CharString>
        <CharString name="Egrave">
          -71 callsubr
          228 -20 -100 callsubr
          hintmask 10110010
          -38 callsubr
          155 166 -7 0 vhcurveto
          15 16 rlineto
          10 109 18 97 0 vvcurveto
          -12 15 -128 -9 rlineto
          -90 -12 -18 -16 -86 hhcurveto
          -42 -6 8 52 hvcurveto
          -134 571 -95 callgsubr
          endchar
        </CharString>
        <CharString name="Emacron">
          -71 callsubr
          48 122 6 -20 -100 callsubr
          hintmask 10110001
          -38 callsubr
          155 166 -7 0 vhcurveto
          15 16 rlineto
          10 109 18 97 0 vvcurveto
          -12 15 -128 -9 rlineto
          -90 -12 -18 -16 -86 hhcurveto
          -42 -6 8 52 hvcurveto
          190 648 rmoveto
          hintmask 10110010
          -84 callgsubr
          endchar
        </CharString>
        <CharString name="Eng">
          179 -151 -21 172 83 564 -20 25 42 callsubr
          168 647 rmoveto
          hintmask 11010000
          -54 -91 5 0 hvcurveto
          -6 -77 11 -14 rlineto
          65 -7 11 -13 -42 vvcurveto
          -12 -356 -1 -42 -17 -18 -39 -5 rlinecurve
          -10 -86 rlineto
          0 80 8 40 79 101 -25 callsubr
          10 82 -8 8 rlineto
          0 -24 -3 -11 -29 -9 12 38 -1 vhcurveto
          -2 198 rlineto
          14 hlineto
          0 95 -143 114 -188 vhcurveto
          -12 -42 -22 -30 -49 -39 -2 -15 rcurveline
          38 -46 162 45 68 78 4 134 rlinecurve
          11 416 1 41 14 16 44 6 rlinecurve
          5 87 50 callsubr
          -87 -3 -46 -1 vhcurveto
          -30 -134 4 0 hvcurveto
          -5 -79 5 -10 rlineto
          0 24 1 7 24 9 -10 -33 vhcurveto
          4 -202 rlineto
          -14 hlineto
          0 -110 166 -94 167 vhcurveto
          0 -70 -4 -51 vhcurveto
          endchar
        </CharString>
        <CharString name="Eogonek">
          46 -242 85 157 115 151 120 141 120 -88 88 12 -20 hstemhm
          hintmask 11110000
          563 -55 callsubr
          24 12 25 46 62 vhcurveto
          19 -1 12 -1 0 vvcurveto
          15 16 rlineto
          10 109 18 97 0 vvcurveto
          -12 15 -128 -9 rlineto
          -90 -12 -18 -16 -86 hhcurveto
          -42 -6 8 52 22 0 29 1 34 hvcurveto
          2 18 28 4 29 hhcurveto
          46 74 -3 0 hvcurveto
          14 115 -12 14 rlineto
          0 -80 -6 -30 vhcurveto
          -28 -35 1 -19 hhcurveto
          6 113 rlineto
          22 6 5 28 81 17 -10 -45 -13 -2 -24 0 vhcurveto
          138 9 rlineto
          5 94 18 105 0 vvcurveto
          hintmask 11100100
          -13 16 rlineto
          hintmask 11101000
          -7 -56 -128 -5 -125 hhcurveto
          -91 -142 3 0 hvcurveto
          -9 -79 12 -14 rlineto
          -80 callsubr
          -38 callsubr
          76 79 -1 -2 61 vhcurveto
          -64 -68 -21 -39 callgsubr
          endchar
        </CharString>
        <CharString name="Eth">
          -71 callgsubr
        </CharString>
        <CharString name="Euro">
          -1 -8 106 -106 202 -34 75 38 75 -40 204 -105 105 hstem
          371 237 rmoveto
          -119 -4 rlineto
          -3 hlineto
          -1 11 0 12 13 vvcurveto
          4 vlineto
          125 1 6 68 -8 8 -116 -4 rlineto
          44 11 24 17 43 hhcurveto
          44 18 -16 -42 -24 -1 -20 0 hvcurveto
          120 7 rlineto
          6 94 18 70 0 vvcurveto
          -7 16 rlineto
          0 -100 20 -72 -144 -96 -58 -108 -35 vhcurveto
          -77 hlineto
          -9 -67 8 -6 rlineto
          64 hlineto
          -1 -11 0 -10 -11 vvcurveto
          -8 -62 vlineto
          -9 -67 8 -6 rlineto
          72 hlineto
          -107 26 84 -61 125 hhcurveto
          107 88 29 0 hvcurveto
          10 12 rlineto
          1 74 10 91 0 vvcurveto
          -120 -8 rlineto
          -67 -7 -20 -25 -44 hhcurveto
          -37 -26 20 42 -14 hvcurveto
          112 1 6 68 rlineto
          endchar
        </CharString>
        <CharString name="F">
          -3 0 115 -104 -21 259 120 71 207 -120 120 -88 88 12 36 callgsubr
          284 175 rmoveto
          1 68 rlineto
          2 17 29 4 29 hhcurveto
          44 71 -3 0 hvcurveto
          14 115 -12 14 rlineto
          0 -76 -6 -29 vhcurveto
          -83 1 7 130 rlineto
          22 6 5 28 59 16 -12 -43 -12 -2 -24 0 vhcurveto
          138 8 rlineto
          4 92 14 107 0 vvcurveto
          hintmask 10100010
          -13 16 rlineto
          hintmask 01100100
          -7 -51 -116 -5 -114 hhcurveto
          -91 -142 3 0 hvcurveto
          -9 -79 12 -14 rlineto
          -80 callsubr
          hintmask 10110000
          -38 callsubr
          47 116 -24 callgsubr
          13 108 -16 18 rlineto
          0 -28 -8 -30 -34 -8 12 48 vhcurveto
          endchar
        </CharString>
        <CharString name="G">
          -15 callgsubr
          -93 callsubr
          endchar
        </CharString>
        <CharString name="Gbreve">
          -15 callgsubr
          46 51 callgsubr
          -93 callsubr
          -277 539 -99 callgsubr
          endchar
        </CharString>
        <CharString name="Gcircumflex">
          -15 callgsubr
          275 -20 -93 callsubr
          -406 415 -95 callsubr
        </CharString>
        <CharString name="Gcommaaccent">
          82 -324 -21 334 141 0 116 108 52 115 138 hstemhm
          hintmask 10111000
          609 359 rmoveto
          -1 -62 -4 -57 vhcurveto
          -153 hlineto
          -12 -95 38 callgsubr
          17 1 16 25 7 -9 -32 vhcurveto
          -63 vlineto
          0 -16 -12 -36 -73 -31 65 152 132 26 42 82 46 13 -15 -49 -32 -2 -23 0 vhcurveto
          154 9 rlineto
          6 117 22 85 0 vvcurveto
          -11 20 rlineto
          0 -109 26 -94 -235 -126 -121 -227 vhcurveto
          hintmask 11011000
          -203 113 -119 192 162 80 33 0 vhcurveto
          12 16 rlineto
          -5 21 -2 24 41 vvcurveto
          131 6 20 46 26 vhcurveto
          -385 -393 -105 callgsubr
          endchar
        </CharString>
        <CharString name="Gdotaccent">
          -15 callgsubr
          24 199 -93 callsubr
          -278 382 rmoveto
          11 callgsubr
        </CharString>
        <CharString name="H">
          24 callgsubr
          172 88 5 36 callgsubr
          -5 callsubr
          hintmask 10110000
          -32 callgsubr
          hintmask 10101000
          7 90 rlineto
          hintmask 01110000
          0 -140 -5 -59 vhcurveto
          -129 16 callgsubr
          -12 callgsubr
          hintmask 10110000
          0 104 5 62 41 121 -25 callsubr
          9 84 -8 10 rlineto
          0 -9 -3 -18 -26 -6 13 56 vhcurveto
          100 vlineto
          0 91 9 22 25 34 -1 0 vhcurveto
          -102 vlineto
          -54 -18 -21 -48 -1 vhcurveto
          -8 -87 rlineto
          0 120 1 46 83 88 -2 0 vhcurveto
          9 83 -8 11 rlineto
          0 -13 -3 -15 -29 -10 17 50 128 4 145 6 81 vhcurveto
          endchar
        </CharString>
        <CharString name="Hbar">
          24 callgsubr
          50 66 56 88 5 -20 hstemhm
          hintmask 10110100
          -5 callsubr
          hintmask 10111000
          0 -133 9 callsubr
          16 1 11 28 7 -11 -40 vhcurveto
          -5 -55 vlineto
          -109 hlineto
          1 7 2 36 8 8 43 8 rlinecurve
          hintmask 10110100
          7 90 rlineto
          hintmask 01111000
          0 -140 -5 -59 vhcurveto
          -129 hlineto
          -8 -75 38 callgsubr
          15 1 11 28 7 -10 -41 vhcurveto
          -5 vlineto
          -50 -35 35 callsubr
          82 -274 hlineto
          -12 callgsubr
          hintmask 10111000
          0 104 5 62 41 121 -25 callsubr
          9 84 -8 10 rlineto
          0 -9 -3 -18 -26 -6 13 56 vhcurveto
          100 vlineto
          0 91 9 22 25 34 -1 0 vhcurveto
          -102 vlineto
          -54 -18 -21 -48 -1 vhcurveto
          -8 -87 rlineto
          0 120 1 46 83 88 -2 0 vhcurveto
          9 83 -8 11 rlineto
          0 -13 -3 -15 -29 -10 17 50 95 2 105 4 81 vhcurveto
          83 1 5 55 -15 15 rlineto
          0 -28 -1 -42 -1 vhcurveto
          1 1 1 2 vvcurveto
          -288 -73 rmoveto
          81 -48 hlineto
          -2 -19 -20 -1 -45 hhcurveto
          -85 3 2 48 rlineto
          endchar
        </CharString>
        <CharString name="Hcircumflex">
          24 callgsubr
          172 88 313 -20 hstemhm
          hintmask 01111000
          -5 callsubr
          -32 callgsubr
          7 90 rlineto
          0 -140 -5 -59 vhcurveto
          -129 16 callgsubr
          -12 callgsubr
          hintmask 10111000
          0 104 5 62 41 121 -25 callsubr
          9 84 -8 10 rlineto
          0 -9 -3 -18 -26 -6 13 56 vhcurveto
          100 vlineto
          0 91 9 22 25 34 -1 0 vhcurveto
          -102 vlineto
          -54 -18 -21 -48 -1 vhcurveto
          -8 -87 rlineto
          0 120 1 46 83 88 -2 0 vhcurveto
          9 83 -8 11 rlineto
          0 -13 -3 -15 -29 -10 17 50 128 4 145 6 81 vhcurveto
          -429 232 -95 callsubr
        </CharString>
        <CharString name="I">
          -44 callgsubr
          5 47 callsubr
          295 510 rmoveto
          3 37 8 8 46 7 7 90 rcurveline
          hintmask 01100000
          -88 callsubr
          -55 -11 -15 -54 -12 vhcurveto
          -8 -85 rlineto
          hintmask 10100000
          -89 callsubr
          endchar
        </CharString>
        <CharString name="IJ">
          152 -143 -21 164 87 472 88 8 42 callsubr
          295 510 rmoveto
          3 37 8 8 46 7 7 90 rcurveline
          -88 callsubr
          -55 -11 -15 -54 -12 vhcurveto
          -8 -85 rlineto
          -89 callsubr
          155 -378 -52 callgsubr
          rrcurveto
          hintmask 11010000
          8 93 rlineto
          0 -93 -6 -97 -1 vhcurveto
          hintmask 11100000
          -17 callsubr
          endchar
        </CharString>
        <CharString name="Iacute">
          -44 callgsubr
          228 -20 -73 callgsubr
          hintmask 10110000
          -89 callsubr
          81 252 -106 callgsubr
          endchar
        </CharString>
        <CharString name="Ibreve">
          -44 callgsubr
          53 37 callgsubr
          hintmask 01111000
          295 510 rmoveto
          3 37 8 8 46 7 7 90 rcurveline
          -88 callsubr
          -55 -11 -15 -54 -12 vhcurveto
          -8 -85 rlineto
          hintmask 10111000
          -89 callsubr
          -107 325 -99 callgsubr
          endchar
        </CharString>
        <CharString name="Icircumflex">
          -44 callgsubr
          hstemhm
          hintmask 01100000
          295 510 rmoveto
          3 37 8 8 46 7 7 90 rcurveline
          -88 callsubr
          -55 -11 -15 -54 -12 vhcurveto
          -8 -85 rlineto
          hintmask 10100000
          -89 callsubr
          -260 198 -102 callgsubr
          endchar
        </CharString>
        <CharString name="Idieresis">
          -44 callgsubr
          38 167 -73 callgsubr
          hintmask 10110000
          -89 callsubr
          -14 175 -104 callsubr
          endchar
        </CharString>
        <CharString name="Idotaccent">
          -44 callgsubr
          36 199 -73 callgsubr
          hintmask 10110000
          -89 callsubr
          -109 173 rmoveto
          11 callgsubr
        </CharString>
        <CharString name="Igrave">
          -44 callgsubr
          228 -20 -73 callgsubr
          hintmask 10110000
          -89 callsubr
          -284 236 -95 callgsubr
          endchar
        </CharString>
        <CharString name="Imacron">
          -44 callgsubr
          48 122 6 -20 -73 callgsubr
          hintmask 10101000
          -89 callsubr
          40 313 rmoveto
          hintmask 10110000
          -84 callgsubr
          endchar
        </CharString>
        <CharString name="Iogonek">
          -187 -242 85 157 87 472 88 5 2 callgsubr
          338 -55 callsubr
          24 13 26 48 64 vhcurveto
          29 -1 27 -1 0 vvcurveto
          9 84 -8 10 rlineto
          0 -11 -3 -21 -26 -6 13 56 130 4 130 6 94 vhcurveto
          3 37 8 8 46 7 7 90 rcurveline
          hintmask 11100000
          -88 callsubr
          -55 -11 -15 -54 -12 vhcurveto
          -8 -85 rlineto
          0 103 5 63 vhcurveto
          37 hlineto
          -66 -71 -22 -39 callgsubr
          endchar
        </CharString>
        <CharString name="Itilde">
          -44 callgsubr
          77 -54 callgsubr
          hintmask 01110010
          295 510 rmoveto
          3 37 8 8 46 7 7 90 rcurveline
          -88 callsubr
          -55 -11 -15 -54 -12 vhcurveto
          -8 -85 rlineto
          hintmask 10101010
          -89 callsubr
          -231 190 -33 callsubr
          hintmask 10110010
          -86 callgsubr
          hintmask 10100110
          -74 callgsubr
          endchar
        </CharString>
        <CharString name="J">
          -218 -143 -21 723 88 8 -30 callgsubr
          80 132 -52 callgsubr
          8 93 rcurveline
          0 -93 -6 -97 -1 vhcurveto
          hintmask 11000000
          -17 callsubr
          endchar
        </CharString>
        <CharString name="Jcircumflex">
          -218 -143 -21 723 88 287 -20 hstem
          80 132 -52 callgsubr
          8 93 rcurveline
          0 -93 -6 -97 -1 vhcurveto
          -17 callsubr
          -41 208 -95 callsubr
        </CharString>
        <CharString name="K">
          136 0 87 -82 -21 663 -20 25 47 callsubr
          -40 callsubr
          hintmask 01100000
          -53 callgsubr
          hintmask 10010000
          -9 15 43 callgsubr
          -108 -5 -36 -46 -97 3 0 vhcurveto
          -9 -82 6 -10 rlineto
          31 -2 10 -8 -22 vvcurveto
          -15 -8 -18 -13 -13 vhcurveto
          -112 -133 rlineto
          endchar
        </CharString>
        <CharString name="Kcommaaccent">
          136 24 callsubr
          87 560 -20 25 2 callgsubr
          -40 callsubr
          hintmask 11100000
          -53 callgsubr
          hintmask 11010000
          -9 15 50 callsubr
          -108 -5 -36 -46 -97 3 0 vhcurveto
          -9 -82 6 -10 rlineto
          31 -2 10 -8 -22 vvcurveto
          -15 -8 -18 -13 -13 vhcurveto
          -112 -133 rlineto
          -27 -439 -105 callgsubr
          endchar
        </CharString>
        <CharString name="L">
          0 12 callgsubr
          hintmask 10010000
          224 hmoveto
          -80 callgsubr
          11 98 rcurveline
          hintmask 01100000
          -66 callsubr
          -9 -92 rlineto
          hintmask 10100000
          -38 callsubr
          vhcurveto
          endchar
        </CharString>
        <CharString name="Lacute">
          0 0 115 -104 -21 569 88 228 47 callgsubr
          224 hmoveto
          -80 callgsubr
          11 98 rcurveline
          -66 callsubr
          hintmask 01110000
          -9 -92 rlineto
          hintmask 10110000
          -38 callsubr
          vhcurveto
          155 762 -106 callgsubr
          endchar
        </CharString>
        <CharString name="Lcaron">
          13 12 callgsubr
          hintmask 10100000
          565 647 rmoveto
          -134 -14 rlineto
          0 11 -118 -2 -120 vhcurveto
          19 -6 73 25 rlineto
          26 112 16 109 0 vvcurveto
          -350 -635 rmoveto
          -80 callgsubr
          rrcurveto
          hintmask 10010000
          11 98 rlineto
          hintmask 01100000
          -66 callsubr
          -9 -92 rlineto
          hintmask 10100000
          -38 callsubr
          vhcurveto
          endchar
        </CharString>
        <CharString name="Lcommaaccent">
          0 24 callsubr
          115 444 88 5 2 callgsubr
          224 hmoveto
          -80 callgsubr
          11 98 rcurveline
          hintmask 11100000
          -66 callsubr
          -9 -92 rlineto
          -38 callsubr
          vhcurveto
          -37 -92 -105 callgsubr
          endchar
        </CharString>
        <CharString name="Ldot">
          20 0 115 -104 -21 388 199 -18 88 5 36 callgsubr
          224 hmoveto
          -80 callgsubr
          11 98 rcurveline
          hintmask 01010000
          -66 callsubr
          -9 -92 rlineto
          hintmask 10101000
          -38 callsubr
          vhcurveto
          247 378 rmoveto
          11 callgsubr
        </CharString>
        <CharString name="Lslash">
          25 12 callgsubr
          hintmask 10010000
          249 hmoveto
          143 151 19 callsubr
          9 139 15 128 0 vvcurveto
          -12 15 -128 -13 rlineto
          -134 -7 -18 -29 -71 hhcurveto
          -27 -10 12 31 59 0 52 1 46 hvcurveto
          127 63 -31 93 -9 4 -82 -41 1 23 1 23 2 22 rlinecurve
          2 35 17 10 69 7 11 98 rcurveline
          hintmask 01100000
          -49 callgsubr
          -154 vlineto
          -97 -48 31 -94 10 -2 56 28 rlineto
          -68 vlineto
          -56 callsubr
          hintmask 10100000
          -38 callsubr
          vhcurveto
          endchar
        </CharString>
        <CharString name="M">
          277 0 89 -80 -21 573 87 -1 -20 26 -30 callgsubr
          462 -2 rmoveto
          53 197 56 168 0 vvcurveto
          13 hlineto
          0 4 -186 -45 vvcurveto
          -32 -14 -13 -37 -4 vhcurveto
          -12 -91 rlineto
          4 13 160 4 19 hhcurveto
          47 -1 63 -2 0 vvcurveto
          9 86 -7 8 rlineto
          0 -14 -2 -16 -30 -11 22 65 -5 vhcurveto
          -10 93 -12 180 61 vvcurveto
          40 11 9 55 2 vhcurveto
          8 88 rlineto
          hintmask 10001000
          -7 4 43 callgsubr
          -46 -3 -48 -2 vhcurveto
          hintmask 10010000
          -4 -62 -61 3 -62 hhcurveto
          -35 -145 -49 -169 0 vvcurveto
          -13 hlineto
          0 -45 169 -29 149 vhcurveto
          0 -99 -4 -55 -42 -105 5 0 vhcurveto
          -10 -86 8 -8 rlineto
          60 -7 2 -1 -37 vvcurveto
          -26 -35 -339 0 vhcurveto
          -3 -45 -17 -17 -37 -4 -8 -90 rcurveline
          1 77 7 40 33 110 -25 callsubr
          12 86 -9 8 rlineto
          0 -19 -2 -7 -23 -10 11 23 22 5 219 0 vhcurveto
          13 hlineto
          hintmask 01100000
          0 51 -163 57 -212 vhcurveto
          endchar
        </CharString>
        <CharString name="N">
          5 callgsubr
          5 -30 callgsubr
          -47 callsubr
          vhcurveto
          hintmask 10010000
          -73 -75 5 0 hvcurveto
          -84 callsubr
          hintmask 01100000
          -12 callsubr
          hintmask 10100000
          -67 callsubr
          endchar
        </CharString>
        <CharString name="Nacute">
          5 callgsubr
          228 -70 callgsubr
          71 429 -106 callgsubr
          endchar
        </CharString>
        <CharString name="Ncaron">
          5 callgsubr
          248 -70 callgsubr
          36 555 -105 callsubr
        </CharString>
        <CharString name="Ncommaaccent">
          182 24 callsubr
          86 473 88 5 42 callsubr
          -47 callsubr
          vhcurveto
          hintmask 11010000
          -73 -75 5 0 hvcurveto
          -84 callsubr
          -12 callsubr
          188 12 13 497 1 41 14 16 43 6 rlinecurve
          5 90 rlineto
          hintmask 11100000
          -1 -83 -2 -56 -56 -110 4 0 vhcurveto
          -5 -81 5 -11 rlineto
          31 hlineto
          24 7 -9 -34 2 hvcurveto
          4 -183 rlineto
          -219 -425 -105 callgsubr
          endchar
        </CharString>
        <CharString name="Ntilde">
          5 callgsubr
          52 -54 callgsubr
          hintmask 10110010
          -47 callsubr
          -73 -75 5 0 vhcurveto
          -84 callsubr
          hintmask 01110010
          -12 callsubr
          hintmask 10101010
          -67 callsubr
          -239 342 -33 callsubr
          hintmask 10110010
          -86 callgsubr
          hintmask 10100110
          -74 callgsubr
          endchar
        </CharString>
        <CharString name="O">
          -39 callsubr
          hstem
          -102 callsubr
          endchar
        </CharString>
        <CharString name="OE">
          358 -10 125 -112 112 148 123 53 199 -111 111 -111 123 9 -20 hstemhm
          hintmask 10101010
          596 175 rmoveto
          1 85 75 6 rlineto
          46 74 -3 0 hvcurveto
          14 115 -12 14 rlineto
          0 -80 -6 -30 vhcurveto
          -82 1 6 113 rlineto
          22 6 5 28 81 17 -10 -45 -13 -2 -24 0 vhcurveto
          138 9 rlineto
          5 94 18 105 0 vvcurveto
          -13 16 rlineto
          -7 -56 -138 -14 -126 hhcurveto
          hintmask 10100100
          -91 -73 12 -65 hhcurveto
          -212 -110 -114 -224 -209 110 -113 193 hvcurveto
          hintmask 01110010
          55 85 13 75 hhcurveto
          155 169 -10 0 hvcurveto
          15 16 rlineto
          10 109 18 97 0 vvcurveto
          -12 15 -128 -9 rlineto
          -89 -11 -18 -17 -87 hhcurveto
          -42 -6 8 52 hvcurveto
          -264 -67 rmoveto
          -67 -23 67 187 121 21 45 59 50 33 -22 -67 hvcurveto
          -1 -243 rlineto
          -61 -26 -27 -46 vhcurveto
          endchar
        </CharString>
        <CharString name="Oacute">
          -39 callsubr
          216 -20 hstem
          -102 callsubr
          200 774 -106 callgsubr
          endchar
        </CharString>
        <CharString name="Obreve">
          -39 callsubr
          41 51 callgsubr
          hstem
          -102 callsubr
          12 847 -99 callgsubr
          endchar
        </CharString>
        <CharString name="Ocircumflex">
          -39 callsubr
          hstem
          -102 callsubr
          -141 720 -102 callgsubr
          endchar
        </CharString>
        <CharString name="Odieresis">
          -39 callsubr
          26 167 hstem
          -102 callsubr
          105 697 -104 callsubr
          endchar
        </CharString>
        <CharString name="Ograve">
          -39 callsubr
          216 -20 hstem
          -102 callsubr
          -165 758 -95 callgsubr
          endchar
        </CharString>
        <CharString name="Ohungarumlaut">
          -39 callsubr
          221 -20 hstem
          -102 callsubr
          60 811 -81 callgsubr
        </CharString>
        <CharString name="Omacron">
          -39 callsubr
          36 122 6 2 callgsubr
          -102 callsubr
          159 835 rmoveto
          hintmask 11100000
          -84 callgsubr
          endchar
        </CharString>
        <CharString name="Omega">
          308 14 -21 529 137 hstem
          857 19 rmoveto
          92 3 144 0 vhcurveto
          -106 -9 -10 -90 -22 -38 -45 -6 rlinecurve
          -58 -10 rlineto
          89 83 40 92 119 vvcurveto
          158 -123 105 -185 -186 -131 -120 -172 -102 39 -86 79 -76 vhcurveto
          -53 9 -50 7 -22 40 -6 96 rlinecurve
          -105 -9 rlineto
          0 3 -135 -92 vvcurveto
          21 -22 295 6 72 -10 26 81 rlineto
          -53 52 -17 71 174 vvcurveto
          110 29 41 59 62 17 -55 -142 -155 -12 -43 -60 -53 vhcurveto
          27 -81 72 10 290 -6 rlineto
          endchar
        </CharString>
        <CharString name="Oslash">
          98 -96 -21 105 126 408 137 93 -58 callgsubr
          endchar
        </CharString>
        <CharString name="Oslashacute">
          98 -96 -21 105 126 408 137 229 -58 callgsubr
          164 661 -106 callgsubr
          endchar
        </CharString>
        <CharString name="Otilde">
          -39 callsubr
          40 -54 callgsubr
          hintmask 11010100
          -102 callsubr
          -110 687 -33 callsubr
          hintmask 11100100
          -86 callgsubr
          hintmask 11001100
          -74 callgsubr
          endchar
        </CharString>
        <CharString name="P">
          49 0 88 -76 -21 537 125 -94 94 -6 -20 hstemhm
          hintmask 01010000
          17 569 rmoveto
          10 -12 rlineto
          41 callsubr
          -13 -41 vhcurveto
          -337 vlineto
          -56 -16 -21 -49 -8 vhcurveto
          -9 -92 43 callgsubr
          140 9 46 42 121 -25 callsubr
          10 86 -5 8 rlineto
          0 -19 -2 -14 -41 -9 18 54 vhcurveto
          48 86 vlineto
          134 116 110 127 78 -32 130 -239 hvcurveto
          hintmask 10001000
          0 -135 -6 -45 vhcurveto
          -143 hlineto
          260 -316 rmoveto
          2 63 3 61 3 51 rrcurveto
          hintmask 10100000
          19 1 2 3 14 hhcurveto
          71 32 -28 -65 -64 -19 -36 -40 -14 hvcurveto
          endchar
        </CharString>
        <CharString name="Q">
          102 -242 170 60 126 408 137 hstem
          313 -12 rmoveto
          -195 206 52 -35 82 hhcurveto
          37 139 101 0 hvcurveto
          -17 68 -12 11 rlineto
          0 -46 -10 -45 -65 -87 35 55 -72 vhcurveto
          14 vlineto
          96 58 59 109 141 vvcurveto
          211 -100 108 -198 -212 -115 -123 -224 -209 105 -115 193 vhcurveto
          19 126 rmoveto
          -65 -23 65 182 117 21 44 56 67 23 -63 -182 -118 -22 -45 -57 hvcurveto
          endchar
        </CharString>
        <CharString name="R">
          -13 callgsubr
          hstemhm
          hintmask 01001000
          -69 callsubr
          hintmask 10000100
          -30 callsubr
          hintmask 00101000
          -60 callgsubr
          hintmask 10010000
          -64 callsubr
          endchar
        </CharString>
        <CharString name="Racute">
          -13 callgsubr
          248 -72 callgsubr
          167 418 -106 callgsubr
          endchar
        </CharString>
        <CharString name="Rcaron">
          -13 callgsubr
          268 -72 callgsubr
          132 544 -105 callsubr
        </CharString>
        <CharString name="Rcommaaccent">
          121 -324 -21 335 98 -67 -21 559 94 -6 2 callgsubr
          -69 callsubr
          hintmask 11001000
          -30 callsubr
          hintmask 10110000
          -60 callgsubr
          hintmask 11010000
          -64 callsubr
          -116 -436 -105 callgsubr
          endchar
        </CharString>
        <CharString name="S">
          -31 callsubr
          hstem
          222 -12 rmoveto
          -100 callgsubr
          80 -43 117 vhcurveto
          endchar
        </CharString>
        <CharString name="Sacute">
          -31 callsubr
          216 -20 hstem
          288 -12 rmoveto
          -100 callgsubr
          80 -43 117 vhcurveto
          188 774 -106 callgsubr
          endchar
        </CharString>
        <CharString name="Scaron">
          -31 callsubr
          236 -20 hstem
          288 -12 rmoveto
          -100 callgsubr
          80 -43 117 vhcurveto
          153 900 -105 callsubr
        </CharString>
        <CharString name="Scedilla">
          -6 29 callsubr
          128 133 310 228 -138 138 hstem
          200 -85 callgsubr
          5 26 rlineto
          7 hlineto
          -100 callgsubr
          50 -27 79 -11 vhcurveto
          endchar
        </CharString>
        <CharString name="Scircumflex">
          -31 callsubr
          275 -20 hstem
          222 -12 rmoveto
          -100 callgsubr
          80 -43 117 vhcurveto
          -64 728 -95 callsubr
        </CharString>
        <CharString name="Scommaaccent">
          -6 -324 -21 333 133 -133 230 303 138 hstem
          288 -12 rmoveto
          -100 callgsubr
          80 -43 117 vhcurveto
          -135 -80 -105 callgsubr
          endchar
        </CharString>
        <CharString name="T">
          36 0 91 -79 -21 535 121 11 -11 callgsubr
          -26 callgsubr
          hintmask 10100000
          0 137 9 64 57 146 -6 0 vhcurveto
          -65 callsubr
          hintmask 10010000
          -13 14 -8 callsubr
          14 callgsubr
          hintmask 10010000
          -50 callsubr
          hintmask 10100000
          14 callsubr
          endchar
        </CharString>
        <CharString name="Tbar">
          36 0 91 -79 -21 261 66 208 121 11 -20 hstemhm
          hintmask 01110000
          -26 callgsubr
          hintmask 10110000
          0 137 9 64 57 146 -43 callsubr
          -14 18 51 vhcurveto
          92 82 vlineto
          5 55 -15 15 rlineto
          0 -33 -2 -39 -1 vhcurveto
          1 76 2 72 2 59 rrcurveto
          54 5 -20 -124 10 hvcurveto
          124 8 rlineto
          0 -4 137 -1 117 vhcurveto
          hintmask 10101000
          -13 14 rlineto
          hintmask 10110000
          14 callgsubr
          hintmask 10101000
          -50 callsubr
          hintmask 10110000
          14 callsubr
          -208 vlineto
          -42 -38 35 callsubr
          0 35 0 42 1 vhcurveto
          endchar
        </CharString>
        <CharString name="Tcaron">
          36 0 91 -79 -21 535 121 248 -20 hstemhm
          hintmask 01110000
          -26 callgsubr
          hintmask 10110000
          0 137 9 64 57 146 -6 0 vhcurveto
          -65 callsubr
          -13 14 14 callgsubr
          -50 callsubr
          14 callsubr
          257 362 -105 callsubr
        </CharString>
        <CharString name="Tcedilla">
          36 29 callsubr
          140 91 435 121 11 -20 hstemhm
          hintmask 11110000
          239 -85 callgsubr
          8 38 rlineto
          67 -2 104 -4 0 vvcurveto
          -65 callsubr
          hintmask 11101000
          -13 14 rlineto
          hintmask 11110000
          14 callgsubr
          hintmask 11101000
          -50 callsubr
          hintmask 11110000
          14 callsubr
          -358 vlineto
          -62 -17 -16 -82 -7 vhcurveto
          -8 -92 rlineto
          0 102 7 69 2 vhcurveto
          endchar
        </CharString>
        <CharString name="Thorn">
          48 0 87 -71 -21 412 115 37 88 5 36 callgsubr
          295 527 rmoveto
          3 22 5 3 49 10 7 90 rcurveline
          hintmask 01110000
          -88 callsubr
          -12 callgsubr
          hintmask 10110000
          0 104 5 62 45 132 -25 callsubr
          9 84 -8 10 rlineto
          0 -14 -3 -28 -26 -6 5 24 vhcurveto
          23 71 vlineto
          148 101 78 114 130 -77 61 -165 hvcurveto
          -69 hlineto
          1 1 2 2 vvcurveto
          -7 -142 rmoveto
          16 6 6 14 63 28 -23 -53 -48 -16 -28 -33 -9 vhcurveto
          -11 -26 4 6 -27 hvcurveto
          34 2 68 27 vvcurveto
          endchar
        </CharString>
        <CharString name="U">
          -34 callgsubr
          4 -30 callgsubr
          257 220 rmoveto
          6 289 1 31 12 15 35 3 rlinecurve
          10 93 rlineto
          hintmask 11000000
          0 -95 -4 -39 -79 -98 3 0 vhcurveto
          -10 -89 2 -4 rlineto
          0 19 2 10 23 5 -10 -44 vhcurveto
          -306 vlineto
          -147 75 -64 171 176 91 84 162 vhcurveto
          282 vlineto
          24 6 6 42 14 vhcurveto
          8 90 rlineto
          0 -83 -3 -61 -37 -83 3 0 vhcurveto
          -11 -89 3 -4 rlineto
          0 13 2 10 20 6 -13 -41 vhcurveto
          0 1 -240 -62 vvcurveto
          -62 -22 -26 -50 -50 -27 41 64 vhcurveto
          endchar
        </CharString>
        <CharString name="Uacute">
          -34 callgsubr
          228 -20 hstem
          -107 callsubr
          264 542 -106 callgsubr
          endchar
        </CharString>
        <CharString name="Ubreve">
          -34 callgsubr
          63 51 callgsubr
          hstem
          -107 callsubr
          76 625 -99 callgsubr
          endchar
        </CharString>
        <CharString name="Ucircumflex">
          -34 callgsubr
          hstem
          -107 callsubr
          -77 488 -102 callgsubr
          endchar
        </CharString>
        <CharString name="Udieresis">
          -34 callgsubr
          38 167 hstem
          -107 callsubr
          169 465 -104 callsubr
          endchar
        </CharString>
        <CharString name="Ugrave">
          -34 callgsubr
          228 -20 hstem
          -107 callsubr
          -101 526 -95 callgsubr
          endchar
        </CharString>
        <CharString name="Uhungarumlaut">
          -34 callgsubr
          233 -20 hstem
          -107 callsubr
          124 579 -81 callgsubr
        </CharString>
        <CharString name="Umacron">
          -34 callgsubr
          48 122 6 2 callgsubr
          -107 callsubr
          223 603 rmoveto
          hintmask 11100000
          -84 callgsubr
          endchar
        </CharString>
        <CharString name="Uogonek">
          70 -242 85 145 127 444 88 4 42 callsubr
          513 -55 callsubr
          29 12 20 94 122 vhcurveto
          42 53 18 54 72 vvcurveto
          282 vlineto
          24 6 6 42 14 vhcurveto
          8 90 rlineto
          0 -83 -3 -61 -37 -83 3 0 vhcurveto
          -11 -89 3 -4 rlineto
          0 13 2 10 20 6 -13 -41 vhcurveto
          0 1 -240 -62 vvcurveto
          -62 -22 -26 -50 -48 -29 39 66 vhcurveto
          6 289 1 32 13 14 34 3 rlinecurve
          hintmask 11010000
          10 93 50 callsubr
          -95 -4 -39 -79 -98 3 0 vhcurveto
          -10 -89 2 -4 rlineto
          0 19 2 10 23 5 -10 -44 vhcurveto
          -306 vlineto
          -147 75 -64 171 31 25 2 5 24 vhcurveto
          -59 -65 -21 -39 -44 33 callgsubr
        </CharString>
        <CharString name="Uring">
          -34 callgsubr
          35 210 -72 72 hstemhm
          hintmask 11010000
          -107 callsubr
          78 532 -50 callgsubr
          hintmask 11100000
          -7 -70 -57 callsubr
          endchar
        </CharString>
        <CharString name="Utilde">
          -34 callgsubr
          77 -54 callgsubr
          hintmask 11010100
          -107 callsubr
          -48 480 -33 callsubr
          hintmask 11100100
          -86 callgsubr
          hintmask 11001100
          -74 callgsubr
          endchar
        </CharString>
        <CharString name="V">
          84 8 -21 570 90 5 -15 callsubr
          57 493 rmoveto
          28 -108 90 -398 0 vvcurveto
          275 17 149 502 12 38 7 10 22 7 rlinecurve
          7 87 rlineto
          0 -66 -1 -57 -61 -93 3 0 vhcurveto
          -8 -83 8 -10 rlineto
          26 hlineto
          26 5 -3 -17 -33 -82 -336 0 hvcurveto
          -22 hlineto
          0 -54 317 40 vvcurveto
          25 2 1 62 8 vhcurveto
          6 84 -8 callsubr
          -8 9 rlineto
          hintmask 11000000
          0 -96 -5 -95 -53 -84 -45 callgsubr
          -8 -79 7 -10 28 -4 15 -18 12 -45 rlinecurve
          endchar
        </CharString>
        <CharString name="W">
          15 callgsubr
          5 -15 callsubr
          819 4 rmoveto
          138 502 12 38 7 10 21 7 rlinecurve
          7 87 rlineto
          0 -63 -1 -55 -58 -90 3 0 vhcurveto
          -8 -83 7 -10 rlineto
          25 hlineto
          25 5 -3 -17 -33 -79 -336 0 hvcurveto
          -21 hlineto
          0 -51 317 40 vvcurveto
          26 1 0 60 8 vhcurveto
          7 84 -8 callsubr
          -8 9 rlineto
          hintmask 11000000
          0 -92 -5 -91 -59 -103 -45 callgsubr
          -9 -79 7 -10 rlineto
          46 10 -5 -26 -5 -1 -9 -2 -13 hvcurveto
          -15 -88 -61 -246 0 vvcurveto
          -21 hlineto
          0 -52 317 40 vvcurveto
          25 2 1 60 8 vhcurveto
          6 84 -8 callsubr
          -7 9 rlineto
          hintmask 11000000
          0 -93 -5 -91 -51 -80 -45 callgsubr
          -9 -79 7 -10 27 -4 14 -18 12 -45 rlinecurve
          26 -108 87 -398 0 vvcurveto
          265 17 63 268 rlineto
          14 hlineto
          44 -285 rlineto
          endchar
        </CharString>
        <CharString name="Wacute">
          15 callgsubr
          228 -20 hstem
          819 4 rmoveto
          138 502 12 38 7 10 21 7 rlinecurve
          7 87 rlineto
          0 -63 -1 -55 -58 -90 3 0 vhcurveto
          -8 -83 7 -10 rlineto
          25 hlineto
          25 5 -3 -17 -33 -79 -336 0 hvcurveto
          -21 hlineto
          0 -51 317 40 vvcurveto
          26 1 0 60 8 vhcurveto
          7 84 -8 9 rlineto
          0 -92 -5 -91 -59 -103 -45 callgsubr
          -9 -79 7 -10 rlineto
          46 10 -5 -26 -5 -1 -9 -2 -13 hvcurveto
          -15 -88 -61 -246 0 vvcurveto
          -21 hlineto
          0 -52 317 40 vvcurveto
          25 2 1 60 8 vhcurveto
          6 84 -7 9 rlineto
          0 -93 -5 -91 -51 -80 -45 callgsubr
          -9 -79 7 -10 27 -4 14 -18 12 -45 rlinecurve
          26 -108 87 -398 0 vvcurveto
          265 17 63 268 rlineto
          14 hlineto
          44 -285 rlineto
          153 775 -106 callgsubr
          endchar
        </CharString>
        <CharString name="Wcircumflex">
          15 callgsubr
          hstem
          819 4 rmoveto
          138 502 12 38 7 10 21 7 rlinecurve
          7 87 rlineto
          0 -63 -1 -55 -58 -90 3 0 vhcurveto
          -8 -83 7 -10 rlineto
          25 hlineto
          25 5 -3 -17 -33 -79 -336 0 hvcurveto
          -21 hlineto
          0 -51 317 40 vvcurveto
          26 1 0 60 8 vhcurveto
          7 84 -8 9 rlineto
          0 -92 -5 -91 -59 -103 -45 callgsubr
          -9 -79 7 -10 rlineto
          46 10 -5 -26 -5 -1 -9 -2 -13 hvcurveto
          -15 -88 -61 -246 0 vvcurveto
          -21 hlineto
          0 -52 317 40 vvcurveto
          25 2 1 60 8 vhcurveto
          6 84 -7 9 rlineto
          0 -93 -5 -91 -51 -80 -45 callgsubr
          -9 -79 7 -10 27 -4 14 -18 12 -45 rlinecurve
          26 -108 87 -398 0 vvcurveto
          265 17 63 268 rlineto
          14 hlineto
          44 -285 rlineto
          -188 721 -102 callgsubr
          endchar
        </CharString>
        <CharString name="Wdieresis">
          15 callgsubr
          38 167 hstem
          819 4 rmoveto
          138 502 12 38 7 10 21 7 rlinecurve
          7 87 rlineto
          0 -63 -1 -55 -58 -90 3 0 vhcurveto
          -8 -83 7 -10 rlineto
          25 hlineto
          25 5 -3 -17 -33 -79 -336 0 hvcurveto
          -21 hlineto
          0 -51 317 40 vvcurveto
          26 1 0 60 8 vhcurveto
          7 84 -8 9 rlineto
          0 -92 -5 -91 -59 -103 -45 callgsubr
          -9 -79 7 -10 rlineto
          46 10 -5 -26 -5 -1 -9 -2 -13 hvcurveto
          -15 -88 -61 -246 0 vvcurveto
          -21 hlineto
          0 -52 317 40 vvcurveto
          25 2 1 60 8 vhcurveto
          6 84 -7 9 rlineto
          0 -93 -5 -91 -51 -80 -45 callgsubr
          -9 -79 7 -10 27 -4 14 -18 12 -45 rlinecurve
          26 -108 87 -398 0 vvcurveto
          265 17 63 268 rlineto
          14 hlineto
          44 -285 rlineto
          58 698 -104 callsubr
          endchar
        </CharString>
        <CharString name="Wgrave">
          15 callgsubr
          228 -20 hstem
          819 4 rmoveto
          138 502 12 38 7 10 21 7 rlinecurve
          7 87 rlineto
          0 -63 -1 -55 -58 -90 3 0 vhcurveto
          -8 -83 7 -10 rlineto
          25 hlineto
          25 5 -3 -17 -33 -79 -336 0 hvcurveto
          -21 hlineto
          0 -51 317 40 vvcurveto
          26 1 0 60 8 vhcurveto
          7 84 -8 9 rlineto
          0 -92 -5 -91 -59 -103 -45 callgsubr
          -9 -79 7 -10 rlineto
          46 10 -5 -26 -5 -1 -9 -2 -13 hvcurveto
          -15 -88 -61 -246 0 vvcurveto
          -21 hlineto
          0 -52 317 40 vvcurveto
          25 2 1 60 8 vhcurveto
          6 84 -7 9 rlineto
          0 -93 -5 -91 -51 -80 -45 callgsubr
          -9 -79 7 -10 27 -4 14 -18 12 -45 rlinecurve
          26 -108 87 -398 0 vvcurveto
          265 17 63 268 rlineto
          14 hlineto
          44 -285 rlineto
          -212 759 -95 callgsubr
          endchar
        </CharString>
        <CharString name="X">
          154 2 84 -70 -21 565 87 6 -30 callgsubr
          133 219 rmoveto
          -37 -53 -60 -62 -29 -14 -6 -80 rcurveline
          5 -14 rlineto
          0 94 6 40 32 119 -6 0 vhcurveto
          5 81 -6 11 rlineto
          -27 -12 9 21 9 7 15 10 16 hvcurveto
          38 63 61 -88 rlineto
          8 -11 3 -8 -8 vvcurveto
          -13 -10 -6 -19 -1 vhcurveto
          -7 -84 rlineto
          hintmask 01100000
          7 -7 43 callgsubr
          160 7 47 38 97 -24 callgsubr
          9 90 -4 4 -48 1 -35 26 -42 59 rlinecurve
          -87 122 94 145 34 53 30 25 64 31 rlinecurve
          5 87 -4 8 rlineto
          0 -71 -3 -58 vhcurveto
          -155 hlineto
          -6 -80 2 -6 rlineto
          29 9 -5 -15 -17 -36 -56 -25 -44 hvcurveto
          -36 51 -27 35 26 vvcurveto
          16 12 8 27 vhcurveto
          7 82 rlineto
          hintmask 10010000
          -6 11 43 callgsubr
          -129 -6 -44 -106 -70 1 0 vhcurveto
          -9 -91 5 -6 49 -12 27 -9 43 -63 rlinecurve
          82 -121 rlineto
          endchar
        </CharString>
        <CharString name="Y">
          -1 callgsubr
          7 -30 callgsubr
          297 535 rmoveto
          17 13 8 28 vhcurveto
          9 82 rlineto
          hintmask 10010000
          -7 11 43 callgsubr
          -134 -7 -46 -33 -117 -45 callgsubr
          -10 -91 4 -6 45 -19 34 -28 20 -37 rlinecurve
          107 -199 rlineto
          21 -39 7 -22 -29 vvcurveto
          -16 vlineto
          -59 -18 -14 -85 -6 vhcurveto
          hintmask 01100000
          -8 -92 rlineto
          hintmask 10100000
          -91 callgsubr
          endchar
        </CharString>
        <CharString name="Yacute">
          -1 callgsubr
          229 47 callgsubr
          -76 callgsubr
          hintmask 01110000
          -8 -92 rlineto
          hintmask 10110000
          -91 callgsubr
          256 227 -106 callgsubr
          endchar
        </CharString>
        <CharString name="Ycircumflex">
          -1 callgsubr
          -19 callgsubr
          -76 callgsubr
          hintmask 01100000
          -8 -92 rlineto
          hintmask 10100000
          -91 callgsubr
          -85 173 -102 callgsubr
          endchar
        </CharString>
        <CharString name="Ydieresis">
          -1 callgsubr
          39 167 hstemhm
          hintmask 10110000
          -76 callgsubr
          hintmask 01110000
          -8 -92 rlineto
          hintmask 10110000
          -91 callgsubr
          161 150 -104 callsubr
          endchar
        </CharString>
        <CharString name="Ygrave">
          -1 callgsubr
          229 47 callgsubr
          -76 callgsubr
          hintmask 01110000
          -8 -92 rlineto
          hintmask 10110000
          -91 callgsubr
          -109 211 -95 callgsubr
          endchar
        </CharString>
        <CharString name="Z">
          27 callsubr
          11 -15 callsubr
          571 19 rmoveto
          2 100 21 156 0 vvcurveto
          -126 -9 -9 -93 -26 -37 -64 -12 rlinecurve
          -105 -15 55 85 129 202 149 199 rlinecurve
          -25 54 rlineto
          -331 hlineto
          hintmask 10100000
          -181 11 rlineto
          hintmask 11000000
          -11 -11 rlineto
          -3 -93 -12 -147 0 vvcurveto
          126 9 3 85 12 14 77 15 rlinecurve
          77 10 -326 -491 36 -58 82 10 429 -6 rlineto
          endchar
        </CharString>
        <CharString name="Zacute">
          27 callsubr
          226 -20 -74 callsubr
          -30 765 -106 callgsubr
          endchar
        </CharString>
        <CharString name="Zcaron">
          27 callsubr
          246 -20 -74 callsubr
          -65 891 -105 callsubr
        </CharString>
        <CharString name="Zdotaccent">
          27 callsubr
          34 199 -74 callsubr
          -220 686 rmoveto
          11 callgsubr
        </CharString>
        <CharString name="a">
          -57 callgsubr
          275 -20 -101 callsubr
          -256 238 -69 callgsubr
          endchar
        </CharString>
        <CharString name="a.sups">
          -65 callgsubr
        </CharString>
        <CharString name="aacute">
          -57 callgsubr
          493 -20 -101 callsubr
          -57 493 -106 callgsubr
          -192 -239 -69 callgsubr
          endchar
        </CharString>
        <CharString name="abreve">
          -57 callgsubr
          303 37 callgsubr
          hintmask 10011000
          531 125 rmoveto
          -103 callsubr
          hintmask 01111000
          -92 callsubr
          hintmask 10011000
          -78 callsubr
          -236 551 -99 callgsubr
          -20 -313 -69 callgsubr
          endchar
        </CharString>
        <CharString name="acircumflex">
          -57 callgsubr
          hstemhm
          hintmask 10000000
          531 125 rmoveto
          -103 callsubr
          hintmask 01100000
          -92 callsubr
          hintmask 10000000
          -78 callsubr
          -388 439 -102 callgsubr
          168 -263 -69 callgsubr
          endchar
        </CharString>
        <CharString name="acute">
          546 -21 235 -20 hstem
          375 659 -5 callgsubr
        </CharString>
        <CharString name="acute.cap">
          712 -21 184 -20 hstem
          369 762 -106 callgsubr
          endchar
        </CharString>
        <CharString name="adieresis">
          -57 callgsubr
          303 167 -101 callsubr
          -142 416 -104 callsubr
          79 -178 -69 callgsubr
          endchar
        </CharString>
        <CharString name="ae">
          44 callsubr
          9 47 callsubr
          21 callsubr
          hintmask 01010000
          134 138 -5 -17 callgsubr
          hintmask 10010000
          -40 callgsubr
          hintmask 10001000
          -12 13 rlineto
          hintmask 00110000
          -29 -3 -142 -5 -121 -1 rrcurveto
          -18 callgsubr
          -32 callsubr
          -29 179 32 callsubr
        </CharString>
        <CharString name="aeacute">
          44 callsubr
          287 -20 hstemhm
          hintmask 10011000
          21 callsubr
          hintmask 01011000
          134 138 -5 -17 callgsubr
          hintmask 10011000
          -40 callgsubr
          -12 13 -29 -3 -142 -5 -121 -1 rlinecurve
          -18 callgsubr
          hintmask 00111000
          -32 callsubr
          299 615 rmoveto
          -72 101 rlineto
          -17 hlineto
          0 -93 -86 -94 -81 vhcurveto
          41 -61 22 -7 rlineto
          103 61 108 56 0 vvcurveto
          -326 -419 32 callsubr
        </CharString>
        <CharString name="agrave">
          -57 callgsubr
          493 -20 -101 callsubr
          -394 477 -95 callgsubr
          145 -255 -69 callgsubr
          endchar
        </CharString>
        <CharString name="amacron">
          -57 callgsubr
          313 122 6 -20 -96 callsubr
          hintmask 10001000
          -78 callsubr
          -89 554 rmoveto
          hintmask 10010000
          -84 callgsubr
          hintmask 10001000
          -178 -298 -69 callgsubr
          endchar
        </CharString>
        <CharString name="ampersand">
          123 -12 124 87 113 32 139 161 -20 hstem
          652 198 rmoveto
          19 6 68 66 -1 5 -38 58 rlineto
          -7 hlineto
          0 -37 -21 -28 vhcurveto
          -23 -120 12 -33 hhcurveto
          -17 -5 -70 -66 rlineto
          -4 vlineto
          41 -59 rlineto
          6 hlineto
          0 23 19 22 vhcurveto
          14 -1 rlineto
          -63 -14 -50 -33 -80 hhcurveto
          -56 -47 18 29 -31 hvcurveto
          143 77 107 111 87 144 rrcurveto
          8 10 7 12 13 vvcurveto
          26 -64 92 0 vhcurveto
          -52 hlineto
          -14 -16 -11 -96 -24 -53 -49 -73 rlinecurve
          -6 4 rlineto
          8 vlineto
          33 -42 32 -50 -111 -98 -108 -127 -155 110 -105 166 127 122 90 123 43 vhcurveto
          -449 79 rmoveto
          40 21 24 34 21 11 -12 -22 -31 -15 -16 -64 -38 vhcurveto
          -5 18 -3 18 19 vvcurveto
          endchar
        </CharString>
        <CharString name="aogonek">
          29 -242 85 177 -21 130 109 275 -20 hstem
          569 -55 callsubr
          24 13 26 48 65 vhcurveto
          27 25 -1 0 hvcurveto
          7 66 -6 9 -23 2 -13 15 -9 35 rlinecurve
          -103 callsubr
          -92 callsubr
          0 78 3 79 vhcurveto
          -65 -70 -22 -39 callgsubr
          -319 534 -69 callgsubr
          endchar
        </CharString>
        <CharString name="approxequal">
          -51 52 -21 24 45 callsubr
          33 45 callsubr
          24 -20 hstemhm
          hintmask 11000101
          75 231 rmoveto
          0 57 58 31 vhcurveto
          hintmask 11001001
          -33 callgsubr
          hintmask 10100011
          -18 callsubr
          16 -200 rmoveto
          0 57 58 31 vhcurveto
          hintmask 11001001
          -33 callgsubr
          hintmask 10011001
          -18 callsubr
          endchar
        </CharString>
        <CharString name="aring">
          -57 callgsubr
          300 210 -72 72 -101 callsubr
          -240 413 -57 callsubr
          -16 -175 -69 callgsubr
          57 370 rmoveto
          -16 -23 8 28 hvcurveto
          hintmask 10001000
          19 11 13 24 25 14 -13 -22 -27 -22 -6 -13 vhcurveto
          endchar
        </CharString>
        <CharString name="aringacute">
          -57 callgsubr
          296 189 -126 -20 81 65 149 -20 hstemhm
          hintmask 10010010
          531 125 rmoveto
          -103 callsubr
          hintmask 01110010
          -92 callsubr
          hintmask 10010010
          -78 callsubr
          -244 409 15 callsubr
          134 -10 callsubr
          -140 -393 -69 callgsubr
          hintmask 10001110
          52 359 17 callgsubr
          endchar
        </CharString>
        <CharString name="asciicircum">
          -87 117 -21 388 -20 hstem
          303 484 rmoveto
          -151 -7 -77 -178 rlineto
          -33 -77 -37 -74 0 vvcurveto
          11 -18 105 -34 rlineto
          0 36 93 32 73 vhcurveto
          39 90 rlineto
          8 hlineto
          49 -102 rlineto
          32 -71 35 -74 0 vvcurveto
          21 -9 92 56 rlineto
          0 -32 66 -34 72 vhcurveto
          -30 69 -51 117 0 vvcurveto
          endchar
        </CharString>
        <CharString name="asciitilde">
          -52 172 -21 24 45 callsubr
          24 36 callgsubr
          75 151 rmoveto
          0 57 58 31 vhcurveto
          hintmask 11001000
          -33 callgsubr
          hintmask 10011000
          -18 callsubr
          endchar
        </CharString>
        <CharString name="asterisk">
          -193 409 -21 364 -20 hstem
          37 681 rmoveto
          -11 -3 rlineto
          -14 -39 0 -54 0 vvcurveto
          0 57 -14 55 -16 vhcurveto
          9 7 9 49 rlineto
          -61 46 -44 24 0 vvcurveto
          -6 -216 rmoveto
          -1 -12 rlineto
          33 -25 52 -16 0 vvcurveto
          0 30 50 32 48 vhcurveto
          -3 9 -45 24 rlineto
          -62 -44 -36 -34 0 vvcurveto
          203 -72 rmoveto
          11 -5 rlineto
          35 23 31 45 0 vvcurveto
          0 -39 45 -34 45 vhcurveto
          -11 hlineto
          -37 -35 rlineto
          23 -74 21 -44 0 vvcurveto
          132 171 rmoveto
          8 8 rlineto
          -11 40 -33 44 0 vvcurveto
          0 -55 -22 -53 -19 vhcurveto
          -4 -11 22 -46 rlineto
          77 -1 49 7 0 vvcurveto
          -121 178 rmoveto
          -7 10 rlineto
          -42 -52 -16 0 0 6 -59 2 -57 hvcurveto
          8 -5 50 5 rlineto
          24 73 11 49 0 vvcurveto
          endchar
        </CharString>
        <CharString name="at">
          340 -240 91 137 116 263 105 96 105 hstem
          511 -12 rmoveto
          228 144 141 221 200 -144 123 -235 -260 -230 -236 -268 -255 180 -154 299 hvcurveto
          37 64 rlineto
          9 1 9 9 vvcurveto
          -264 -144 124 228 208 149 156 201 1 hvcurveto
          188 115 -98 -160 -119 -67 -87 -92 hvcurveto
          -7 8 rlineto
          21 128 48 209 0 vvcurveto
          -8 23 -134 12 -19 -12 -5 -20 -72 20 rlineto
          -122 -132 -170 -157 -99 56 -58 95 hvcurveto
          41 28 37 47 55 95 rrcurveto
          10 hlineto
          -21 -90 -3 -13 -13 vvcurveto
          -32 22 -22 32 vhcurveto
          -127 155 rmoveto
          -8 -6 27 37 74 22 86 19 36 38 -26 0 hvcurveto
          -95 -26 -53 -103 -22 hhcurveto
          endchar
        </CharString>
        <CharString name="atilde">
          -57 callgsubr
          317 -54 callgsubr
          hintmask 10010010
          531 125 rmoveto
          -103 callsubr
          hintmask 01110010
          -92 callsubr
          hintmask 10001010
          -78 callsubr
          -358 406 -33 callsubr
          hintmask 10010010
          -86 callgsubr
          hintmask 10000110
          -74 callgsubr
          118 -168 -69 callgsubr
          endchar
        </CharString>
        <CharString name="b">
          15 -9 108 -78 -21 400 110 -6 -11 callgsubr
          170 hmoveto
          hintmask 10100000
          19 97 -5 -4 24 hvcurveto
          165 80 52 113 83 -88 26 -12 3 hvcurveto
          11 5 67 38 75 vvcurveto
          81 -67 43 -126 vhcurveto
          hintmask 01010000
          0 -141 -6 -27 -25 -121 -45 callgsubr
          -11 -68 11 -10 rlineto
          0 19 1 10 13 8 -12 -22 vhcurveto
          -1 -269 rlineto
          -36 -12 -12 -42 -7 vhcurveto
          -8 -76 rlineto
          0 103 5 54 vhcurveto
          147 196 rmoveto
          28 -9 17 -18 -21 vvcurveto
          hintmask 10100000
          -33 -19 -16 -37 -39 -17 10 22 vhcurveto
          4 66 rlineto
          2 111 rmoveto
          -1 -12 3 64 3 31 rrcurveto
          7 1 3 2 11 hhcurveto
          49 23 -14 -30 -36 -29 -21 0 -20 -43 9 0 hvcurveto
          endchar
        </CharString>
        <CharString name="b.sups">
          -177 323 81 156 89 91 -20 104 -20 hstem
          40 700 rmoveto
          -355 vlineto
          7 -9 rlineto
          0 71 -13 67 111 66 65 107 99 -46 55 -82 -8 -26 -18 -20 -30 vhcurveto
          4 119 7 65 11 3 callsubr
          128 -291 rmoveto
          1 149 rlineto
          -1 5 3 14 25 10 -27 -66 -44 -9 -19 -19 -17 -12 6 -1 2 vhcurveto
          endchar
        </CharString>
        <CharString name="backslash">
          -228 -89 -21 785 -20 hstem
          -15 655 rmoveto
          0 77 -278 43 -162 vhcurveto
          42 -165 41 -160 0 vvcurveto
          126 hlineto
          11 15 rlineto
          0 -50 169 -39 152 vhcurveto
          -115 449 rlineto
          -119 hlineto
          endchar
        </CharString>
        <CharString name="bar">
          -264 -248 -21 1076 -20 hstem
          194 807 rmoveto
          -114 -11 -1 -520 rlineto
          -1 -179 0 -350 0 vvcurveto
          15 -16 117 11 rlineto
          0 -1 377 172 vvcurveto
          166 6 334 0 vhcurveto
          endchar
        </CharString>
        <CharString name="braceleft">
          -222 -123 114 562 106 hstem
          41 235 rmoveto
          47 -13 25 -24 -36 -39 -53 -73 -57 vvcurveto
          -65 65 -51 84 71 37 23 0 vhcurveto
          14 83 -13 13 rlineto
          0 -15 -5 -16 -34 -21 22 36 vhcurveto
          36 27 68 42 vvcurveto
          43 -25 31 -48 16 vhcurveto
          5 vlineto
          46 12 27 32 41 36 -27 60 32 vvcurveto
          32 18 18 32 15 20 -5 0 vhcurveto
          18 83 -10 16 rlineto
          0 -49 12 -41 -104 -71 -47 -69 vhcurveto
          -54 53 -71 -42 vvcurveto
          -28 -25 -24 -43 -13 vhcurveto
          endchar
        </CharString>
        <CharString name="braceright">
          -222 -123 106 562 114 hstem
          294 311 rmoveto
          -45 8 -27 27 38 37 53 68 54 vvcurveto
          65 -65 51 -84 -71 -37 -23 0 vhcurveto
          -14 -83 13 -13 rlineto
          0 15 5 16 34 21 -22 -36 vhcurveto
          -34 -27 -63 -39 vvcurveto
          -43 25 -31 48 -16 vhcurveto
          -5 vlineto
          -46 -13 -27 -31 -41 -39 27 -65 -34 vvcurveto
          -32 -18 -18 -32 -15 -20 5 0 vhcurveto
          -18 -83 10 -16 rlineto
          0 49 -12 41 104 71 51 75 vhcurveto
          54 -53 71 42 vvcurveto
          29 27 26 41 10 vhcurveto
          endchar
        </CharString>
        <CharString name="bracketleft">
          -231 -106 -21 777 -20 hstem
          315 -127 rmoveto
          8 83 -4 11 -96 17 rlineto
          555 vlineto
          92 17 8 84 -4 10 -254 -11 rlineto
          0 11 -279 -100 vvcurveto
          -100 -11 -276 0 vhcurveto
          endchar
        </CharString>
        <CharString name="bracketright">
          -231 -106 -21 777 -20 hstem
          11 650 rmoveto
          -8 -83 4 -11 96 -17 rlineto
          -555 vlineto
          -92 -17 -8 -84 4 -10 254 11 rlineto
          0 -11 279 100 vvcurveto
          100 11 276 0 vhcurveto
          endchar
        </CharString>
        <CharString name="breve">
          535 51 callgsubr
          hstem
          199 670 -99 callgsubr
          endchar
        </CharString>
        <CharString name="breve.cap">
          675 51 callgsubr
          hstem
          199 810 -99 callgsubr
          endchar
        </CharString>
        <CharString name="brokenbar">
          -264 -248 -21 1076 -20 hstem
          79 150 rmoveto
          -1 -184 0 -219 0 vvcurveto
          15 -16 117 11 rlineto
          0 -1 221 187 vvcurveto
          -18 17 rlineto
          18 207 rmoveto
          1 174 5 243 0 vvcurveto
          -21 16 -114 -11 rlineto
          -142 -1 -143 -142 vvcurveto
          13 -11 rlineto
          endchar
        </CharString>
        <CharString name="bullet">
          -217 130 -21 265 -20 hstem
          165 109 rmoveto
          83 51 53 86 80 -45 46 -78 -85 -51 -53 -85 -82 44 -45 81 hvcurveto
          endchar
        </CharString>
        <CharString name="c">
          -42 callsubr
          -90 callgsubr
          endchar
        </CharString>
        <CharString name="c.sups">
          -232 319 98 91 145 -85 85 hstem
          275 434 rmoveto
          0 -29 -17 -37 -36 -15 29 67 37 10 18 23 18 6 -9 -27 vhcurveto
          -25 vlineto
          68 3 rlineto
          5 62 11 58 0 vvcurveto
          -4 8 rlineto
          0 -35 15 -62 -110 -70 -66 -104 -103 59 -61 104 52 65 57 0 vhcurveto
          -16 54 rlineto
          endchar
        </CharString>
        <CharString name="cacute">
          -42 callsubr
          218 -20 -90 callgsubr
          200 626 -106 callgsubr
          endchar
        </CharString>
        <CharString name="caron">
          536 -21 225 -20 hstem
          18 671 rmoveto
          78 -69 88 -87 0 vvcurveto
          27 hlineto
          0 88 87 79 69 vhcurveto
          -46 62 -23 7 -39 -27 -46 -27 -26 -15 rlinecurve
          -26 15 -47 27 -39 27 -23 -7 rcurveline
          endchar
        </CharString>
        <CharString name="caron.alt">
          522 -21 258 -20 hstem
          261 759 rmoveto
          -134 -14 rlineto
          0 11 -118 -2 -120 vhcurveto
          19 -6 73 25 rlineto
          26 112 16 109 0 vvcurveto
          endchar
        </CharString>
        <CharString name="caron.cap">
          709 -21 207 -20 hstem
          353 888 -105 callsubr
        </CharString>
        <CharString name="ccaron">
          -42 callsubr
          238 -20 -90 callgsubr
          175 752 -105 callsubr
        </CharString>
        <CharString name="ccedilla">
          -45 29 callsubr
          133 121 -121 209 97 214 43 callsubr
          hstem
          213 -85 callgsubr
          7 31 rlineto
          91 5 74 23 0 vvcurveto
          12 13 rlineto
          -1 78 9 95 0 vvcurveto
          -138 -9 rlineto
          -63 -4 -14 -21 -38 hhcurveto
          -48 -18 46 112 99 11 24 51 37 12 -14 -41 -25 -1 -20 0 hvcurveto
          139 8 rlineto
          6 99 18 73 0 vvcurveto
          -7 18 rlineto
          0 -107 20 -72 -190 -101 -92 -177 -151 78 -90 138 -10 vhcurveto
          endchar
        </CharString>
        <CharString name="ccircumflex">
          -42 callsubr
          277 -20 -90 callgsubr
          -106 580 -95 callsubr
        </CharString>
        <CharString name="cdotaccent">
          -42 callsubr
          36 199 -90 callgsubr
          20 557 rmoveto
          11 callgsubr
        </CharString>
        <CharString name="cedilla">
          29 callsubr
          175 -20 hstem
          131 -85 callgsubr
          16 73 rlineto
          -61 hlineto
          endchar
        </CharString>
        <CharString name="cent">
          -117 -143 -21 289 149 -149 241 292 -20 hstem
          382 151 rmoveto
          0 -44 -26 -54 -56 -25 46 102 62 19 31 38 29 11 -16 -42 vhcurveto
          -36 vlineto
          92 5 rlineto
          7 90 16 84 0 vvcurveto
          -5 11 rlineto
          0 -23 10 -42 6 vhcurveto
          21 171 -6 9 -116 -14 -21 -164 rlineto
          -129 -19 -80 -94 -137 vvcurveto
          -120 54 -82 95 -28 vhcurveto
          -20 -158 8 -6 114 13 18 145 rlineto
          64 18 67 59 0 vvcurveto
          -22 75 rlineto
          endchar
        </CharString>
        <CharString name="circumflex">
          556 -21 225 -20 hstem
          64 542 -95 callsubr
        </CharString>
        <CharString name="circumflex.cap">
          722 -21 hstem
          45 708 -102 callgsubr
          endchar
        </CharString>
        <CharString name="colon">
          -319 -9 199 66 36 callsubr
          -41 callsubr
          265 vmoveto
          11 callgsubr
        </CharString>
        <CharString name="comma">
          -319 -101 7 callsubr
          -23 callgsubr
          endchar
        </CharString>
        <CharString name="commaaccent">
          -324 7 callsubr
          97 -92 -105 callgsubr
          endchar
        </CharString>
        <CharString name="copyright">
          142 -12 59 80 79 -79 137 62 139 -76 76 74 59 hstem
          335 127 rmoveto
          70 60 18 0 hvcurveto
          8 10 rlineto
          -1 50 5 63 0 vvcurveto
          -89 -7 rlineto
          -40 -2 -10 -15 -24 hhcurveto
          -31 -12 30 73 64 8 16 32 25 8 -9 -28 -15 -1 -13 0 hvcurveto
          90 4 rlineto
          3 65 13 48 0 vvcurveto
          -5 11 rlineto
          0 -69 13 -47 -125 -64 -59 -115 -104 57 -60 101 vhcurveto
          -290 166 rmoveto
          -169 136 -136 168 168 137 136 169 168 -137 137 -168 -168 -136 -136 -169 vhcurveto
          60 hmoveto
          136 109 110 135 135 110 -110 -136 -136 -110 -110 -135 -135 -109 110 136 vhcurveto
          endchar
        </CharString>
        <CharString name="currency">
          -113 126 -21 65 98 149 98 66 -20 hstem
          62 342 rmoveto
          -22 4 -21 7 -19 vhcurveto
          -77 -66 77 -105 23 -4 rlineto
          0 36 39 34 40 vhcurveto
          -9 21 23 -5 24 hhcurveto
          22 21 4 7 19 hvcurveto
          65 -74 105 77 4 23 rlineto
          0 -38 34 -39 33 vhcurveto
          9 21 5 23 24 vvcurveto
          23 -5 22 -8 21 vhcurveto
          74 64 -77 105 -23 4 rlineto
          0 -35 -40 -34 -39 vhcurveto
          8 -20 -22 5 -23 hhcurveto
          -23 -22 -5 -8 -20 hvcurveto
          -66 77 -105 -77 -4 -23 rlineto
          0 40 -37 40 -35 vhcurveto
          -8 -20 -4 -22 -23 vvcurveto
          98 hmoveto
          41 33 34 41 41 34 -34 -41 -41 -34 -33 -41 -41 -33 33 41 vhcurveto
          endchar
        </CharString>
        <CharString name="d">
          21 -9 107 -77 -21 399 110 -81 81 -5 47 callsubr
          272 -9 rmoveto
          180 109 -2 callgsubr
          hintmask 10001000
          0 -101 -5 -38 -34 -97 -45 callgsubr
          -8 -68 9 -12 rlineto
          hintmask 01010000
          -6 callsubr
          hintmask 10100000
          -23 callsubr
          endchar
        </CharString>
        <CharString name="d.sups">
          -167 322 90 -72 -21 93 157 0 80 0 88 87 -20 hstemhm
          hintmask 01101100
          218 369 rmoveto
          4 -1 rlineto
          -32 5 27 -17 48 hhcurveto
          46 17 36 68 0 vvcurveto
          -12 19 rlineto
          0 -10 -4 -8 -8 -6 9 13 204 10 144 15 20 vhcurveto
          -9 15 rlineto
          0 -96 -16 -91 -9 vhcurveto
          -6 -63 rlineto
          0 11 1 4 28 6 -7 -33 vhcurveto
          -48 -17 vlineto
          -111 -66 -64 -108 hvcurveto
          hintmask 10010100
          -99 46 -56 82 7 26 17 30 39 vhcurveto
          -6 46 rmoveto
          0 -4 -3 -16 -25 -10 28 39 callsubr
        </CharString>
        <CharString name="dagger">
          -22 -71 -21 397 124 164 44 callgsubr
          -159 31 callsubr
          -387 10 -9 122 7 -1 390 rlineto
          155 hlineto
          11 113 -10 14 -154 -5 3 156 rlineto
          endchar
        </CharString>
        <CharString name="daggerdbl">
          -22 -71 -21 160 124 119 124 158 44 callgsubr
          -153 31 callsubr
          -120 -151 1 -11 -114 9 -10 rlineto
          153 -150 hlineto
          10 -9 122 7 -1 153 rlineto
          155 hlineto
          11 113 -10 14 -156 -5 rlineto
          121 155 vlineto
          11 113 -10 14 -154 -5 3 150 rlineto
          endchar
        </CharString>
        <CharString name="dcaron">
          21 -9 107 -77 -21 399 110 -81 81 -5 -20 267 -20 hstemhm
          hintmask 10010100
          272 -9 rmoveto
          180 109 -2 callgsubr
          hintmask 10001100
          0 -101 -5 -38 -34 -97 -45 callgsubr
          -8 -68 9 -12 rlineto
          hintmask 01010100
          -6 callsubr
          hintmask 10100100
          -23 callsubr
          177 345 -105 callsubr
        </CharString>
        <CharString name="dcroat">
          -70 callsubr
        </CharString>
        <CharString name="degree">
          -255 389 75 120 75 hstem
          16 524 rmoveto
          -75 60 -60 75 75 60 60 75 75 -60 60 -75 -75 -60 -60 -75 vhcurveto
          75 hmoveto
          35 24 25 36 35 25 -25 -35 -36 -25 -24 -35 -36 -24 24 36 vhcurveto
          endchar
        </CharString>
        <CharString name="dieresis">
          559 167 hstem
          292 559 -104 callsubr
          endchar
        </CharString>
        <CharString name="dieresis.cap">
          685 167 hstem
          292 685 -104 callsubr
          endchar
        </CharString>
        <CharString name="divide">
          -51 -17 171 23 146 21 171 hstem
          483 329 rmoveto
          -25 callgsubr
          9 -13 rlineto
          1 callsubr
          -245 -331 rmoveto
          22 callsubr
          361 vmoveto
          22 callsubr
          endchar
        </CharString>
        <CharString name="dollar">
          -83 -143 -21 559 116 147 -20 hstem
          126 -164 rmoveto
          114 13 18 146 rlineto
          126 14 74 57 89 vvcurveto
          89 -74 35 -66 25 vhcurveto
          -54 20 -50 13 30 vvcurveto
          17 19 11 27 34 22 -18 -33 vhcurveto
          -8 vlineto
          11 -7 104 7 rlineto
          7 70 16 66 0 vvcurveto
          -11 19 rlineto
          0 -49 15 -71 5 vhcurveto
          18 138 -6 9 -116 -14 -17 -137 rlineto
          -115 -19 -70 -60 -85 vvcurveto
          -83 63 -37 63 -26 vhcurveto
          59 -24 58 -14 -31 vvcurveto
          -14 -17 -9 -30 -42 -26 24 46 vhcurveto
          -113 -8 rlineto
          -3 -47 -16 -80 0 vvcurveto
          11 -15 rlineto
          0 44 -22 69 -8 vhcurveto
          -19 -153 rlineto
          endchar
        </CharString>
        <CharString name="dotaccent">
          543 199 hstem
          195 543 rmoveto
          11 callgsubr
        </CharString>
        <CharString name="dotaccent.cap">
          683 199 hstem
          195 683 rmoveto
          11 callgsubr
        </CharString>
        <CharString name="dotbelowcomb">
          -319 -232 36 callsubr
          -232 rmoveto
          11 callgsubr
        </CharString>
        <CharString name="dotlessi">
          -49 callsubr
          23 47 callsubr
          30 callsubr
          hintmask 01100000
          -91 callsubr
          hintmask 10010000
          48 callsubr
          hintmask 01010000
          -63 callsubr
          hintmask 10010000
          -75 callgsubr
          endchar
        </CharString>
        <CharString name="dotlessj">
          -260 -109 -21 560 74 6 -30 callgsubr
          68 -67 callgsubr
          hintmask 11000000
          -35 callgsubr
          endchar
        </CharString>
        <CharString name="e">
          -62 callsubr
          9 36 callgsubr
          251 146 rmoveto
          15 -1 20 1 16 vhcurveto
          1 15 23 3 24 hhcurveto
          37 60 -2 0 hvcurveto
          12 97 -11 13 rlineto
          0 -65 -4 -25 vhcurveto
          -65 hlineto
          4 77 rlineto
          15 5 4 20 60 15 -8 -32 -10 -2 -18 0 vhcurveto
          125 7 rlineto
          4 74 15 86 0 vvcurveto
          hintmask 10100010
          -12 13 rlineto
          hintmask 01100100
          -5 -46 -112 -4 -100 -42 callgsubr
          -6 vhcurveto
          -8 -78 rlineto
          hintmask 10110000
          0 94 8 89 135 133 -5 0 vhcurveto
          14 13 rlineto
          8 46 callsubr
          -115 -8 rlineto
          -67 -10 -15 -13 -63 hhcurveto
          -32 -4 7 40 hvcurveto
          endchar
        </CharString>
        <CharString name="e.sups">
          -204 319 93 50 191 -80 80 hstemhm
          hintmask 11000000
          318 462 rmoveto
          8 6 rlineto
          0 5 23 23 vvcurveto
          93 -44 46 -90 -110 -69 -65 -105 -106 61 -58 111 62 74 55 0 vhcurveto
          -16 54 -7 4 rlineto
          0 -37 -20 -44 -37 -20 12 38 -7 vhcurveto
          -4 54 rmoveto
          hintmask 10100000
          42 -1 7 15 26 hhcurveto
          16 8 -13 -29 -9 -1 -1 -6 -1 hvcurveto
          endchar
        </CharString>
        <CharString name="eacute">
          -62 callsubr
          227 -20 -99 callsubr
          hintmask 10110010
          0 94 8 89 135 133 -5 0 vhcurveto
          14 13 rlineto
          8 46 callsubr
          -115 -8 rlineto
          -67 -10 -15 -13 -63 hhcurveto
          -32 -4 7 40 hvcurveto
          207 472 -106 callgsubr
          endchar
        </CharString>
        <CharString name="ebreve">
          -62 callsubr
          42 37 callgsubr
          hintmask 10101011
          -104 callgsubr
          hintmask 01100111
          -77 callgsubr
          hintmask 10110011
          0 94 8 89 135 133 -5 0 vhcurveto
          14 13 rlineto
          8 46 callsubr
          -115 -8 rlineto
          -67 -10 -15 -13 -63 hhcurveto
          -32 -4 7 40 hvcurveto
          27 535 -99 callgsubr
          endchar
        </CharString>
        <CharString name="ecaron">
          -62 callsubr
          247 -20 -99 callsubr
          hintmask 10110010
          0 94 8 89 135 133 -5 0 vhcurveto
          14 13 rlineto
          8 46 callsubr
          -115 -8 rlineto
          -67 -10 -15 -13 -63 hhcurveto
          -32 -4 7 40 hvcurveto
          182 598 -105 callsubr
        </CharString>
        <CharString name="ecircumflex">
          -62 callsubr
          hstemhm
          hintmask 10101000
          -104 callgsubr
          hintmask 01100100
          -77 callgsubr
          hintmask 10110000
          0 94 8 89 135 133 -5 0 vhcurveto
          14 13 rlineto
          8 46 callsubr
          -115 -8 rlineto
          -67 -10 -15 -13 -63 hhcurveto
          -32 -4 7 40 hvcurveto
          -124 418 -102 callgsubr
          endchar
        </CharString>
        <CharString name="edieresis">
          -62 callsubr
          37 167 -99 callsubr
          hintmask 10110010
          0 94 8 89 135 133 -5 0 vhcurveto
          14 13 rlineto
          8 46 callsubr
          -115 -8 rlineto
          -67 -10 -15 -13 -63 hhcurveto
          -32 -4 7 40 hvcurveto
          122 395 -104 callsubr
          endchar
        </CharString>
        <CharString name="edotaccent">
          -62 callsubr
          35 199 -99 callsubr
          hintmask 10110010
          0 94 8 89 135 133 -5 0 vhcurveto
          14 13 rlineto
          8 46 callsubr
          -115 -8 rlineto
          -67 -10 -15 -13 -63 hhcurveto
          -32 -4 7 40 hvcurveto
          27 393 rmoveto
          11 callgsubr
        </CharString>
        <CharString name="egrave">
          -62 callsubr
          227 -20 -99 callsubr
          hintmask 10110010
          0 94 8 89 135 133 -5 0 vhcurveto
          14 13 rlineto
          8 46 callsubr
          -115 -8 rlineto
          -67 -10 -15 -13 -63 hhcurveto
          -32 -4 7 40 hvcurveto
          -140 456 -95 callgsubr
          endchar
        </CharString>
        <CharString name="eight">
          -62 callgsubr
        </CharString>
        <CharString name="eight.dnom">
          -211 -8 40 callgsubr
          93 -89 callgsubr
        </CharString>
        <CharString name="eight.lf">
          -62 callgsubr
        </CharString>
        <CharString name="eight.numr">
          -211 246 40 callgsubr
          347 -89 callgsubr
        </CharString>
        <CharString name="eight.sinf">
          -211 -128 40 callgsubr
          -27 -89 callgsubr
        </CharString>
        <CharString name="eight.sups">
          -211 319 40 callgsubr
          420 -89 callgsubr
        </CharString>
        <CharString name="eight.tf">
          -97 -12 108 387 116 hstem
          16 137 rmoveto
          -86 83 -63 116 128 95 83 112 73 -38 42 -46 29 vhcurveto
          38 21 40 38 66 vvcurveto
          82 -84 65 -105 -124 -96 -77 -100 -74 37 -47 46 -35 vhcurveto
          -43 -19 -47 -38 -72 vvcurveto
          207 -41 rmoveto
          -35 -25 28 41 24 6 18 11 15 hvcurveto
          50 -27 43 -20 -32 vvcurveto
          -30 -17 -17 -33 vhcurveto
          -34 345 rmoveto
          25 17 17 28 30 19 -21 -35 -24 -7 -18 -9 -15 vhcurveto
          -43 20 -35 18 33 vvcurveto
          endchar
        </CharString>
        <CharString name="eight.tosf">
          -107 -12 108 387 116 hstem
          13 137 rmoveto
          -86 82 -63 115 127 94 83 112 73 -38 42 -44 29 vhcurveto
          37 21 39 38 66 vvcurveto
          82 -83 65 -104 -123 -95 -77 -100 -74 36 -47 45 -35 vhcurveto
          -43 -19 -45 -38 -72 vvcurveto
          205 -41 rmoveto
          -34 -24 28 41 24 5 18 10 15 hvcurveto
          49 -27 42 -20 -32 vvcurveto
          -30 -17 -17 -31 vhcurveto
          -32 345 rmoveto
          25 16 17 27 30 18 -21 -35 -24 -7 -18 -8 -15 vhcurveto
          -43 20 -33 18 33 vvcurveto
          endchar
        </CharString>
        <CharString name="ellipsis">
          141 -9 199 hstem
          345 -41 callsubr
          230 hmoveto
          -96 callgsubr
          -460 hmoveto
          11 callgsubr
        </CharString>
        <CharString name="emacron">
          -62 callsubr
          47 122 6 -20 -99 callsubr
          hintmask 10110001
          0 94 8 89 135 133 -5 0 vhcurveto
          14 13 rlineto
          8 46 callsubr
          -115 -8 rlineto
          -67 -10 -15 -13 -63 hhcurveto
          -32 -4 7 40 hvcurveto
          175 533 rmoveto
          hintmask 10110010
          -84 callgsubr
          endchar
        </CharString>
        <CharString name="emdash">
          273 199 123 -103 -21 126 -11 callgsubr
          833 324 rmoveto
          hintmask 10000000
          -3 -31 -263 1 -133 hhcurveto
          -407 hlineto
          -11 -105 rlineto
          hintmask 01100000
          11 -19 rlineto
          hintmask 10000000
          277 275 1 278 hhcurveto
          14 106 rlineto
          endchar
        </CharString>
        <CharString name="endash">
          -109 199 123 -103 -21 126 -11 callgsubr
          451 324 -20 callgsubr
        </CharString>
        <CharString name="eng">
          68 -115 -21 136 70 434 -20 24 42 callsubr
          149 504 rmoveto
          hintmask 11010000
          -48 -79 4 0 hvcurveto
          -5 -65 10 -13 rlineto
          53 -5 9 -10 -33 vvcurveto
          -10 -268 -1 -30 -14 -14 -32 -4 rlinecurve
          -9 -72 rlineto
          0 70 6 34 69 88 25 callsubr
          69 -7 6 rlineto
          0 -18 -2 -10 -24 -8 10 30 -1 vhcurveto
          -2 122 rlineto
          12 hlineto
          0 72 -100 87 -133 vhcurveto
          -9 -31 -18 -22 -38 -32 -2 -13 rcurveline
          34 -37 140 35 59 62 3 105 rlinecurve
          9 318 1 32 11 13 36 4 rlinecurve
          4 74 50 callsubr
          -75 -2 -39 -1 vhcurveto
          -24 -119 3 0 hvcurveto
          -4 -66 4 -9 rlineto
          0 21 1 4 20 8 -7 -26 vhcurveto
          3 -128 rlineto
          -12 hlineto
          0 -82 113 -73 122 vhcurveto
          0 -59 -3 -47 vhcurveto
          endchar
        </CharString>
        <CharString name="eogonek">
          -41 -242 85 157 99 -82 -21 205 104 31 168 -103 103 -75 75 9 -20 hstemhm
          hintmask 10111000
          491 -55 callsubr
          24 12 26 47 62 vhcurveto
          11 10 -1 0 hvcurveto
          14 13 rlineto
          8 46 callsubr
          -115 -8 rlineto
          hintmask 11010100
          -67 -10 -15 -13 -63 hhcurveto
          -32 -4 7 40 15 -1 20 1 16 hvcurveto
          1 15 23 3 24 hhcurveto
          37 60 -2 0 hvcurveto
          12 97 -11 13 rlineto
          0 -65 -4 -25 vhcurveto
          -65 hlineto
          4 77 rlineto
          15 5 4 20 60 15 -8 -32 -10 -2 -18 0 vhcurveto
          125 7 rlineto
          4 74 15 86 0 vvcurveto
          hintmask 11010001
          -12 13 rlineto
          hintmask 11010010
          -5 -46 -112 -4 -100 -42 callgsubr
          -6 vhcurveto
          -8 -78 rlineto
          0 94 8 89 64 60 -1 -1 49 vhcurveto
          -64 -69 -22 -39 callgsubr
          endchar
        </CharString>
        <CharString name="equal">
          -51 77 146 -126 -21 201 146 6 -30 callgsubr
          483 229 rmoveto
          -25 callgsubr
          rlineto
          hintmask 01100000
          9 -13 rlineto
          hintmask 10010000
          1 callsubr
          -7 215 rmoveto
          hintmask 10100000
          -25 callgsubr
          9 -13 rlineto
          1 callsubr
          endchar
        </CharString>
        <CharString name="estimated">
          240 9 -21 663 -20 hstem
          180 311 rmoveto
          597 8 hlineto
          184 -165 148 -203 -203 -166 -148 -184 -183 166 -148 203 118 107 51 78 67 vhcurveto
          -54 hlineto
          -67 -57 -85 -42 -95 hhcurveto
          -89 -81 37 60 -56 hvcurveto
          -5 6 -4 7 8 vvcurveto
          181 vlineto
          3 2 1 3 vhcurveto
          463 205 rmoveto
          -182 vlineto
          -3 -2 -2 -3 vhcurveto
          -458 hlineto
          -3 -2 2 3 hvcurveto
          178 vlineto
          9 4 8 6 6 vhcurveto
          59 57 79 37 89 hhcurveto
          87 79 -36 -57 57 hvcurveto
          6 -6 4 -7 -9 vvcurveto
          endchar
        </CharString>
        <CharString name="eth">
          -70 callsubr
        </CharString>
        <CharString name="exclam">
          -273 -9 199 527 -20 hstem
          132 -41 callsubr
          -54 274 rmoveto
          21 -20 103 16 73 430 -25 26 -188 -26 -18 -24 rlineto
          endchar
        </CharString>
        <CharString name="exclamdown">
          -273 -221 -21 527 199 hstem
          152 484 18 callgsubr
          54 -274 rmoveto
          -21 20 -103 -16 -73 -430 25 -26 188 26 18 24 rlineto
          endchar
        </CharString>
        <CharString name="f">
          -79 0 99 -85 -21 195 12 callsubr
          hintmask 10101000
          -64 callgsubr
          hintmask 10100010
          -11 13 rlineto
          hintmask 01100100
          -5 -41 -101 -4 -92 -42 callgsubr
          -5 -11 callsubr
          hintmask 10110000
          -31 callgsubr
          endchar
        </CharString>
        <CharString name="f.sups">
          -290 327 66 -51 -21 247 61 105 90 hstemhm
          hintmask 01110000
          14 569 rmoveto
          36 -2 9 -4 1 -21 rrcurveto
          -122 vlineto
          -25 -9 -8 -28 -3 vhcurveto
          -6 -63 rlineto
          hintmask 10110000
          0 71 6 40 33 86 -25 callsubr
          8 68 -3 3 rlineto
          0 -27 -1 -16 -14 -6 8 15 vhcurveto
          152 vlineto
          49 27 -2 0 hvcurveto
          8 60 -4 5 rlineto
          0 -29 -2 -50 vhcurveto
          28 vlineto
          64 8 13 42 37 26 -27 0 vhcurveto
          10 3 rlineto
          14 43 13 39 0 vvcurveto
          -5 16 rlineto
          0 -32 16 -49 -117 -77 -72 -113 vhcurveto
          -10 vlineto
          -43 -6 -6 -50 rlineto
          endchar
        </CharString>
        <CharString name="fi">
          243 0 74 -74 99 -85 -21 195 12 callsubr
          hintmask 10010100
          -64 callgsubr
          hintmask 10010001
          -11 13 rlineto
          hintmask 00110010
          -5 -41 -101 -4 -92 -42 callgsubr
          -5 -11 callsubr
          hintmask 01011000
          -31 callgsubr
          486 246 -59 callsubr
          0 -114 -3 -35 vhcurveto
          -138 hlineto
          -7 -63 rlineto
          hintmask 10010010
          8 -12 rlineto
          20 -6 callgsubr
          -7 -32 hvcurveto
          -258 vlineto
          -43 -8 -11 -44 -9 -19 callsubr
          0 90 3 53 35 108 -3 0 vhcurveto
          7 70 -7 9 rlineto
          -75 callgsubr
          endchar
        </CharString>
        <CharString name="five">
          -134 -95 6 callgsubr
          404 133 rmoveto
          90 -65 46 -169 29 vhcurveto
          8 50 rlineto
          100 79 22 callgsubr
          -198 -6 -8 34 callsubr
          123 -12 44 -18 -39 vvcurveto
          -33 -47 -23 -65 -33 -32 5 13 -27 49 callgsubr
          165 156 111 117 hvcurveto
          endchar
        </CharString>
        <CharString name="five.dnom">
          -235 -8 5 callsubr
          132 -85 callsubr
        </CharString>
        <CharString name="five.lf">
          -121 -12 6 callgsubr
          411 198 rmoveto
          100 -64 51 -167 30 vhcurveto
          4 52 rlineto
          100 89 22 callgsubr
          -208 -6 -8 -8 rlineto
          0 -6 -154 -13 -147 vhcurveto
          9 -11 rlineto
          118 -13 46 -17 -36 vvcurveto
          -34 -38 -23 -61 -37 -30 6 12 -25 49 callgsubr
          158 150 102 108 hvcurveto
          endchar
        </CharString>
        <CharString name="five.numr">
          -235 246 5 callsubr
          386 -85 callsubr
        </CharString>
        <CharString name="five.sinf">
          -235 -128 5 callsubr
          12 -85 callsubr
        </CharString>
        <CharString name="five.sups">
          -235 319 5 callsubr
          459 -85 callsubr
        </CharString>
        <CharString name="five.tf">
          -97 -12 6 callgsubr
          428 198 rmoveto
          100 -68 51 -173 30 vhcurveto
          4 52 rlineto
          105 94 -8 0 hvcurveto
          18 19 30 179 -79 -5 -10 -30 -16 -9 -39 -1 rlinecurve
          -215 -6 -8 -8 rlineto
          0 -6 -154 -14 -147 vhcurveto
          10 -11 rlineto
          124 -13 49 -17 -36 vvcurveto
          -34 -42 -23 -65 -38 -31 6 12 -26 vhcurveto
          -22 -23 rlineto
          -99 7 26 -35 68 hhcurveto
          161 156 102 108 hvcurveto
          endchar
        </CharString>
        <CharString name="five.tosf">
          -107 -95 6 callgsubr
          422 133 rmoveto
          90 -70 46 -173 29 vhcurveto
          8 50 rlineto
          105 83 -8 0 hvcurveto
          19 19 30 179 -79 -5 -10 -30 -16 -9 -39 -1 rlinecurve
          -205 -6 -9 34 callsubr
          130 -12 46 -18 -39 vvcurveto
          -33 -51 -23 -70 -34 -33 5 13 -28 vhcurveto
          -21 -23 rlineto
          -99 7 25 -35 68 hhcurveto
          168 163 111 117 hvcurveto
          endchar
        </CharString>
        <CharString name="fl">
          403 0 99 -86 -21 196 12 callsubr
          hintmask 10101000
          -64 callgsubr
          hintmask 10100010
          -11 13 rlineto
          hintmask 10100100
          -5 -41 -101 -4 -92 -42 callgsubr
          -5 -11 callsubr
          -31 callgsubr
          422 -145 rmoveto
          -87 callsubr
          -72 callsubr
          hintmask 01110000
          -8 -78 rlineto
          hintmask 10110000
          0 95 8 88 vhcurveto
          endchar
        </CharString>
        <CharString name="florin">
          -104 -164 106 350 77 121 -10 callgsubr
          75 69 47 72 41 vhcurveto
          24 41 14 50 3 53 9 193 rcurveline
          114 hlineto
          10 69 -5 8 rlineto
          -114 hlineto
          4 43 rlineto
          56 4 15 22 39 10 callsubr
          -93 -100 -59 -72 -48 vhcurveto
          -18 -27 -10 -28 -28 vvcurveto
          -14 vlineto
          -83 -13 -8 -59 3 -6 rlineto
          65 18 -9 -32 2 hvcurveto
          -68 1 -69 -68 vvcurveto
          endchar
        </CharString>
        <CharString name="foundryicon">
          226 -59 152 52 157 42 180 -87 87 hstemhm
          hintmask 11100000
          328 344 rmoveto
          45 33 -31 -42 hvcurveto
          -178 -74 136 vlineto
          38 -14 18 -29 -18 -6 -3 -9 vhcurveto
          -180 -74 vlineto
          hintmask 11010000
          344 74 -116 vlineto
          -6 2 -3 4 3 3 2 2 3 vhcurveto
          hintmask 11100000
          155 4 rmoveto
          89 56 rlineto
          21 -28 hlineto
          -6 4 -4 6 vhcurveto
          58 -36 -58 hlineto
          -7 -3 -4 -6 hvcurveto
          -90 vlineto
          -40 12 -17 29 8 9 1 3 9 vhcurveto
          -25 vlineto
          -63 -37 rlineto
          -45 -33 31 42 hvcurveto
          132 vlineto
          7 -3 3 -7 vhcurveto
          -26 hlineto
          -255 -361 rmoveto
          423 hlineto
          52 28 28 52 hvcurveto
          423 vlineto
          52 -28 28 -52 vhcurveto
          -423 hlineto
          -52 -28 -28 -52 hvcurveto
          -423 vlineto
          -52 28 -28 52 vhcurveto
          endchar
        </CharString>
        <CharString name="four">
          -67 -74 -21 147 121 340 -20 22 2 callgsubr
          55 vmoveto
          66 86 -1 -2 80 hvcurveto
          -2 -66 -4 -69 -16 callsubr
          56 -2 63 vhcurveto
          41 -1 27 6 callsubr
          -69 330 hlineto
          -140 4 callsubr
          -254 -358 41 callgsubr
          222 245 rmoveto
          11 -127 -97 hlineto
          endchar
        </CharString>
        <CharString name="four.dnom">
          -192 13 35 callgsubr
          85 rmoveto
          155 -2 rlineto
          -1 -43 -3 -40 0 vvcurveto
          7 -8 121 8 9 8 rlineto
          0 -3 32 -1 39 vhcurveto
          44 -1 8 81 -8 10 rlineto
          -45 223 hlineto
          -106 9 -7 -2 -169 -242 rlineto
          147 93 rmoveto
          8 -81 -59 hlineto
          endchar
        </CharString>
        <CharString name="four.lf">
          -63 9 -21 142 121 345 -20 22 2 callgsubr
          -2 133 rmoveto
          65 83 -1 -2 79 hvcurveto
          -2 -65 -4 -65 -16 callsubr
          53 -2 61 vhcurveto
          41 -1 27 6 callsubr
          -69 335 hlineto
          -140 4 callsubr
          -249 -363 41 callgsubr
          217 250 rmoveto
          11 -132 -95 hlineto
          endchar
        </CharString>
        <CharString name="four.numr">
          -192 267 -21 92 85 81 -20 171 -20 hstem
          8 339 rmoveto
          155 -2 rlineto
          -1 -43 -3 -40 0 vvcurveto
          7 -8 121 8 9 8 rlineto
          0 -3 32 -1 39 vhcurveto
          44 -1 8 81 -8 10 rlineto
          -45 223 hlineto
          -106 9 -7 -2 -169 -242 rlineto
          147 93 rmoveto
          8 -81 -59 hlineto
          endchar
        </CharString>
        <CharString name="four.sinf">
          -192 -107 35 callgsubr
          -35 rmoveto
          155 -2 rlineto
          -1 -43 -3 -40 0 vvcurveto
          7 -8 121 8 9 8 rlineto
          0 -3 32 -1 39 vhcurveto
          44 -1 8 81 -8 10 rlineto
          -45 223 hlineto
          -106 9 -7 -2 -169 -242 rlineto
          147 93 rmoveto
          8 -81 -59 hlineto
          endchar
        </CharString>
        <CharString name="four.sups">
          -192 340 35 callgsubr
          412 rmoveto
          155 -2 rlineto
          -1 -43 -3 -40 0 vvcurveto
          7 -8 121 8 9 8 rlineto
          0 -3 32 -1 39 vhcurveto
          44 -1 8 81 -8 10 rlineto
          -45 223 hlineto
          -106 9 -7 -2 -169 -242 rlineto
          147 93 rmoveto
          8 -81 -59 hlineto
          endchar
        </CharString>
        <CharString name="four.tf">
          -97 9 -21 142 121 345 -20 22 2 callgsubr
          -9 133 rmoveto
          61 78 -1 -2 75 hvcurveto
          -2 -65 -4 -65 -16 callsubr
          53 -2 61 vhcurveto
          38 -1 24 6 callsubr
          -63 335 hlineto
          -142 4 callsubr
          -234 -363 41 callgsubr
          204 250 rmoveto
          11 -132 -83 hlineto
          endchar
        </CharString>
        <CharString name="four.tosf">
          -107 -74 -21 147 121 340 -20 22 2 callgsubr
          -9 55 rmoveto
          61 81 -1 -2 76 hvcurveto
          -2 -66 -4 -69 -16 callsubr
          56 -2 63 vhcurveto
          38 -1 24 6 callsubr
          -63 330 hlineto
          -142 4 callsubr
          -238 -358 41 callgsubr
          208 245 rmoveto
          11 -127 -85 hlineto
          endchar
        </CharString>
        <CharString name="fraction">
          -370 -70 -21 770 -20 hstem
          349 647 -81 callsubr
          endchar
        </CharString>
        <CharString name="franc">
          -60 -1 90 -75 -21 28 -21 125 64 29 96 115 75 9 -20 hstemhm
          hintmask 10011010
          268 125 rmoveto
          110 hlineto
          3 60 -5 6 rlineto
          0 -53 -2 -53 vhcurveto
          1 25 rlineto
          1 21 20 3 21 hhcurveto
          36 61 -2 0 hvcurveto
          9 90 -11 12 rlineto
          0 -63 -4 -24 vhcurveto
          -22 -22 1 -22 hhcurveto
          3 67 rlineto
          15 1 5 4 19 hhcurveto
          44 14 -8 -22 -9 -2 -18 0 hvcurveto
          125 7 rlineto
          3 67 11 82 0 vvcurveto
          -12 13 rlineto
          hintmask 01011100
          -5 -49 -105 -4 -82 hhcurveto
          -57 hlineto
          -71 1 -75 1 0 vvcurveto
          -8 -66 11 -12 rlineto
          0 12 1 9 17 4 -8 -34 vhcurveto
          -1 -198 rlineto
          -58 hlineto
          -8 -59 6 -5 rlineto
          59 hlineto
          -4 -38 -10 -13 -37 -4 -8 -77 rcurveline
          hintmask 10011100
          0 45 4 61 2 vhcurveto
          hintmask 00111100
          1 20 23 0 23 hhcurveto
          38 109 -2 0 hvcurveto
          11 82 -15 16 rlineto
          hintmask 10011100
          0 -17 -7 -26 -26 -8 7 29 -1 vhcurveto
          endchar
        </CharString>
        <CharString name="g">
          -21 callsubr
          hstem
          -98 callsubr
          endchar
        </CharString>
        <CharString name="g.sups">
          -177 165 75 170 66 106 73 -6 -20 46 -20 hstemhm
          hintmask 11011000
          184 410 rmoveto
          100 66 47 73 24 -8 21 -19 18 hvcurveto
          3 5 rlineto
          21 -1 18 2 0 vvcurveto
          10 72 -6 4 rlineto
          0 -67 -24 -33 -2 vhcurveto
          -25 -18 6 -32 hhcurveto
          -102 -63 -48 -79 -43 19 -32 35 -20 hvcurveto
          -8 vlineto
          0 -38 -27 -20 -22 vhcurveto
          -38 25 -26 43 -7 vhcurveto
          -5 vlineto
          0 -54 -23 -16 -10 vhcurveto
          -60 61 -42 88 103 97 64 68 vhcurveto
          133 -239 -73 43 vvcurveto
          5 3 5 1 3 vhcurveto
          -2 14 16 -1 17 hhcurveto
          7 66 rmoveto
          -21 1 -7 14 35 vvcurveto
          hintmask 11100000
          39 7 17 16 24 8 -15 -36 -39 -8 -16 -19 vhcurveto
          5 -236 rmoveto
          -24 -18 11 16 13 2 11 0 hvcurveto
          86 -12 4 -1 -14 vvcurveto
          -14 -21 -10 -29 vhcurveto
          endchar
        </CharString>
        <CharString name="gbreve">
          -21 callsubr
          38 51 callgsubr
          hstem
          -98 callsubr
          -236 450 -99 callgsubr
          endchar
        </CharString>
        <CharString name="gcircumflex">
          -21 callsubr
          277 -20 hstem
          -98 callsubr
          -364 336 -95 callsubr
        </CharString>
        <CharString name="gcommaaccent">
          -15 -324 -21 311 224 -198 121 77 92 0 114 0 117 hstemhm
          hintmask 10110100
          -98 callsubr
          -333 -328 rmoveto
          17 -19 12 -30 -27 vvcurveto
          -36 -25 -42 -39 -28 vhcurveto
          -25 vlineto
          58 -46 rlineto
          103 59 64 81 70 vvcurveto
          hintmask 11001000
          61 -34 40 -51 -28 -38 -16 -28 -36 vhcurveto
          endchar
        </CharString>
        <CharString name="gdotaccent">
          -21 callsubr
          26 199 hstem
          -98 callsubr
          -237 303 rmoveto
          11 callgsubr
        </CharString>
        <CharString name="germandbls">
          391 -7 callgsubr
          hstem
          192 -9 rmoveto
          -103 callgsubr
          474 hmoveto
          -103 callgsubr
          endchar
        </CharString>
        <CharString name="grave">
          546 -21 235 -20 hstem
          60 642 rmoveto
          0 108 -56 103 -61 vhcurveto
          22 7 41 61 rlineto
          -94 81 -93 86 0 vvcurveto
          -17 hlineto
          -72 -101 rlineto
          endchar
        </CharString>
        <CharString name="grave.cap">
          712 -21 184 -20 hstem
          35 746 -95 callgsubr
          endchar
        </CharString>
        <CharString name="greater">
          -126 63 -21 457 -20 hstem
          398 357 rmoveto
          0 -113 50 -66 29 vhcurveto
          -37 callgsubr
          endchar
        </CharString>
        <CharString name="greaterequal">
          -87 -124 124 -123 -20 642 -30 callgsubr
          417 357 rmoveto
          -149 66 -30 13 rlineto
          -37 callgsubr
          -3 -340 -14 callsubr
        </CharString>
        <CharString name="guillemotleft">
          -81 40 callsubr
          372 422 -52 callsubr
          -268 35 -52 callsubr
          endchar
        </CharString>
        <CharString name="guillemotright">
          -81 40 callsubr
          310 42 -53 callsubr
          -144 -35 -53 callsubr
          endchar
        </CharString>
        <CharString name="guilsinglleft">
          -287 40 callsubr
          166 422 -52 callsubr
          endchar
        </CharString>
        <CharString name="guilsinglright">
          -287 40 callsubr
          104 42 -53 callsubr
          endchar
        </CharString>
        <CharString name="h">
          68 0 74 127 105 123 75 3 2 callgsubr
          31 callgsubr
          hintmask 11100000
          -28 callsubr
          hintmask 11010000
          6 76 50 callsubr
          -124 -3 -51 vhcurveto
          -109 hlineto
          -7 -63 8 -12 rlineto
          21 -6 callgsubr
          -7 -32 hvcurveto
          -258 vlineto
          -75 callsubr
          106 3 105 5 53 vhcurveto
          endchar
        </CharString>
        <CharString name="h.sups">
          -153 327 60 -43 -21 226 104 87 -20 104 -20 hstemhm
          hintmask 01111000
          10 323 rmoveto
          hintmask 10111000
          0 48 4 41 32 60 -24 callgsubr
          7 59 -2 5 rlineto
          0 -4 -1 -4 -11 -3 5 14 vhcurveto
          128 vlineto
          7 10 11 8 9 1 callgsubr
          -16 -2 rlinecurve
          -5 -62 rlineto
          0 61 1 8 callgsubr
          15 101 30 vvcurveto
          57 -40 30 -77 -13 -33 -34 -31 -29 vhcurveto
          3 135 8 72 12 3 callsubr
          -280 vlineto
          -24 -6 -8 -22 -3 vhcurveto
          endchar
        </CharString>
        <CharString name="hbar">
          68 0 74 127 105 32 54 37 75 3 -20 hstemhm
          hintmask 11101000
          341 392 rmoveto
          -82 4 hlineto
          1 23 7 6 34 6 6 76 rcurveline
          hintmask 11110000
          0 -124 -3 -51 vhcurveto
          -109 hlineto
          -7 -63 8 -12 rlineto
          21 hlineto
          22 6 -7 -30 1 hvcurveto
          -42 -28 1 0 hvcurveto
          -6 -48 9 -8 rlineto
          67 -205 hlineto
          -75 callsubr
          77 1 78 3 56 vhcurveto
          69 1 4 45 -12 12 rlineto
          0 -23 -1 -34 -1 vhcurveto
          2 27 9 6 38 6 rrcurveto
          hintmask 11101000
          6 74 rlineto
          hintmask 11110000
          0 -117 -3 -35 vhcurveto
          -140 hlineto
          -7 -63 8 -12 rlineto
          22 hlineto
          22 6 -8 -29 1 hvcurveto
          -59 -54 rmoveto
          59 -31 hlineto
          -1 -12 -14 -1 -37 hhcurveto
          -61 3 1 30 rlineto
          endchar
        </CharString>
        <CharString name="hcircumflex">
          68 0 74 127 105 123 75 312 -20 hstem
          31 callgsubr
          -28 callsubr
          6 76 rlineto
          0 -124 -3 -51 vhcurveto
          -109 hlineto
          -7 -63 8 -12 rlineto
          21 -6 callgsubr
          -7 -32 hvcurveto
          -258 vlineto
          -75 callsubr
          106 3 105 5 53 vhcurveto
          -385 207 -95 callsubr
        </CharString>
        <CharString name="hungarumlaut">
          549 -21 226 -20 hstem
          227 691 3 callgsubr
          160 14 3 callgsubr
          endchar
        </CharString>
        <CharString name="hungarumlaut.cap">
          695 -21 206 -20 hstem
          249 799 -81 callgsubr
        </CharString>
        <CharString name="hyphen">
          -233 197 -21 152 -20 hstem
          279 328 rmoveto
          0 -19 -4 -64 -7 vhcurveto
          -153 -17 -10 -106 13 -18 232 26 13 108 rlineto
          endchar
        </CharString>
        <CharString name="i">
          -49 callsubr
          23 47 callsubr
          30 callsubr
          hintmask 01100000
          -91 callsubr
          hintmask 10010000
          48 callsubr
          hintmask 01010000
          -63 callsubr
          hintmask 10010000
          -75 callgsubr
          endchar
        </CharString>
        <CharString name="i.sups">
          -325 327 60 -46 -21 365 142 hstemhm
          hintmask 01100000
          127 685 rmoveto
          45 38 callsubr
          24 -24 45 hvcurveto
          -115 -365 rmoveto
          hintmask 10100000
          0 61 7 42 33 64 -24 callgsubr
          9 61 -2 3 rlineto
          0 -9 -1 -6 -13 -3 4 14 139 5 73 11 20 vhcurveto
          -9 16 rlineto
          0 -91 -16 -87 -9 vhcurveto
          -6 -60 rlineto
          0 11 2 4 28 6 -7 -33 vhcurveto
          -107 vlineto
          -25 -13 -12 -26 -2 vhcurveto
          endchar
        </CharString>
        <CharString name="iacute">
          -49 callsubr
          247 -20 -82 callsubr
          hintmask 10110000
          -75 callgsubr
          82 227 -106 callgsubr
          endchar
        </CharString>
        <CharString name="ibreve">
          -49 callsubr
          82 37 callgsubr
          hintmask 01111000
          259 391 -93 callgsubr
          hintmask 10111000
          48 callsubr
          hintmask 01111000
          -63 callsubr
          hintmask 10111000
          -75 callgsubr
          -96 310 -99 callgsubr
          endchar
        </CharString>
        <CharString name="icircumflex">
          -49 callsubr
          hstemhm
          hintmask 01100000
          259 391 -93 callgsubr
          hintmask 10100000
          48 callsubr
          hintmask 01100000
          -63 callsubr
          hintmask 10100000
          -75 callgsubr
          -249 173 -102 callgsubr
          endchar
        </CharString>
        <CharString name="idieresis">
          -49 callsubr
          57 167 -82 callsubr
          hintmask 10110000
          -75 callgsubr
          -3 150 -104 callsubr
          endchar
        </CharString>
        <CharString name="idotaccent">
          -49 callsubr
          55 199 -82 callsubr
          hintmask 10110000
          -75 callgsubr
          -98 148 rmoveto
          11 callgsubr
        </CharString>
        <CharString name="igrave">
          -49 callsubr
          247 -20 -82 callsubr
          hintmask 10110000
          -75 callgsubr
          -264 211 -95 callgsubr
          endchar
        </CharString>
        <CharString name="ij">
          48 -109 -21 130 74 356 74 6 2 callgsubr
          376 -67 callgsubr
          hintmask 11100000
          -35 callgsubr
          -117 1 -93 callgsubr
          0 90 3 53 35 108 -3 0 vhcurveto
          7 70 -7 9 rlineto
          -75 callgsubr
          endchar
        </CharString>
        <CharString name="imacron">
          -49 callsubr
          67 122 6 -20 -82 callsubr
          hintmask 10101000
          -75 callgsubr
          50 288 rmoveto
          hintmask 10110000
          -84 callgsubr
          endchar
        </CharString>
        <CharString name="infinity">
          -33 76 126 -111 -21 212 147 -125 125 -19 callgsubr
          154 423 rmoveto
          -83 -65 -81 -106 -89 54 -71 69 56 30 33 34 18 hvcurveto
          hintmask 01100000
          -40 25 35 -33 62 hhcurveto
          93 70 81 109 98 -53 71 -72 -61 -31 -41 -36 -17 hvcurveto
          39 -29 -39 32 -62 hhcurveto
          hintmask 10100000
          -4 -221 rmoveto
          -29 -16 15 27 25 12 13 21 26 15 -29 -36 17 hvcurveto
          -8 -13 -15 -7 -18 hhcurveto
          hintmask 10010000
          220 102 rmoveto
          34 22 -20 -31 -29 -13 -14 -25 -26 -17 35 42 -22 hvcurveto
          9 12 16 8 19 hhcurveto
          endchar
        </CharString>
        <CharString name="integral">
          -104 -164 106 548 -10 callgsubr
          118 101 117 146 7 vhcurveto
          17 313 rlineto
          56 4 16 22 38 10 callsubr
          -128 -141 -112 -102 vhcurveto
          endchar
        </CharString>
        <CharString name="iogonek">
          -235 -242 85 157 74 430 -20 23 2 callgsubr
          301 -55 callsubr
          24 13 26 48 65 vhcurveto
          24 -1 22 -1 0 vvcurveto
          7 70 -7 9 rlineto
          -75 callgsubr
          3 29 6 6 37 5 6 76 rcurveline
          hintmask 11100000
          -91 callsubr
          48 callsubr
          23 hlineto
          -66 -70 -22 -41 -42 33 callgsubr
        </CharString>
        <CharString name="itilde">
          -49 callsubr
          96 -54 callgsubr
          hintmask 01110010
          259 391 -93 callgsubr
          hintmask 10110010
          48 callsubr
          hintmask 01110010
          -63 callsubr
          hintmask 10101010
          -75 callgsubr
          -220 165 -33 callsubr
          hintmask 10110010
          -86 callgsubr
          hintmask 10100110
          -74 callgsubr
          endchar
        </CharString>
        <CharString name="j">
          -260 -109 -21 560 74 6 -30 callgsubr
          68 -67 callgsubr
          hintmask 11000000
          -35 callgsubr
          endchar
        </CharString>
        <CharString name="j.sups">
          -325 181 -21 525 142 hstem
          42 160 rmoveto
          87 34 57 62 62 vvcurveto
          184 6 106 13 29 vhcurveto
          -10 16 rlineto
          0 -100 -16 -75 -11 vhcurveto
          -6 -58 rlineto
          0 11 2 12 16 6 -10 -30 vhcurveto
          -181 vlineto
          -78 -11 -32 -39 -37 vhcurveto
          -2 -11 rlineto
          118 494 rmoveto
          46 38 callsubr
          23 -24 45 hvcurveto
          endchar
        </CharString>
        <CharString name="jcircumflex">
          -260 -109 -21 560 74 286 -20 hstem
          68 -67 callgsubr
          -35 callgsubr
          -52 182 -95 callsubr
        </CharString>
        <CharString name="k">
          -79 callsubr
        </CharString>
        <CharString name="k.sups">
          336 -21 275 -20 170 39 callgsubr
          30 62 -25 callsubr
          9 58 -2 5 rlineto
          -10 -36 callsubr
          -21 -7 -7 -21 -3 vhcurveto
          209 -15 rmoveto
          19 -40 17 -13 36 -2 6 1 16 2 17 1 rrcurveto
          26 2 23 2 0 vvcurveto
          7 54 -5 8 -24 5 -17 14 -10 23 rlinecurve
          -39 82 26 26 27 28 35 19 rlinecurve
          7 61 -2 4 rlineto
          0 -47 -2 -39 -48 -55 1 0 vhcurveto
          -7 -53 2 -3 rlineto
          25 9 -3 -10 -7 -3 -5 -8 -9 hvcurveto
          -43 -50 -3 -23 rlineto
          endchar
        </CharString>
        <CharString name="kcommaaccent">
          39 24 callsubr
          74 430 -20 24 42 callsubr
          74 132 rmoveto
          -44 -10 -11 -43 -10 vhcurveto
          -6 -71 rlineto
          0 89 4 54 35 109 26 callsubr
          -8 -2 -17 -21 -5 10 43 vhcurveto
          6 261 1 27 7 6 41 10 rlinecurve
          6 76 rlineto
          0 -114 -3 -36 -13 -125 1 0 vhcurveto
          -8 -64 8 -12 rlineto
          21 -6 callgsubr
          -7 -32 hvcurveto
          183 -143 rmoveto
          99 -197 rlineto
          -49 25 21 -14 45 hhcurveto
          22 113 9 0 hvcurveto
          9 63 -9 13 -34 6 -21 20 -23 45 rlinecurve
          -69 136 21 30 43 59 41 40 42 24 rlinecurve
          8 63 rlineto
          hintmask 11010000
          -9 13 50 callsubr
          -95 -4 -30 -39 -83 -45 callgsubr
          -8 -69 6 -9 rlineto
          24 -1 7 -6 -18 vvcurveto
          -12 -6 -14 -10 -9 vhcurveto
          -86 -96 rlineto
          -33 -364 -105 callgsubr
          endchar
        </CharString>
        <CharString name="kgreenlandic">
          -79 callsubr
        </CharString>
        <CharString name="l">
          -75 9 callgsubr
          195 hmoveto
          -87 callsubr
          hintmask 01100000
          -72 callsubr
          -8 -78 rlineto
          hintmask 10010000
          0 95 8 88 vhcurveto
          endchar
        </CharString>
        <CharString name="l.sups">
          -335 345 -21 416 39 callgsubr
          32 72 -24 callgsubr
          9 57 -2 5 rlineto
          -22 -36 callsubr
          -22 -7 -6 -21 -2 vhcurveto
          endchar
        </CharString>
        <CharString name="lacute">
          -75 0 99 -86 -21 512 -20 247 47 callgsubr
          195 hmoveto
          -87 callsubr
          -72 callsubr
          hintmask 01110000
          -8 -78 rlineto
          hintmask 10110000
          0 95 8 88 vhcurveto
          149 618 -106 callgsubr
          endchar
        </CharString>
        <CharString name="lcaron">
          -62 9 callgsubr
          195 hmoveto
          -87 callsubr
          hintmask 01100000
          -72 callsubr
          -8 -78 rlineto
          hintmask 10010000
          0 95 8 88 vhcurveto
          290 505 rmoveto
          -118 -11 rlineto
          0 9 -93 -1 -95 vhcurveto
          16 -5 66 21 rlineto
          23 88 13 85 0 vvcurveto
          endchar
        </CharString>
        <CharString name="lcommaaccent">
          -75 24 callsubr
          99 405 -20 23 2 callgsubr
          195 hmoveto
          -87 callsubr
          hintmask 11100000
          -72 callsubr
          -8 -78 rlineto
          0 95 8 88 vhcurveto
          -44 -92 -105 callgsubr
          endchar
        </CharString>
        <CharString name="ldot">
          -13 0 99 -86 -21 299 180 33 -20 23 36 callgsubr
          195 hmoveto
          -87 callsubr
          hintmask 01110000
          -72 callsubr
          -8 -78 rlineto
          hintmask 10101000
          0 95 8 88 vhcurveto
          237 291 rmoveto
          56 35 36 58 55 -31 31 -53 -57 -35 -36 -58 -55 30 -31 55 hvcurveto
          endchar
        </CharString>
        <CharString name="less">
          -126 63 -21 457 -20 hstem
          33 184 rmoveto
          0 113 -50 66 -29 vhcurveto
          -37 callsubr
          endchar
        </CharString>
        <CharString name="lessequal">
          -87 -124 124 -123 -20 642 -30 callgsubr
          52 184 rmoveto
          149 -66 30 -13 rlineto
          -37 callsubr
          381 -197 -14 callsubr
        </CharString>
        <CharString name="logicalnot">
          -51 32 -21 196 146 6 -30 callgsubr
          453 359 rmoveto
          hintmask 11000000
          0 -123 -6 -68 -89 -140 1 0 vhcurveto
          13 callsubr
          136 1 90 vhcurveto
          51 hlineto
          -1 -96 0 -91 0 vvcurveto
          13 -9 135 18 rlineto
          0 -1 65 70 vvcurveto
          1 102 12 78 0 vvcurveto
          endchar
        </CharString>
        <CharString name="lozenge">
          -15 -72 -21 744 -20 hstem
          40 252 rmoveto
          78 -168 74 -170 15 -7 151 7 83 188 70 153 1 51 -77 160 -77 178 -13 7 -152 -7 -78 -180 -75 -163 rlineto
          177 102 rmoveto
          51 116 rlineto
          8 hlineto
          60 -124 50 -115 -56 -129 -48 -112 rlineto
          -8 hlineto
          -59 123 -50 110 rlineto
          endchar
        </CharString>
        <CharString name="lslash">
          -57 9 callgsubr
          219 hmoveto
          124 123 -5 0 hvcurveto
          14 14 rlineto
          7 113 12 105 0 vvcurveto
          -11 13 -115 -11 rlineto
          -106 -5 -14 -24 -54 hhcurveto
          -17 -9 10 19 44 0 37 1 33 hvcurveto
          98 46 -28 81 -8 3 -57 -27 3 44 1 23 16 7 58 5 rlinecurve
          10 83 rlineto
          hintmask 01100000
          0 -143 -3 -40 vhcurveto
          -139 hlineto
          -7 -63 9 -12 rlineto
          20 -6 callgsubr
          -7 -32 hvcurveto
          -112 vlineto
          -82 -38 29 -82 8 -2 45 21 rlineto
          -38 vlineto
          -47 -12 -16 -41 -14 callgsubr
          hintmask 10010000
          0 95 8 88 vhcurveto
          endchar
        </CharString>
        <CharString name="m">
          148 0 76 -63 -21 438 75 -1 -20 25 -30 callgsubr
          395 hmoveto
          43 156 45 129 -7 -25 rrcurveto
          12 -151 hlineto
          -25 -11 -10 -31 -3 vhcurveto
          -10 -77 rlineto
          3 12 144 3 13 hhcurveto
          40 -1 53 -1 0 vvcurveto
          7 72 -6 7 rlineto
          0 -12 -1 -13 -25 -10 17 49 -3 vhcurveto
          -8 66 -10 131 52 vvcurveto
          32 8 6 45 1 vhcurveto
          7 76 rlineto
          hintmask 10001000
          -6 3 43 callgsubr
          -35 -2 -42 -2 vhcurveto
          hintmask 10010000
          -4 -56 -52 3 -58 hhcurveto
          -23 -93 -37 -126 0 vvcurveto
          -12 hlineto
          0 -33 127 -18 95 vhcurveto
          0 -89 -3 -48 -36 -90 4 0 vhcurveto
          -9 -74 7 -7 rlineto
          50 -6 -1 2 -29 -20 -28 -252 -3 vvcurveto
          -2 -33 -14 -13 -31 -3 -6 -76 rcurveline
          1 67 5 33 27 97 -24 callgsubr
          10 73 -8 6 rlineto
          0 -15 -1 -5 -19 -9 8 18 17 1 142 0 vhcurveto
          12 hlineto
          hintmask 01100000
          -7 25 41 -124 46 -169 rrcurveto
          endchar
        </CharString>
        <CharString name="m.sups">
          48 327 59 -42 -21 226 104 -19 callgsubr
          217 326 rmoveto
          0 61 1 25 27 61 -24 callgsubr
          10 60 -2 3 rlineto
          0 -6 -1 -6 -13 -4 6 17 vhcurveto
          10 129 rlineto
          6 8 9 5 8 hhcurveto
          21 6 -10 -32 -1 hvcurveto
          -1 -90 -2 -22 -4 -6 -15 -1 rlinecurve
          -5 -63 rlineto
          0 59 2 8 callgsubr
          16 101 30 vvcurveto
          57 -40 30 -77 -6 -36 -30 -30 -32 vhcurveto
          41 -11 -37 19 -62 hhcurveto
          -7 -36 -30 -30 -32 hvcurveto
          -3 2 -28 callgsubr
          -63 43 callgsubr
          56 4 46 29 58 25 callsubr
          62 -2 3 rlineto
          -9 hlineto
          -13 -3 4 15 9 4 68 4 52 hvcurveto
          6 9 9 6 7 1 callgsubr
          -15 -2 rlinecurve
          endchar
        </CharString>
        <CharString name="macron">
          565 122 -102 -21 129 -11 callgsubr
          347 693 -24 callsubr
        </CharString>
        <CharString name="macron.cap">
          695 122 -102 -21 129 -11 callgsubr
          347 823 -24 callsubr
        </CharString>
        <CharString name="minus">
          -51 177 146 -126 -21 153 -11 callgsubr
          483 329 rmoveto
          hintmask 10000000
          -25 callgsubr
          rlineto
          hintmask 01100000
          9 -13 rlineto
          hintmask 10000000
          1 callsubr
          endchar
        </CharString>
        <CharString name="mu">
          -11 -221 -21 230 140 -117 -21 494 47 callgsubr
          45 455 rmoveto
          -10 -28 rlineto
          0 12 -45 -57 vvcurveto
          -9 -252 rlineto
          -6 -161 -14 -140 0 vvcurveto
          15 -14 156 25 8 12 rlineto
          0 -4 48 -2 52 vhcurveto
          13 -1 14 13 vvcurveto
          59 vlineto
          5 3 rlineto
          -4 7 12 -3 11 hhcurveto
          15 35 40 36 27 hvcurveto
          10 -5 rlineto
          hintmask 11010000
          -49 9 39 -24 69 hhcurveto
          64 24 59 98 0 vvcurveto
          -17 26 rlineto
          0 -17 -8 -16 -17 -12 14 21 139 14 125 19 31 vhcurveto
          -14 22 rlineto
          0 -101 -15 -93 -13 vhcurveto
          -10 -27 rlineto
          0 13 -40 -62 vvcurveto
          -173 vlineto
          -7 -12 -19 -9 -15 hhcurveto
          -29 -14 20 42 120 12 115 16 31 hvcurveto
          -13 22 rlineto
          0 -83 -16 -99 -13 vhcurveto
          endchar
        </CharString>
        <CharString name="multiply">
          -51 47 -21 429 -20 hstem
          364 455 rmoveto
          0 -59 -65 -53 -54 vhcurveto
          -52 53 -54 55 0 vvcurveto
          -108 -83 -3 -16 rlineto
          0 58 -58 56 -55 vhcurveto
          -51 -50 -49 -49 0 vvcurveto
          79 -104 16 -3 rlineto
          0 52 53 53 53 vhcurveto
          108 -106 105 87 6 16 rlineto
          0 -61 55 -54 52 vhcurveto
          110 111 -84 102 rlineto
          endchar
        </CharString>
        <CharString name="n">
          19 callgsubr
          24 -30 callgsubr
          -47 callgsubr
          vhcurveto
          hintmask 01010000
          -66 -64 4 0 hvcurveto
          -59 callgsubr
          hintmask 10100000
          -86 callsubr
          endchar
        </CharString>
        <CharString name="n.sups">
          -136 327 59 -41 -21 225 104 -19 callgsubr
          217 326 rmoveto
          0 61 1 25 vhcurveto
          hintmask 01100000
          27 66 -3 0 hvcurveto
          8 60 -2 3 43 callgsubr
          -9 -1 -7 -13 -5 6 17 vhcurveto
          26 16 101 30 vvcurveto
          57 -41 30 -76 -13 -30 -31 -30 -28 vhcurveto
          -6 3 -28 callgsubr
          -62 43 callgsubr
          56 3 46 vhcurveto
          hintmask 01100000
          29 58 -3 0 hvcurveto
          hintmask 10100000
          8 62 -2 3 rlineto
          -9 hlineto
          -13 -3 4 15 9 5 69 4 52 hvcurveto
          6 8 9 5 7 1 callgsubr
          -15 -2 rlinecurve
          endchar
        </CharString>
        <CharString name="nacute">
          19 callgsubr
          247 -20 hstemhm
          hintmask 01110000
          -60 callsubr
          hintmask 10110000
          -86 callsubr
          88 333 -106 callgsubr
          endchar
        </CharString>
        <CharString name="nbspace">
          -413 endchar
        </CharString>
        <CharString name="ncaron">
          19 callgsubr
          267 -20 hstemhm
          hintmask 01110000
          -60 callsubr
          hintmask 10110000
          -86 callsubr
          63 459 -105 callsubr
        </CharString>
        <CharString name="ncommaaccent">
          73 24 callsubr
          73 431 -20 24 42 callsubr
          -47 callgsubr
          vhcurveto
          hintmask 11010000
          -66 -64 4 0 hvcurveto
          -59 callgsubr
          0 74 6 60 36 97 -24 callgsubr
          10 72 -9 7 rlineto
          0 -16 -3 -10 -25 -7 10 31 -1 vhcurveto
          -4 103 rlineto
          14 hlineto
          0 68 -95 84 -127 vhcurveto
          173 9 11 377 1 32 11 12 35 5 rlinecurve
          4 76 rlineto
          hintmask 11100000
          -1 -72 -1 -48 -48 -97 3 0 vhcurveto
          -4 -68 5 -9 rlineto
          25 hlineto
          20 5 -7 -27 2 hvcurveto
          4 -111 rlineto
          -184 -377 -105 callgsubr
          endchar
        </CharString>
        <CharString name="nine">
          -84 -75 42 callgsubr
          52 -8 -55 callgsubr
        </CharString>
        <CharString name="nine.dnom">
          -209 12 -21 325 85 hstem
          45 55 -82 callgsubr
        </CharString>
        <CharString name="nine.lf">
          -84 8 42 callgsubr
          52 75 -55 callgsubr
        </CharString>
        <CharString name="nine.numr">
          -209 266 -21 230 -20 115 85 hstem
          45 309 -82 callgsubr
        </CharString>
        <CharString name="nine.sinf">
          -209 -108 -21 325 85 hstem
          45 -65 -82 callgsubr
        </CharString>
        <CharString name="nine.sups">
          -209 339 -21 325 85 hstem
          45 382 -82 callgsubr
        </CharString>
        <CharString name="nine.tf">
          -97 8 42 callgsubr
          48 75 rmoveto
          31 -81 12 -7 rlineto
          0 357 84 304 vvcurveto
          136 -81 87 -126 -144 -88 -82 -133 -108 63 -68 97 vhcurveto
          55 21 5 -11 rlineto
          -70 -102 -111 -40 0 vvcurveto
          177 252 rmoveto
          -33 -15 27 55 51 15 21 36 35 19 -3 callsubr
          -19 -9 -23 hhcurveto
          endchar
        </CharString>
        <CharString name="nine.tosf">
          -107 -75 42 callgsubr
          46 -8 rmoveto
          30 -81 13 -7 rlineto
          0 352 84 304 vvcurveto
          136 -80 87 -125 -142 -88 -82 -133 -108 62 -68 96 vhcurveto
          53 21 5 -11 rlineto
          -70 -102 -106 -40 0 vvcurveto
          174 252 rmoveto
          -31 -15 27 55 51 14 21 35 34 18 -3 callsubr
          -18 -9 -22 hhcurveto
          endchar
        </CharString>
        <CharString name="notequal">
          -51 -21 -21 119 146 54 146 134 -20 hstem
          480 429 rmoveto
          0 -75 -4 -71 -1 vhcurveto
          19 125 -7 8 -115 -10 -19 -124 rlineto
          -84 -98 -3 callgsubr
          88 1 82 vhcurveto
          -8 -54 rlineto
          -77 -76 -3 callgsubr
          68 0 72 1 vhcurveto
          -16 -110 4 -9 116 11 16 108 rlineto
          32 hlineto
          54 54 1 53 hhcurveto
          13 136 -7 15 rlineto
          1 -99 -7 -77 vhcurveto
          8 54 rlineto
          54 54 1 54 hhcurveto
          13 136 rlineto
          endchar
        </CharString>
        <CharString name="ntilde">
          19 callgsubr
          71 -54 callgsubr
          hintmask 01110010
          -60 callsubr
          hintmask 10101010
          -86 callsubr
          -212 246 -33 callsubr
          hintmask 10110010
          -86 callgsubr
          hintmask 10100110
          -74 callgsubr
          endchar
        </CharString>
        <CharString name="numbersign">
          0 52 -21 114 116 79 120 122 -20 hstem
          47 339 rmoveto
          79 hlineto
          -5 -33 -7 -45 -93 1 -14 -105 9 -13 rlineto
          79 hlineto
          -18 -104 13 -9 106 14 14 100 rlineto
          82 hlineto
          -18 -105 13 -9 106 14 15 100 101 1 9 106 -7 15 -86 -3 10 60 2 16 103 1 9 106 -7 15 -85 -3 22 116 -14 7 -108 -9 -17 -117 rlineto
          -80 hlineto
          22 119 -14 7 -108 -9 -17 -117 -91 1 -14 -105 rlineto
          200 -28 rmoveto
          2 16 rlineto
          83 hlineto
          -5 -34 -7 -45 rlineto
          -83 hlineto
          endchar
        </CharString>
        <CharString name="o">
          -38 callgsubr
          hstem
          -97 callgsubr
          endchar
        </CharString>
        <CharString name="o.sups">
          -43 callgsubr
        </CharString>
        <CharString name="oacute">
          -38 callgsubr
          218 -20 hstem
          -97 callgsubr
          187 627 -106 callgsubr
          endchar
        </CharString>
        <CharString name="obreve">
          -38 callgsubr
          43 51 callgsubr
          hstem
          -97 callgsubr
          10 700 -99 callgsubr
          endchar
        </CharString>
        <CharString name="ocircumflex">
          -38 callgsubr
          hstem
          -97 callgsubr
          -145 573 -102 callgsubr
          endchar
        </CharString>
        <CharString name="odieresis">
          -38 callgsubr
          28 167 hstem
          -97 callgsubr
          102 550 -104 callsubr
          endchar
        </CharString>
        <CharString name="oe">
          205 -7 106 100 106 96 95 9 -20 28 42 callsubr
          500 146 rmoveto
          1 51 62 4 rlineto
          37 60 -2 0 hvcurveto
          12 97 -11 13 rlineto
          0 -66 -4 -24 vhcurveto
          -66 hlineto
          5 77 rlineto
          15 5 4 19 61 14 -8 -32 -10 -1 -18 0 vhcurveto
          124 7 rlineto
          4 74 15 86 0 vvcurveto
          hintmask 11001000
          -12 13 rlineto
          hintmask 11100000
          -5 -44 -120 -12 -103 hhcurveto
          hintmask 11010000
          -77 -61 9 -53 hhcurveto
          -180 -87 -83 -177 -167 91 -85 164 hvcurveto
          44 71 10 59 hhcurveto
          135 136 -8 -17 callgsubr
          -66 -8 -15 -14 -64 hhcurveto
          -32 -5 7 40 hvcurveto
          -222 -52 rmoveto
          -48 -12 44 148 hvcurveto
          hintmask 11100000
          89 10 26 41 32 26 -16 -48 vhcurveto
          -186 vlineto
          -39 -20 -18 -29 vhcurveto
          endchar
        </CharString>
        <CharString name="ogonek">
          -242 85 199 -20 hstem
          285 -55 callsubr
          29 19 31 76 98 vhcurveto
          -67 hlineto
          -98 -98 -31 -47 -50 33 callgsubr
        </CharString>
        <CharString name="ograve">
          -38 callgsubr
          218 -20 hstem
          -97 callgsubr
          -160 611 -95 callgsubr
          endchar
        </CharString>
        <CharString name="ohungarumlaut">
          -38 callgsubr
          223 -20 hstem
          -97 callgsubr
          46 664 -81 callgsubr
        </CharString>
        <CharString name="omacron">
          -38 callgsubr
          38 122 6 2 callgsubr
          -97 callgsubr
          155 688 rmoveto
          hintmask 11100000
          -84 callgsubr
          endchar
        </CharString>
        <CharString name="one">
          -180 0 88 hstem
          296 400 rmoveto
          8 36 11 20 21 16 -16 43 rcurveline
          -1 1 -77 -13 -96 -10 -42 -5 -45 -5 -45 25 callgsubr
          -201 50 callgsubr
          -1 113 11 74 16 callsubr
          135 4 63 11 49 vhcurveto
          endchar
        </CharString>
        <CharString name="one.dnom">
          -274 0 11 callsubr
          322 -87 callgsubr
        </CharString>
        <CharString name="one.lf">
          -179 0 88 -77 -21 490 -11 callgsubr
          294 483 rmoveto
          8 35 11 20 21 17 -16 43 rcurveline
          -1 1 -78 -13 -94 -10 -41 -5 -46 -5 -44 25 callgsubr
          -284 50 callgsubr
          hintmask 10100000
          0 114 10 73 16 callsubr
          169 5 120 8 41 vhcurveto
          endchar
        </CharString>
        <CharString name="one.numr">
          -274 254 63 -49 -21 408 -20 hstemhm
          hintmask 01100000
          219 576 -87 callgsubr
        </CharString>
        <CharString name="one.sinf">
          -274 -120 11 callsubr
          202 -87 callgsubr
        </CharString>
        <CharString name="one.sups">
          -274 327 11 callsubr
          649 -87 callgsubr
        </CharString>
        <CharString name="one.tf">
          -97 0 88 -77 -21 490 -11 callgsubr
          335 483 rmoveto
          8 35 12 20 25 17 -16 43 rcurveline
          -1 1 -71 -13 -108 -10 -143 -14 rcurveline
          -9 -75 9 -10 rlineto
          0 34 3 21 42 13 -11 -46 vhcurveto
          -284 vlineto
          -42 -27 -20 -74 -6 vhcurveto
          -9 -81 43 callgsubr
          120 10 78 59 111 -6 0 vhcurveto
          15 90 -4 6 rlineto
          0 -25 -2 -27 -33 -13 20 45 169 5 120 8 41 vhcurveto
          endchar
        </CharString>
        <CharString name="one.tosf">
          -107 0 88 hstem
          332 400 rmoveto
          8 36 12 20 24 16 -16 43 rcurveline
          -1 1 -70 -13 -109 -10 -143 -14 rcurveline
          -8 -75 9 -10 rlineto
          0 33 3 21 41 13 -11 -46 vhcurveto
          -201 vlineto
          -42 -27 -20 -72 -6 vhcurveto
          -10 -81 rlineto
          -1 119 11 78 59 110 -6 0 vhcurveto
          15 90 -4 6 rlineto
          0 -24 -2 -27 -33 -13 20 45 135 4 63 11 49 vhcurveto
          endchar
        </CharString>
        <CharString name="onedotenleader">
          -319 -9 36 callsubr
          -41 callsubr
          endchar
        </CharString>
        <CharString name="onehalf">
          320 -70 -21 112 -21 254 63 -34 118 254 -20 44 -20 hstemhm
          hintmask 11101100
          -66 callgsubr
          -156 -627 rmoveto
          69 4 rlineto
          73 164 28 callsubr
          3 61 15 93 0 vvcurveto
          -87 -6 rlineto
          -45 -3 -14 -16 -34 hhcurveto
          -31 hlineto
          -3 6 rlineto
          92 89 31 51 61 vvcurveto
          hintmask 11011100
          61 -55 41 -80 -54 -58 -29 -47 -40 vhcurveto
          18 -86 rlineto
          13 hlineto
          29 27 28 15 25 hhcurveto
          20 12 -9 -18 hvcurveto
          1 -21 -15 -23 -43 -46 -94 -97 rcurveline
          endchar
        </CharString>
        <CharString name="onequarter">
          288 -70 -21 746 -20 44 -20 hstem
          -66 callgsubr
          -194 -538 rmoveto
          155 -2 rlineto
          -1 -43 -3 -40 0 vvcurveto
          7 -8 121 8 9 8 rlineto
          0 -3 32 -1 39 vhcurveto
          44 -1 8 81 -8 10 rlineto
          -45 223 hlineto
          -106 9 -7 -2 -169 -242 rlineto
          147 93 rmoveto
          8 -81 -59 hlineto
          endchar
        </CharString>
        <CharString name="ordfeminine">
          -65 callgsubr
        </CharString>
        <CharString name="ordmasculine">
          -43 callgsubr
        </CharString>
        <CharString name="oslash">
          -3 -76 -21 88 108 297 117 86 -44 callsubr
          210 34 rmoveto
          -47 -11 43 143 86 10 25 39 48 11 -41 -143 -86 -11 -27 -39 hvcurveto
          endchar
        </CharString>
        <CharString name="oslashacute">
          -3 -76 -21 88 108 297 117 242 -44 callsubr
          369 577 -106 callgsubr
          -152 -527 rmoveto
          -47 -11 43 143 86 10 25 39 48 11 -41 -143 -86 -11 -27 -39 hvcurveto
          endchar
        </CharString>
        <CharString name="otilde">
          -38 callgsubr
          42 -54 callgsubr
          hintmask 11010100
          -97 callgsubr
          -114 540 -33 callsubr
          hintmask 11100100
          -86 callgsubr
          hintmask 11001100
          -74 callgsubr
          endchar
        </CharString>
        <CharString name="p">
          -34 0 75 326 108 -80 80 -5 -30 callgsubr
          15 438 rmoveto
          9 -10 rlineto
          0 17 1 13 15 5 -10 -32 vhcurveto
          -250 vlineto
          -43 -13 -17 -40 -14 callgsubr
          -1 121 8 38 35 108 25 callsubr
          72 -4 7 rlineto
          0 -14 -1 -11 -35 -8 15 36 vhcurveto
          31 72 vlineto
          113 97 86 100 56 -22 110 -210 hvcurveto
          hintmask 10010000
          0 -116 -5 -39 vhcurveto
          -122 hlineto
          229 -243 rmoveto
          6 122 rlineto
          hintmask 11000000
          15 1 2 3 10 hhcurveto
          53 23 -19 -45 -46 -13 -26 -29 -11 hvcurveto
          endchar
        </CharString>
        <CharString name="p.sups">
          -157 173 62 -44 -21 153 81 151 95 3 -20 hstemhm
          hintmask 01110000
          24 232 rmoveto
          -9 -62 rlineto
          hintmask 10110000
          0 61 3 37 vhcurveto
          hintmask 01110000
          33 80 -3 -3 hhcurveto
          10 63 -2 4 rlineto
          hintmask 10110000
          1 -21 -2 -14 hhcurveto
          -16 1 11 26 hvcurveto
          17 1 17 17 vvcurveto
          125 74 54 118 94 -56 61 -86 -6 -18 -20 -37 -30 hvcurveto
          -3 1 rlineto
          3 23 6 28 0 vvcurveto
          hintmask 10101000
          -9 8 rlineto
          0 -85 -14 -84 -12 vhcurveto
          -6 -54 4 -5 rlineto
          11 hlineto
          27 6 -6 -32 hvcurveto
          -174 vlineto
          -1 -31 -2 -28 -2 -32 rrcurveto
          -24 -6 -8 -21 -1 vhcurveto
          164 177 rmoveto
          37 1 58 1 49 vhcurveto
          hintmask 10110000
          1 6 5 1 7 hhcurveto
          26 9 -24 -64 -44 -9 -19 -19 -17 -12 6 -1 2 hvcurveto
          endchar
        </CharString>
        <CharString name="paragraph">
          17 -94 106 548 92 -5 -30 callgsubr
          319 106 rmoveto
          -68 -22 -26 -56 -52 -38 47 76 -9 vhcurveto
          -18 hlineto
          -25 -35 -21 -58 -37 vvcurveto
          -52 69 -47 77 148 137 136 148 91 7 192 5 43 vhcurveto
          3 31 4 5 38 10 2 4 rcurveline
          6 84 rlineto
          0 -133 -3 -31 vhcurveto
          hintmask 11000000
          -46 -64 5 -51 hhcurveto
          -142 -102 -96 -134 -136 113 -89 174 hvcurveto
          35 vlineto
          -44 60 -16 49 79 vvcurveto
          90 21 50 38 23 5 -3 -12 vhcurveto
          endchar
        </CharString>
        <CharString name="parenleft">
          -248 -125 -21 795 -20 hstem
          54 163 rmoveto
          -242 166 -67 0 vhcurveto
          12 hlineto
          62 60 rlineto
          11 vlineto
          0 -83 60 193 vvcurveto
          173 vlineto
          176 80 49 0 vhcurveto
          1 9 -52 64 rlineto
          -17 hlineto
          0 -169 -68 -245 vvcurveto
          endchar
        </CharString>
        <CharString name="parenright">
          -248 -125 -21 795 -20 hstem
          255 340 rmoveto
          242 -166 67 0 vhcurveto
          -12 hlineto
          -62 -60 rlineto
          -11 vlineto
          0 83 -60 -193 vvcurveto
          -173 vlineto
          -176 -80 -49 0 vhcurveto
          -1 -9 52 -64 rlineto
          17 hlineto
          0 169 68 245 vvcurveto
          endchar
        </CharString>
        <CharString name="partialdiff">
          -46 -14 107 254 124 269 -20 hstem
          237 449 rmoveto
          0 -26 14 -14 8 vhcurveto
          -106 -77 -109 -150 -144 84 -82 148 157 93 101 169 196 -154 183 -255 105 hvcurveto
          -16 -8 -51 -81 109 -71 70 -58 42 -64 rlinecurve
          61 -258 rmoveto
          -80 -10 -27 -30 -44 -13 31 104 105 6 14 43 16 11 -4 -6 9 vhcurveto
          8 -40 4 -45 -52 vvcurveto
          endchar
        </CharString>
        <CharString name="percent">
          201 -70 -21 79 138 89 142 -67 138 89 142 20 -20 hstemhm
          hintmask 11011000
          160 428 48 callgsubr
          30 21 12 51 56 25 -15 -32 -29 -22 -13 -51 hvcurveto
          0 callgsubr
          454 -164 48 callgsubr
          hvcurveto
          hintmask 11100100
          30 21 12 51 56 25 -15 -32 -29 -22 -13 -51 vhcurveto
          0 callgsubr
          34 659 -81 callsubr
          endchar
        </CharString>
        <CharString name="period">
          -319 -9 36 callsubr
          -41 callsubr
          endchar
        </CharString>
        <CharString name="periodcentered">
          -319 154 36 callsubr
          154 rmoveto
          11 callgsubr
        </CharString>
        <CharString name="perthousand">
          539 -70 -21 79 138 89 142 -67 138 89 142 20 -20 hstemhm
          hintmask 11011000
          160 428 48 callgsubr
          10 callgsubr
          hvcurveto
          -36 callgsubr
          454 -164 48 callgsubr
          hvcurveto
          hintmask 11100100
          10 callgsubr
          vhcurveto
          -36 callgsubr
          348 138 48 callgsubr
          10 callgsubr
          hvcurveto
          -36 callgsubr
          -304 659 -81 callsubr
          endchar
        </CharString>
        <CharString name="pi">
          86 -73 -21 82 147 244 116 -100 100 10 2 callgsubr
          518 205 rmoveto
          38 4 78 3 19 vhcurveto
          47 7 12 8 66 hhcurveto
          7 7 16 96 rlineto
          hintmask 11001000
          -6 7 50 callsubr
          -122 -10 -84 vhcurveto
          hintmask 11001000
          -59 -171 10 -114 hhcurveto
          -15 -7 -90 -75 -2 -9 36 -69 10 1 50 callsubr
          45 33 26 16 5 -10 -36 -156 -7 -238 -5 -16 vhcurveto
          10 -17 166 28 11 15 rlineto
          0 -2 47 48 vvcurveto
          66 1 177 1 68 vhcurveto
          33 2 4 4 27 hhcurveto
          26 7 -9 -35 hvcurveto
          -1 -229 rlineto
          -90 42 -41 95 23 99 100 23 vhcurveto
          -15 24 rlineto
          -62 -12 11 59 hvcurveto
          endchar
        </CharString>
        <CharString name="plus">
          -51 39 -21 159 146 170 -20 hstem
          312 493 rmoveto
          -131 -13 -1 -157 rlineto
          -20 callsubr
          156 1 17 callsubr
          endchar
        </CharString>
        <CharString name="plusminus">
          -51 -124 124 -123 -20 342 146 170 47 callgsubr
          312 515 rmoveto
          -131 -13 rlineto
          -52 -1 -53 -52 vvcurveto
          -20 callsubr
          52 52 1 52 hhcurveto
          17 callsubr
          137 -506 rmoveto
          0 -23 -2 -64 vhcurveto
          -335 hlineto
          -11 -105 11 -19 rlineto
          hintmask 01110000
          139 140 1 139 hhcurveto
          14 106 rlineto
          endchar
        </CharString>
        <CharString name="product">
          161 0 87 -71 -21 564 88 5 47 callsubr
          643 510 rmoveto
          3 37 8 7 46 8 7 90 rcurveline
          hintmask 10100000
          0 -129 -5 -43 vhcurveto
          -348 hlineto
          hintmask 10010000
          -39 -120 5 0 hvcurveto
          -10 -80 9 -14 rlineto
          hintmask 01100000
          0 15 1 11 28 7 -10 -41 vhcurveto
          -346 vlineto
          -12 callgsubr
          hintmask 10100000
          -1 105 5 62 hhcurveto
          40 118 -4 0 hvcurveto
          9 84 -8 10 rlineto
          0 -3 -1 -4 -1 vhcurveto
          -1 -5 -6 0 -9 hhcurveto
          -23 -5 13 56 106 4 113 6 122 hvcurveto
          40 2 11 12 37 hhcurveto
          69 22 6 -60 hvcurveto
          -333 vlineto
          -56 -10 -15 -46 -11 vhcurveto
          hintmask 01100000
          -8 -85 43 callgsubr
          98 5 59 42 125 -25 callsubr
          9 84 -8 10 rlineto
          0 -11 -3 -21 -26 -6 13 56 124 4 131 6 99 vhcurveto
          endchar
        </CharString>
        <CharString name="q">
          0 -192 145 38 108 297 117 hstem
          266 -9 rmoveto
          -155 168 42 -28 67 hhcurveto
          32 123 83 0 hvcurveto
          -15 60 -11 10 rlineto
          0 -40 -8 -37 -52 -73 27 37 -52 vhcurveto
          12 vlineto
          75 48 44 81 106 vvcurveto
          168 -81 81 -168 -179 -92 -91 -177 -167 86 -87 163 vhcurveto
          15 108 rmoveto
          -47 -11 43 143 86 10 25 39 48 11 -41 -143 -86 -11 -27 -39 hvcurveto
          endchar
        </CharString>
        <CharString name="q.sups">
          -179 173 60 -42 -21 153 90 156 80 14 -20 hstemhm
          hintmask 01110000
          149 170 rmoveto
          hintmask 10101000
          0 65 3 36 vhcurveto
          122 hlineto
          4 62 -2 3 rlineto
          0 -8 -1 -10 -13 -4 6 21 206 7 166 10 17 vhcurveto
          -11 10 -56 -21 rlineto
          hintmask 10110000
          5 -40 -31 2 -23 hhcurveto
          -111 -66 -64 -108 -99 46 -55 82 6 22 13 30 38 hvcurveto
          -2 -91 -1 -34 -10 -6 -44 -2 rlinecurve
          hintmask 01110000
          57 182 rmoveto
          0 -4 -2 -16 -25 -10 27 39 callsubr
        </CharString>
        <CharString name="question">
          -176 -9 199 381 145 hstem
          93 240 rmoveto
          15 -8 118 20 9 14 -8 69 3 6 rlineto
          132 87 31 36 70 vvcurveto
          100 -126 78 -170 4 vhcurveto
          -17 -9 -41 -118 14 -18 rlineto
          105 -5 58 -28 -46 vvcurveto
          -21 -16 -19 -31 -17 vhcurveto
          -97 -47 -3 -15 rlineto
          92 -382 rmoveto
          11 callgsubr
        </CharString>
        <CharString name="questiondown">
          -176 -241 145 381 199 hstem
          288 235 rmoveto
          -15 8 -118 -20 -9 -14 8 -69 -3 -6 rlineto
          -133 -88 -30 -36 -69 vvcurveto
          -100 126 -78 170 -4 vhcurveto
          17 9 41 118 -14 18 rlineto
          -104 4 -59 28 47 vvcurveto
          21 16 19 31 17 vhcurveto
          97 47 3 15 rlineto
          -92 382 18 callgsubr
          endchar
        </CharString>
        <CharString name="quotedbl">
          -211 422 -21 258 -20 hstem
          159 659 rmoveto
          -134 -14 rlineto
          0 11 -118 -2 -120 vhcurveto
          19 -6 73 25 rlineto
          26 112 16 109 0 vvcurveto
          161 12 rmoveto
          -134 -14 rlineto
          0 11 -118 -2 -120 vhcurveto
          19 -6 73 25 rlineto
          26 112 16 109 0 vvcurveto
          endchar
        </CharString>
        <CharString name="quotedblbase">
          -110 -101 7 callsubr
          -23 callgsubr
          206 -14 -105 callgsubr
          endchar
        </CharString>
        <CharString name="quotedblleft">
          -79 369 7 callsubr
          433 406 -51 callsubr
          -212 14 -51 callsubr
          endchar
        </CharString>
        <CharString name="quotedblright">
          -79 369 7 callsubr
          260 601 -51 callgsubr
          -218 -14 -51 callgsubr
          endchar
        </CharString>
        <CharString name="quoteleft">
          -294 369 7 callsubr
          218 406 -51 callsubr
          endchar
        </CharString>
        <CharString name="quoteright">
          -294 369 7 callsubr
          45 601 -51 callgsubr
          endchar
        </CharString>
        <CharString name="quotesinglbase">
          -319 -101 7 callsubr
          -23 callgsubr
          endchar
        </CharString>
        <CharString name="quotesingle">
          -381 422 -21 258 -20 hstem
          159 659 rmoveto
          -134 -14 rlineto
          0 11 -118 -2 -120 vhcurveto
          19 -6 73 25 rlineto
          26 112 16 109 0 vvcurveto
          endchar
        </CharString>
        <CharString name="r">
          -7 callsubr
          hstemhm
          hintmask 01001000
          -68 callsubr
          hintmask 10000100
          -29 callsubr
          hintmask 10001000
          -46 callsubr
          hintmask 00110000
          -21 callgsubr
          hintmask 10010000
          -63 callgsubr
          endchar
        </CharString>
        <CharString name="r.sups">
          -225 327 64 -47 -21 150 173 7 -30 callgsubr
          25 386 rmoveto
          -9 -62 rlineto
          0 63 3 44 vhcurveto
          hintmask 01100000
          41 76 -4 0 hvcurveto
          10 66 -5 6 43 callgsubr
          -24 -4 -16 -12 -7 7 13 8 8 110 0 vhcurveto
          4 7 7 2 7 hhcurveto
          17 4 -13 -51 hvcurveto
          70 4 rlineto
          4 74 14 86 0 vvcurveto
          -4 9 rlineto
          0 -16 2 -11 -37 -29 -17 -41 -31 vhcurveto
          -6 3 rlineto
          2 25 7 28 0 vvcurveto
          hintmask 10010000
          -9 9 rlineto
          0 -87 -14 -85 -11 vhcurveto
          -6 -55 4 -4 rlineto
          0 7 -1 3 29 5 -6 -32 vhcurveto
          -112 vlineto
          -23 -8 -8 -27 -1 vhcurveto
          endchar
        </CharString>
        <CharString name="racute">
          -7 callsubr
          247 -73 callsubr
          160 347 -106 callgsubr
          endchar
        </CharString>
        <CharString name="radical">
          -53 9 -21 754 -20 hstem
          64 320 rmoveto
          17 -71 63 -261 0 vvcurveto
          216 12 215 742 rlineto
          -116 hlineto
          -28 -20 -152 -577 rlineto
          -17 hlineto
          0 -49 281 -5 49 vhcurveto
          -6 7 -92 -12 rlineto
          -49 -6 -64 -5 0 vvcurveto
          -10 -86 2 -4 48 1 16 -11 11 -39 rlinecurve
          endchar
        </CharString>
        <CharString name="rcaron">
          -7 callsubr
          267 -73 callsubr
          135 473 -105 callsubr
        </CharString>
        <CharString name="rcommaaccent">
          27 -324 -21 337 83 -66 -21 33 -21 429 80 -5 36 callgsubr
          -68 callsubr
          hintmask 11000100
          -29 callsubr
          hintmask 11001000
          -46 callsubr
          hintmask 10011000
          -21 callgsubr
          hintmask 11001000
          -63 callgsubr
          -107 -363 -105 callgsubr
          endchar
        </CharString>
        <CharString name="registered">
          -89 303 42 72 200 -38 132 -122 -20 100 42 hstemhm
          hintmask 11001000
          30 507 rmoveto
          -113 91 -91 113 113 91 91 113 113 -91 91 -113 -113 -91 -91 -113 vhcurveto
          42 hmoveto
          89 73 73 89 89 73 -73 -89 -89 -73 -73 -89 -89 -73 73 89 vhcurveto
          62 -93 rmoveto
          0 27 2 18 1 vhcurveto
          12 hlineto
          13 34 -2 0 hvcurveto
          3 26 rlineto
          1 -1 0 1 vvcurveto
          -21 1 -2 1 20 vvcurveto
          21 17 vlineto
          19 -47 rlineto
          -26 11 8 -1 27 hhcurveto
          51 3 -13 5 2 18 -2 3 rcurveline
          -9 1 -14 13 -7 14 -20 32 rcurveline
          25 15 12 19 25 vvcurveto
          40 -31 17 -60 vhcurveto
          -1 -10 -22 -1 -9 hhcurveto
          -54 hlineto
          -3 -25 3 -2 rlineto
          hintmask 10011000
          0 5 1 6 6 2 -4 -14 vhcurveto
          -103 vlineto
          -17 -6 -7 -14 -3 vhcurveto
          84 130 rmoveto
          hintmask 10100000
          7 1 1 4 23 11 -9 -17 -18 -5 -8 -13 -4 vhcurveto
          -8 -12 1 -4 hhcurveto
          15 2 15 1 17 vhcurveto
          endchar
        </CharString>
        <CharString name="ring">
          542 210 -72 72 hstemhm
          hintmask 01000000
          201 612 -50 callgsubr
          hintmask 10000000
          -7 -70 -57 callsubr
          endchar
        </CharString>
        <CharString name="ring.cap">
          682 210 -72 72 hstemhm
          hintmask 01000000
          201 752 -50 callgsubr
          hintmask 10000000
          -7 -70 -57 callsubr
          endchar
        </CharString>
        <CharString name="s">
          -84 -7 callgsubr
          hstem
          192 -9 rmoveto
          -103 callgsubr
          endchar
        </CharString>
        <CharString name="s.sups">
          -249 319 75 181 78 hstem
          125 319 rmoveto
          96 67 43 63 50 -22 21 -87 36 hvcurveto
          -20 7 -9 8 10 vvcurveto
          12 9 6 15 23 12 -14 -30 vhcurveto
          -1 vlineto
          59 3 rlineto
          5 46 8 48 0 vvcurveto
          -7 12 rlineto
          0 -33 14 -55 -102 -64 -44 -69 -46 25 -29 58 -23 vhcurveto
          45 -16 8 -6 -12 vvcurveto
          -9 -9 -5 -14 -27 -24 24 25 -1 vhcurveto
          -59 -4 -3 -31 -4 -30 -4 -25 rlinecurve
          8 -10 rlineto
          0 43 -24 63 vhcurveto
          endchar
        </CharString>
        <CharString name="sacute">
          -13 callsubr
          218 -20 hstem
          192 -9 rmoveto
          -103 callgsubr
          235 627 -106 callgsubr
          endchar
        </CharString>
        <CharString name="scaron">
          -13 callsubr
          238 -20 hstem
          192 -9 rmoveto
          -103 callgsubr
          210 753 -105 callsubr
        </CharString>
        <CharString name="scedilla">
          -83 29 callsubr
          131 -27 callgsubr
          hstem
          166 -85 callgsubr
          7 32 rlineto
          131 12 78 58 91 vvcurveto
          89 -74 35 -66 25 vhcurveto
          -54 20 -50 13 30 vvcurveto
          17 19 11 27 34 22 -18 -33 vhcurveto
          -8 vlineto
          11 -7 104 7 rlineto
          7 70 16 66 0 vvcurveto
          -11 19 rlineto
          0 -69 22 -93 -160 -104 -66 -104 -83 63 -37 63 -26 vhcurveto
          59 -24 58 -14 -31 vvcurveto
          -14 -17 -9 -30 -42 -26 24 46 vhcurveto
          -113 -8 rlineto
          -3 -47 -16 -80 0 vvcurveto
          11 -15 rlineto
          0 65 -32 97 -2 vhcurveto
          endchar
        </CharString>
        <CharString name="scircumflex">
          -13 callsubr
          277 -20 hstem
          192 -9 rmoveto
          -103 callgsubr
          -77 581 -95 callsubr
        </CharString>
        <CharString name="scommaaccent">
          -83 -324 -21 336 114 -114 180 224 118 hstem
          192 -9 rmoveto
          -103 callgsubr
          -67 -83 -105 callgsubr
          endchar
        </CharString>
        <CharString name="section">
          -71 -95 118 456 -20 77 123 hstem
          418 67 rmoveto
          40 -20 29 -29 23 vhcurveto
          57 33 43 45 54 133 -205 29 57 vvcurveto
          15 14 11 17 26 27 -24 -33 12 vhcurveto
          25 hlineto
          18 15 24 76 38 vvcurveto
          27 -70 24 -77 -118 -87 -67 -91 -44 22 -31 30 -25 vhcurveto
          -50 -26 -56 -44 -69 -142 212 -5 -68 vvcurveto
          -15 -12 -9 -20 -44 -41 37 45 -7 vhcurveto
          -27 2 rlineto
          -26 -35 -14 -44 -46 vvcurveto
          -39 76 -38 80 125 95 70 92 vhcurveto
          -241 247 rmoveto
          17 7 14 12 12 vhcurveto
          56 -31 55 -28 -53 vvcurveto
          -16 -6 -12 -9 -11 vhcurveto
          -58 30 -57 27 51 vvcurveto
          endchar
        </CharString>
        <CharString name="semicolon">
          -319 -101 -21 311 67 0 199 hstemhm
          hintmask 11000000
          -23 callgsubr
          85 111 rmoveto
          62 39 40 64 hvcurveto
          hintmask 10100000
          60 -34 35 -59 -63 -39 -40 -64 -61 33 -34 61 vhcurveto
          endchar
        </CharString>
        <CharString name="seven">
          -122 -74 -4 callgsubr
          235 -95 -46 callgsubr
        </CharString>
        <CharString name="seven.dnom">
          -237 14 -16 callgsubr
          -7 -78 callgsubr
        </CharString>
        <CharString name="seven.lf">
          -124 10 -4 callgsubr
          235 -11 -46 callgsubr
        </CharString>
        <CharString name="seven.numr">
          -237 268 -16 callgsubr
          247 -78 callgsubr
        </CharString>
        <CharString name="seven.sinf">
          -237 -106 -16 callgsubr
          -127 -78 callgsubr
        </CharString>
        <CharString name="seven.sups">
          -237 341 -16 callgsubr
          320 -78 callgsubr
        </CharString>
        <CharString name="seven.tf">
          -97 10 -4 callgsubr
          245 -11 rmoveto
          39 143 61 152 31 63 83 170 rlinecurve
          -56 70 rlineto
          -232 hlineto
          hintmask 10100000
          -64 -62 4 0 hvcurveto
          -7 -5 rlineto
          -5 -106 -15 -133 0 vvcurveto
          83 6 11 65 13 11 62 6 rlinecurve
          101 9 -206 -389 12 -28 124 -38 rlineto
          endchar
        </CharString>
        <CharString name="seven.tosf">
          -107 -74 -4 callgsubr
          241 -95 rmoveto
          38 143 61 152 29 63 81 170 rlinecurve
          -57 70 rlineto
          -228 hlineto
          hintmask 10100000
          -63 -61 4 0 hvcurveto
          -6 -5 rlineto
          -5 -106 -16 -133 0 vvcurveto
          84 6 11 65 12 11 61 6 rlinecurve
          97 9 -202 -389 13 -28 124 -38 rlineto
          endchar
        </CharString>
        <CharString name="six">
          -58 callsubr
        </CharString>
        <CharString name="six.dnom">
          -209 -8 46 callgsubr
          338 -83 callgsubr
        </CharString>
        <CharString name="six.lf">
          -58 callsubr
        </CharString>
        <CharString name="six.numr">
          -209 246 85 180 -20 164 -20 hstem
          303 592 -83 callgsubr
        </CharString>
        <CharString name="six.sinf">
          -209 -128 46 callgsubr
          218 -83 callgsubr
        </CharString>
        <CharString name="six.sups">
          -209 319 46 callgsubr
          665 -83 callgsubr
        </CharString>
        <CharString name="six.tf">
          -97 -12 117 494 -20 hstem
          412 511 rmoveto
          -31 81 -12 7 rlineto
          0 -357 -84 -304 vvcurveto
          -136 81 -87 126 144 88 82 133 108 -63 68 -97 vhcurveto
          -55 -21 -6 11 rlineto
          70 101 112 41 0 vvcurveto
          -177 -252 rmoveto
          33 15 -27 -55 -51 -15 -21 -36 -35 -19 -4 callsubr
          19 9 24 hhcurveto
          endchar
        </CharString>
        <CharString name="six.tosf">
          -107 -12 117 494 -20 hstem
          404 511 rmoveto
          -30 81 -13 7 rlineto
          0 -352 -84 -304 vvcurveto
          -136 80 -87 125 142 88 82 133 108 -62 68 -96 vhcurveto
          -53 -21 -6 11 rlineto
          70 101 107 41 0 vvcurveto
          -174 -252 rmoveto
          31 15 -27 -55 -51 -14 -21 -35 -34 -18 -4 callsubr
          18 9 23 hhcurveto
          endchar
        </CharString>
        <CharString name="slash">
          -228 -89 -21 785 -20 hstem
          327 675 rmoveto
          -119 hlineto
          -115 -449 rlineto
          -39 -152 -50 -169 0 vvcurveto
          11 -15 rlineto
          126 hlineto
          0 41 160 42 165 vhcurveto
          43 162 77 278 0 vvcurveto
          endchar
        </CharString>
        <CharString name="space">
          -413 endchar
        </CharString>
        <CharString name="square1">
          -85 21 -21 472 -20 hstem
          0 vmoveto
          472 472 -472 hlineto
          endchar
        </CharString>
        <CharString name="square2">
          90 21 -21 647 -20 hstem
          0 vmoveto
          647 647 -647 hlineto
          endchar
        </CharString>
        <CharString name="sterling">
          -46 -12 153 -99 99 133 86 121 117 hstemhm
          hintmask 01110000
          447 216 rmoveto
          -45 -22 -30 -32 vhcurveto
          -29 -54 17 -23 hhcurveto
          -59 -14 rlineto
          16 16 13 42 34 vvcurveto
          1 38 rlineto
          79 57 -3 0 hvcurveto
          11 85 -5 7 rlineto
          0 -61 -3 -78 vhcurveto
          2 57 rlineto
          48 12 16 36 29 30 -11 -32 55 vhcurveto
          19 3 43 131 -5 11 rlineto
          9 -26 -51 6 -46 hhcurveto
          -129 -135 -108 -103 hvcurveto
          -27 vlineto
          -63 -9 -8 -70 4 -6 52 -3 13 -6 2 -31 rlinecurve
          -34 vlineto
          -43 -26 -34 -54 -28 vhcurveto
          25 -91 15 -6 rlineto
          30 51 42 13 44 hhcurveto
          hintmask 10110000
          63 71 -54 63 hhcurveto
          70 50 49 68 39 -14 51 -17 21 hvcurveto
          endchar
        </CharString>
        <CharString name="summation">
          46 14 -21 655 -20 21 -20 30 -15 callsubr
          555 19 rmoveto
          93 19 146 0 vhcurveto
          -126 -9 -10 -83 -25 -35 -60 -7 rlinecurve
          -153 -22 167 201 rlineto
          43 vlineto
          -124 199 96 -14 67 -11 22 -32 3 -78 rlinecurve
          120 17 rlineto
          0 -7 136 -2 85 vhcurveto
          hintmask 10010000
          -11 11 rlineto
          hintmask 11000000
          -181 -11 -8 callsubr
          -93 -92 1 -93 hhcurveto
          -46 hlineto
          -18 -44 185 -297 -203 -247 36 -68 82 10 426 -6 rlineto
          endchar
        </CharString>
        <CharString name="t">
          -46 0 71 -58 -21 407 105 9 -30 callgsubr
          -9 callsubr
          hintmask 01100000
          -6 -79 43 callgsubr
          119 8 55 48 126 -5 0 vhcurveto
          -61 callgsubr
          hintmask 10010000
          -12 12 -8 callsubr
          29 callgsubr
          hintmask 10010000
          -45 callsubr
          hintmask 10100000
          28 callgsubr
          endchar
        </CharString>
</ttFont>
